<?xml version="1.0" encoding="utf-8"?>
<!-- Generator: Adobe Illustrator 23.0.3, SVG Export Plug-In . SVG Version: 6.00 Build 0)  -->
<svg version="1.1" id="Layer_1" xmlns="http://www.w3.org/2000/svg" xmlns:xlink="http://www.w3.org/1999/xlink" x="0px" y="0px"
	 viewBox="0 0 2179 984" style="enable-background:new 0 0 2179 984;" xml:space="preserve">
<style type="text/css">
	.st0{opacity:0.3;fill:url(#SVGID_1_);}
</style>
<g>
	<radialGradient id="SVGID_1_" cx="1119.7567" cy="471.6769" r="919.3248" gradientUnits="userSpaceOnUse">
		<stop  offset="0.1231" style="stop-color:#F0D9D0"/>
		<stop  offset="0.2248" style="stop-color:#EED6CE"/>
		<stop  offset="0.313" style="stop-color:#E9CBC9"/>
		<stop  offset="0.3962" style="stop-color:#E0B9C0"/>
		<stop  offset="0.4764" style="stop-color:#D3A0B3"/>
		<stop  offset="0.5538" style="stop-color:#C380A3"/>
		<stop  offset="0.5642" style="stop-color:#C07BA1"/>
		<stop  offset="0.8233" style="stop-color:#903E85"/>
		<stop  offset="0.8667" style="stop-color:#883380"/>
	</radialGradient>
	<path class="st0" d="M-68.2,698.9c83,82.1,193.4,115,288.3,167.1c8.2,4.5,23.9,43.1,17.5,51.3c-7,8.8-98.6-38.8-149-52.8
		c-3.4-1-8.1-0.8-9.1,3.8c-0.8,3.7,1.8,7.1,4.1,9.4c38.8,38.7,86.9,54.3,132,76.6c4.5,2.2,12.9,7.1,10,12.3
		c-4.7,8.3-36.2-0.3-54.1-4.2C90.7,944.9,12,910.7-61.4,861.4 M2205.2,558.9c-65.8,76.4-147.3,122.6-229.6,157.6
		c-82.3,34.9-264.1,53.2-248,99.7c13,37.5,147.3-5.8,206.3-22.3c6.2-1.7,14.8,0.8,15.8,9.4c0.9,7.4-4.9,12.8-9.8,16
		c-54.3,35.1-113.5,55.7-173.4,60.4c-55.3,4.3-111.6-4.7-165.5,12.5c-6.6,2.1-14.4,6.6-14.9,15.8c-0.6,10.1,7.8,16.1,14.9,19
		c27,10.7,55.2,15.3,83.3,17c91.7,5.6,183.1-18.7,271.5-52.2c88.5-33.6,174.9-76.5,263.5-109.5c35-13.1,71.2-25,101.2-53
		L2205.2,558.9z M341.1,773.1c-23.3-15.3-46.8-29-71.1-40.8c-11.4-5.5-23-11.1-34.7-15.4c-10.5-3.8-25.5-8.7-36.2-4.8
		c-5.9,2.2-7.7,10.9-5.3,17.9c4.5,13.2,17,25,25.7,32.8c10.5,9.4,22.2,17.5,33.6,24.7c23.7,15,47.7,26.4,73.1,34.2
		c9.3,2.9,19.1-2.8,22.8-15.4C352.3,794.9,349.9,778.9,341.1,773.1z M2186.3,158.5c-40.8,80.8-106.2,130.2-169.3,176.7
		c-91.4,67.3-279.4,127.7-287.3,159.1c-7.3,29,40.6,20.7,62.4,14.4c136.6-39.4,345.5-196.1,394.4-188.6c14.3,2.2,5.5,39.2-2.5,55.6
		c-8,16.3-20.4,27.5-32.6,37.9c-38.5,32.9-78.5,62.5-119.7,88.6c-15.1,9.6-36.9,19.8-37.1,42.6c-0.2,28,39.9,5.2,59.2-3.7
		c53-24.3,105.3-51.2,156.9-80.6L2186.3,158.5z M356,633.4c-2.8,34.4,201.1,47.7,303.8,40.6c7.6-0.5,20.8,8.1,17.8,17.7
		c-4.1,12.9-278.8,72.7-516.2-31.4c-29.4-12.9-86.3-53.8-76.3-78.5c9-22.2,99.6,9.6,150.1,18.9c19.9,3.7,60.7-5.2,26.7-42.5
		c-4.6-5.1-25.4-10.2-31.2-12c-105.4-33.6-211.8-65-311.7-122l70.4-110.9c177.8,108,361.4,210.2,555.1,233.4
		c53.4,6.4,107.2,6.7,160.7,4c20.9-1.1,56.7-5.8,57.7,22.8c0.9,25.4-236.6,78.8-361.7,48.8C369.1,614.6,356.6,625.7,356,633.4z
		 M259.7,501.5C193.9,460.2,60,382.8,52.9,413.8c-4,17.3,8.5,26.7,21.5,30.6c31.5,9.7,61.5,27.2,92.2,40.7
		c35.6,15.7,103.9,41.9,108.7,35.7C280.6,514,266.3,505.7,259.7,501.5z M265.1,327.4c-108.2-58-137.5-117.6-148.2-93
		c-12.1,27.8,47.4,94.1,131.9,137.2c116.6,59.4,148.8,28.6,146.3,15.1C390.8,363.2,310.9,351.9,265.1,327.4z M2019.3,446.1
		c-17,9.6-34.2,18.7-51.2,28.1c-4.1,2.2-36.5,15.8-31.3,26.1c7,13.8,31.8,2,41.2-1.4c17.5-6.3,33-17.3,48-31.1
		C2033.5,460.8,2028.9,440.7,2019.3,446.1z M153.6,695c-27.2-15.4-54.4-30.7-83.3-38.8c-14.5-4.1-28.7-8.2-43.3-11
		c-12.1-2.3-27.9-7.8-39.7-2.4c-2,0.9-3.1,4-2,6.6c6.9,15.5,22.4,25.1,33.6,33.9c12.5,9.9,25.6,17.5,39,25.3
		c29.3,17.1,60.2,24,91.7,28.9c7.7,1.2,14.6-9.1,15.5-18.8C165.9,707.2,161.1,699.2,153.6,695z M1934,591.2
		c-11.4,4.4-23.1,8.1-34.4,13.2c-10.9,4.9-21.4,11-32.2,16.3c-10.6,5.1-21.4,10.1-32.2,14.3c-9.2,3.5-22.1,3.5-30,11.3
		c-2,1.9-2.7,4.5-2.3,7.8c0,0.3,0.1,0.5,0.1,0.8c0.2,1.8,1.5,3.2,2.7,3.7c10.5,4.4,19.8,6.7,31,7.1c12.6,0.4,24.8-1.4,37.2-4.7
		c25.6-6.9,47.2-21.4,69.9-38.4C1956,613.2,1947.6,585.9,1934,591.2z M428.6,469.1c-19.6-9.1-39.7-16.4-59.9-22.7
		c-9.6-3-19.1-5.8-28.7-8.6c-7.8-2.3-18.9-6.8-26.5-3.1c-0.4,0.2-0.5,0.8-0.2,1.3c5.1,7.8,15.4,11.2,22.5,14.4
		c9.8,4.4,19.8,8.4,29.7,12.5c19.8,8.1,40,15.3,60.3,20.5C432.5,485,435.2,472.2,428.6,469.1z M427.3,207.3
		c-2-10.1-34.5-28.8-49.5-34.4C273.8,134.2,175.7,65.7,91.5-26.8L-21.1,1.5c65.4,55.6,186.7,154.6,255.8,201
		c35.7,24,126.7,73.2,136.1,46.5c8.1-23.1-67.5-45.7-56-64c4.3-6.8,59.1,23.4,88.6,35.1c5,2,10,2.7,15.2,2.3
		C427.6,221.7,428.7,214.2,427.3,207.3z M1951.8,0.3c-35.6,38.4-75.1,70-116.9,93.9c-28.6,16.3-77.9,32.8-83.3,55.3
		c-2.4,10,12.2,9.8,19.4,6.2c14.4-7,28.9-14.1,43.3-21.1c6.3-3.1,20-5.7,18.2,3.2c-6.7,33.6-77.6,55.3-119.9,70.1
		c-16.7,5.9-44.5,17-46.1,29.1c-1.6,12.6,43.5,10.2,65.6,8.1c53.1-5.1,105.8-17.9,156.9-38.2c82.9-32.9,178.7-137.5,229-233.8
		L1951.8,0.3z M471.9,192.1c39.2,13.9,79.4,22.8,119.9,26.3c24.2,2.1,48.8,2.3,72.3-6.1c3.8-1.4,8.2-4.1,8.5-9.4
		c0.3-5.8-4.5-9.4-8.6-10.9c-22.2-8.4-45.7-5.2-68.8-4.3c-34.4,1.3-68.9-2.7-102.7-12.1c-32.4-9-90.5-35.8-97.8-19.9
		C387.4,171.5,471.9,192.1,471.9,192.1z M666.6,362.6c-4.1-0.9-155.1-24.2-171.1-20.9c-6.9,1.4-6.1,8.1-4.8,11.1
		c5,11.4,15.7,14.5,25.3,16.4c49.9,9.7,101.1,18.8,150.8,7.6C682.1,373.4,676.7,364.9,666.6,362.6z M2047,169.2
		c-15.4,17.9-61.4,53.1-106,71.1c-8.2,3.3-24.5,5.1-21.8,16.3c4.1,17,25.6,4.5,38.1-0.7c16.5-6.8,32.3-15.9,48.2-25.1
		c9.7-5.6,18.5-13.5,27.7-20.4C2074.7,179.3,2053.6,161.5,2047,169.2z M1702.3,137.2c-16.1,7.2-31.3,13.9-48.2,18.9
		c-30.8,9.3-80.7,2.2-84.2,10.9c-7.5,18.7,28.6,15.9,44.2,15.3c25.6-1,51.2-7,75.6-17.6c7.2-3.2,14.7-7.1,19.6-15.1
		c1-1.6,1.9-3.5,1.8-5.5C1711.2,138.9,1705.9,135.6,1702.3,137.2z M494.4,301.7c-14.5-5.3-29.1-10-43.8-14
		c-13.2-3.6-28.7-10.5-42.3-9.2c-3.6,0.4-5.6,7.3-2,10c12,8.8,27.8,11.1,41,15.1c14.7,4.5,29.4,8.3,44.3,11.5
		C498,316.4,500.9,304,494.4,301.7z M663.9,258.8c-33.7,2.6-67.2,3.5-100.9,2.5c-2.2-0.1-4.5,1.7-5.5,4.4c-0.6,1.5-1.6,3.6-1,5.4
		c0.1,0.5,0.3,0.9,0.4,1.4c1.1,3.9,3.1,6.2,6.2,6.5c34.1,3.5,68.6,1.8,102.4-5.1C671.6,272.5,670.1,258.3,663.9,258.8z
		 M1764.8,332.6c-21.8,0-43.6,8-64.9,13c-11.1,2.6-22.2,5.2-33.4,6.5c-9.2,1-20.3-0.6-28.9,4.3c-1.4,0.8-1.6,2.9-0.4,4.1
		c7,7.2,17.6,7.8,26.1,8.2c11.2,0.5,22.5-1.1,33.5-3.4c22.9-4.8,47.5-8.1,69.3-18.8C1771.5,343.9,1770.9,332.6,1764.8,332.6z
		 M246.6,236.2c-28.5-14.6-57.5-27.3-85.9-42.3c-1.9-1-3.5,2.9-2,4.7c24,29.1,52.2,50.1,84,57.2C252,257.9,255.6,240.9,246.6,236.2z
		 M557.2,447.1c-23-7.8-46.6-13.2-70.2-16.2c-11.3-1.4-22.6-2.6-33.9-3.7c-11.3-1.1-23.3-3-34.4-0.3c-1.9,0.5-2,4.3-0.5,5.5
		c9.4,7.5,20.8,11.2,31.3,15c11.6,4.1,23.2,8,34.9,11.3c23.2,6.5,47.2,9.8,70.8,9.6C563.8,468.1,565.9,450.1,557.2,447.1z
		 M142.3,331.2c-23.7-14.4-46.9-29.5-71.1-42.4c-24-12.9-47.9-25.3-72.1-37.5c-2-1-3.8,3.2-2.1,5c20.5,22.1,41.5,41.1,64.6,57.8
		c23.7,17.2,48.2,28.7,73.9,38.8C144.7,356.4,151.4,336.8,142.3,331.2z M121,162.8c-15.1-10.7-30.2-20.4-46.2-28.2
		c-7.6-3.7-15.2-7.8-22.9-11.2c-8.2-3.6-16.5-5.7-24.8-8.7c-2-0.7-3.5,2.7-2,4.7c5.7,8,11,16.1,17.5,22.9c7,7.4,14.3,13.9,21.8,20.1
		c15.2,12.6,31.1,21.1,48.3,27.1C124.2,193.6,132.1,170.7,121,162.8z M1643.1,24.6c-28.5,23.7-56.7,48.8-80.4,81.2
		c-4.7,6.4,0.1,17.4,6.4,15.1c33.7-12.1,62.6-39.5,87.1-72.9C1664.8,36.1,1653.7,15.8,1643.1,24.6z M1694.1,427.1
		c-19.3,0.2-38.7,0.5-58,2.8c-19,2.2-38.2,1.2-56.5,9.6c-3.5,1.6-5.5,8.9-1.5,11.8c17.8,13,37.6,14.1,57.4,14.7
		c20.4,0.7,40.9-4.3,60.4-12.4C1705.8,449.4,1705.8,427,1694.1,427.1z"/>
</g>
</svg>
