<?xml version="1.0" encoding="utf-8"?>
<!-- Generator: Adobe Illustrator 23.0.3, SVG Export Plug-In . SVG Version: 6.00 Build 0)  -->
<svg version="1.1" id="Layer_1" xmlns="http://www.w3.org/2000/svg" xmlns:xlink="http://www.w3.org/1999/xlink" x="0px" y="0px"
	 viewBox="0 0 2164.3 300.1" style="enable-background:new 0 0 2164.3 300.1;" xml:space="preserve">
<style type="text/css">
	.st0{fill:#35215B;}
	.st1{fill:#271249;}
</style>
<g>
	<g>
		<path class="st0" d="M1164,318.9l8.1-34.3c-1.2,0.6-2.4,1.1-3.6,1.4c1.2-2.8,4.2-9.9,5.7-13.2c0.1-0.2,0.2-0.4,0.3-0.6
			c-0.1,0-0.1,0-0.2,0c-3.2,0.7-7.8,5.6-10.3,7.3c2-4.4,6.9-11.3,11.6-14.8c0.6-0.5,1.2-0.8,1.8-1.1c-0.6,0.1-1.1,0.2-1.7,0.3
			c-7.7,2.1-14.9,10.4-18.7,16.2c1.2-6,1.7-16.9,0.5-23c-0.7,3.4-0.7,14.2-6.6,17.2c2.3-8,6.4-18.7,9.2-21.9
			c-5.9,3.4-10.1,10.8-14.4,15.7c2.4-6.8,0.1-17.9-4.5-24.1c1.3,5.3,1.1,16.2-1.5,21.1c-0.3-2.8-1.1-9.6-2.9-12
			c-1.6,2.9-3.5,8.9-5.1,11.8c-4-7-4.2-16.4-0.2-23.2c-7.5,4.1-14.2,11.2-18.7,17.8c0.6-5.9,3.2-16.4-0.4-21.5
			c-1.9,4.9-7.9,13.9-9.9,18.8c-0.1-4.4,0.6-12.2-2.3-15.9c-1.8,2.7-5.6,7.8-7.4,10.4c-1-9.2,1.5-19.9,7.2-27.6
			c-9.1,5.6-17.2,15.9-21.6,24.7c1.3-5,3.2-9.7-0.3-13.5c0,3.8-6.5,8.8-9.2,11.7c3.3-5.3,1.9-10.7,1.2-13.9c0.1,3.8-4.1,10.3-7,13.1
			c-0.9-8.8,7.4-18.9,11.8-24.3c-7.5,0.3-17.4,8-19.7,18.3c1.1-6.1-2.7-10.5-3.6-17.3c0.1,5.1-3.5,13.2-6.4,17.5
			c-1.3-8.9-4-17.2-9.5-24c1.9,6.4,0.5,14.4,0.1,20.9c-3.1-11.5-10-24.9-21.3-32c4.2,8.6,6.1,20.2,5.4,29.5
			c-2.6-6.4-8-13.4-13.1-18.6c-0.2,4.2,1.3,9.5-3,13.6c-1.6-8.4-3.5-19.1-1.6-27.3c0,0-1.6,3.2-7.9,18.4c0-6.1-2.4-17.5-4.2-23.4
			c-1.8-5.9-4.6-7-7.8-10.6c4.3,9,3.6,20.7,0,29.8c-3.8-5.2-1.8-11.6-8.9-16.8c0.3,5.4-0.7,10.8-2.8,15.9c-0.6,1.3-2,2.9-3.4,2.2
			c-0.6-0.3-0.5-13.4-11.6-23.4c-1.2,7.1-6.6,13.4-12.6,18.3c3.1-7,5.5-11.2-1.8-20.7c0.2,8.2-5.3,7-7.4,11.6
			c-0.5,1.1-1.2,2.4-2.5,2.8c-2.7,0.8-4.7-2.4-4.9-4.8c-0.1-1.9-0.3-4.1-1.6-5.5c0.6-1.4-0.1-5.6,1.4-7.5
			c-12.1,4-13.6,7.1-15.6,14.4c-1.7-7.1,2.1-14,5.7-20.4c-15.6,2.4-24,13.2-24.7,13.1c-1.7-0.2-1.8-2.2-1.4-3.6
			c1.6-5.2,4.3-10.1,8.1-14.4c-9.2,0.6-10.8,8-17.3,10.3c3.1-9.3,10.2-17.4,19.6-22.6c-7.1-0.5-14,2.2-19.3,6.1
			c-5.3,3.9-9.3,8.9-13.2,13.9c4.6-15.6,1.3-21,1.3-21c-3.9,7.7-9.3,14.8-16.1,20.8c2.5-3.5,5.1-7,7.6-10.5
			c-7.5,1.7-14.6,4.5-20.9,8.4c5.4-7.9,13-14.6,22-19.5c-13.8-0.1-27.4,4.4-37.4,12.2c4-5.5,8.9-10.5,14.6-14.7
			c-10.4,1-20.1,5.3-27,11.9c0.4-5,2.4-9.9,5.8-14c-7.6,1.4-14,6.1-17,12.2c-0.1-8.4-0.2-16.8-0.4-25.1c-0.1,8.1-3.6,16.1-9.5,22.3
			c-0.5-3.8,0.6-7.7,3.2-10.7c-2.7,2.2-7.2,0.7-8,6.7c-0.3-3.8,0.8-7.6,3.3-10.6c-5.3,1.3-8.7,5.1-10.9,9.9
			c2.2-9.4,1.3-19.4-2.4-28.6c-0.4,9.2-4.4,18.2-11.2,25.1c0.3-3.1,0.6-6.2,0.9-9.3c-4.8,1.5-9,4.3-12,7.9c1.6-5,3.2-9.9,4.7-14.9
			c-6.3,2.3-11.7,6.5-15.1,11.6c0.6-7.7-0.9-15.5-4.4-22.7c-1.1,7.7-6.6,14.7-14.4,18.4c0.6-3.2,1.1-6.3,1.7-9.5
			c-3,1.1-5.6,2.8-7.7,4.9c1-5.3,4-10.3,8.5-14c-7.8,2.6-13.9,8.4-16.4,15.2c-0.3-6.1-1.8-12.2-4.5-18c0.2,3.4-0.5,8.6-1.6,14.3
			c0.3-8.3,1-15.7,3-19.3c-5,4.4-9,9.4-12,14.9c0.7-7.1-2.4-14.6-8.4-19.9c2.5,5,3.1,10.6,1.7,15.9c-1-2.7-2.7-5.2-4.9-7.3
			c-0.8,3.1-1.7,6.2-2.6,9.3c-5.5-6.2-9.7-9.8-7.4-17.2c-6.3,5.4-8.7,11.8-11.5,19.1c-0.9-5.9-2.9-12.6-7.8-17
			c-0.7,5.1-2.3,11-3,16.2c-1.1-4.3-3.7-9-7.4-12.2c-1.1,3-3.3,5.5-4.4,8.5c-3.2-8.9-5.7-14.5-2-23.1c-7.5,7.1-9.4,15.9-11.6,25.4
			c0.1-5.1-2.1-14-4.3-16.5c0.9,3.7-2.5,11.2-4.4,14.5c-0.9-3.8-0.2-11.3-1.7-14.4c1,3.7-2.2,10.6-4.3,13.9
			c-3.1-8.5-0.1-17.4-0.1-17.4s-6.4,4.7-9.2,14.9c0-6.6-4.1-8.6-6.3-12c1.3,5-2.1,4.3-3.9,9.1c-3.4-8.5-4.2-9.5-13.3-14.1
			c3.4,6,0.7,6,1.9,12.4c-5.5-7.1-10.8-12.2-20.5-16.7c6.1,7.8,1.8,8.9,3.4,18.1c-4.1-5.8-7.4-7.4-13.6-11.7c0.8,4.1-0.3,5.5-1,9.1
			c-3.6-8-7.3-8.6-7.4-17c0,0-4.5,2.9-6.7,11.5c-1.4-6-4.5-19-14.1-24.1c6.4,8.1,4.7,10.8,2.4,20.9c-5.3-7.3-9.5-12.3-9.5-12.3
			s0.2,6.1-0.7,11.4c-0.2,1.4-2.6,3.8-4.3,3.4c-0.7-0.2-3.8-12-15-20c0.6,7.2-3.2,20.6-8.1,24.3c-0.6-7,3.3-17.2-6.1-25.2
			c2.2,8.1-1.7,10-2.6,15c-0.2,1.2-1.4,2.7-2.6,3.4c-0.4,0.2-3,1.7-3.4,1.7c0.3-2.6,1.2-5.6,1.2-8.3c-2.5-0.1-3-0.3-4.2,1.6
			c-1.1,6.5,0.2-4.2-2.7-4.6c-0.8,3.3-5.4,13.2-4.4,10.3c0.4-1.2-3.4,1.3-4.5-3.6c-1.2-4.9-2-6.1,1.8-13.6c-8.9,6.6-13,16-12.6,21.2
			c-3.4-6.6-5-14.2-3-21.1c-14.6,5.1-15.7,14.6-16.5,14.6c-1.6,0.1-4.8-4.3-4.8-5.7c0.3-5.4,1.1-7,3.7-11.9
			c-8.7,2.2-5.3,4.4-11.1,7.8c0.8-9.6,1.7-16.1,9.7-22.8c-7,0.7-9.1,1.8-13.3,6.6c-4.3,4.7-6.9,10.4-9.5,16
			c0.8-16.2-3.7-20.9-3.7-20.9c-1.9,8.3-5.6,16.2-10.7,23.3c1.6-3.9,3.3-7.8,4.9-11.6c-6.9,2.9-13.2,7-18.4,11.8
			c3.4-8.7,9.2-16.6,16.8-23.1c-13.4,2.4-25.6,9.1-33.6,18.5c2.6-6.1,6.2-11.9,10.7-17c-9.9,2.8-18.4,8.7-23.4,16.4
			c-0.8-5,0-10.2,2.3-14.8c-7,2.7-12.2,8.5-13.6,15c-2.1-8.3-4.3-16.5-6.4-24.8c1.9,8.1,0.5,16.6-3.9,23.7
			c-1.4-3.6-1.2-7.7,0.5-11.1c-2.1,2.7-6.9,1.9-6.2,8c-1.2-3.6-1-7.6,0.7-11c-4.9,2.2-7.2,6.5-8.2,11.6c-0.2-9.7-3.4-19.3-9.2-27.8
			c1.8,9.1,0.1,18.6-4.9,26.7c-0.4-3.1-0.9-6.2-1.3-9.3c-4.3,2.3-7.8,5.8-9.8,9.8c0.4-5.2,0.7-10.3,1.1-15.5c-5.6,3.4-9.9,8.4-12,14
			c-1.2-7.6-4.6-15.1-9.6-21.6c0.7,7.7-2.9,15.6-9.7,20.6c-0.2-3.2-0.4-6.4-0.6-9.6c-2.6,1.6-4.8,3.8-6.3,6.2
			c-0.3-5.4,1.5-10.8,5-15.2c-7,4-11.6,10.7-12.4,17.8c-1.8-6-4.7-11.7-8.7-17c1.7,5.6,2.2,16.1,2.1,26.2c-1.2,0.6-2.6,0.8-3.7,0
			c-1.1-0.8-1.2-2.2-1.2-3.4c0-5-3.1-7.4,0.5-14.9c-10.1,5.9-13.6,12-13.9,19c-0.2,0-0.4,0-0.5,0c-2.7-6.3-1-13.4,0.8-19.9
			c-14.5,5.3-19.8,17.5-20.6,17.6c-1.7,0.1-2.3-1.8-2.2-3.2c0.2-5.4,1.6-10.8,4.1-15.7c-8.7,2.3-8.4,9.8-14.1,13.4
			c0.6-9.7,5.3-19,13.1-25.8c-7,0.9-13,4.8-17.1,9.7c-4.1,4.8-6.7,10.5-9.2,16.1c0.5-16.2-4.1-20.8-4.1-20.8
			c-1.7,8.3-5.2,16.3-10.2,23.5c1.6-3.9,3.1-7.8,4.7-11.7c-6.9,3-13,7.2-18.1,12.1c3.2-8.8,8.8-16.8,16.3-23.4
			c-13.4,2.6-25.4,9.5-33.2,19.1c2.4-6.1,5.9-12,10.3-17.2c-9.8,2.9-18.1,9-23,16.8c-0.9-5-0.2-10.2,2-14.8
			c-6.9,2.9-12,8.7-13.3,15.2c-2.3-8.1-4.5-16.3-6.8-24.4c1.9,7.9,0.7,16.3-3.5,23.5c-1.5-3.6-1.4-7.6,0.3-11.1
			c-2,2.7-6.9,2-6.1,8.1c-1.3-3.6-1.1-7.6,0.4-11c-4.8,2.3-7,6.7-7.9,11.7c-0.3-9.7-3.8-19.3-9.8-27.6c2,9.1,0.5,18.6-4.3,26.8
			c-0.5-3.1-1-6.2-1.5-9.3c-4.3,2.4-7.6,5.9-9.5,10c0.2-5.2,0.5-10.3,0.7-15.5c-5.6,3.5-9.7,8.6-11.7,14.2
			c-1.4-7.6-4.9-15-10.1-21.4C31,78,27.4,85.9,20.8,91c-0.3-3.2-0.5-6.4-0.8-9.6c-2.6,1.6-4.8,3.8-6.2,6.3
			c-0.4-5.4,1.2-10.8,4.6-15.3c-6.9,4.1-11.4,10.8-12,18c-1.9-6-4.9-11.7-9-16.8c1.4,4.5,2.4,9,3,13.6c-1.3,1.1-2,2.9-2.6,4.5
			c-0.9,2.3-3.7,4.8-6.1,3.4c-1.2-0.7-1.5-2.1-1.6-3.3c-0.7-4.9-6.1-2.9-3.5-10.7c-1.1,1.1-2,2.1-2.8,3.1v234.8H1164z"/>
	</g>
</g>
<g>
	<g>
		<path class="st1" d="M2174.6,318.9V257c-3.1,2.6-6,5.5-8,7c1.3-3.9,4.3-9.3,8-14.1v-5.1c-9,5.6-16,14.7-19.8,21.3
			c0.2-8.1-2.1-22.5-6-30.2c-0.1,4.6,3.1,18.8-6.1,23.9c1.5-11,5.3-25.7,9.1-30.5c-9.1,5.6-14.1,16.2-19.9,23.4
			c2.1-9.5-5.2-23.6-15-30.7c3.7,6.7,6.8,21.1,3.7,28c-1.3-3.6-4.8-12.4-8.5-15.2c-1.9,4.1-3.4,12.4-5.2,16.5
			c-8.9-8.4-12.2-20.7-7.3-30.4c-11.6,6.8-21,17.5-26.8,27c-0.8-7.9,0.6-22.1-7.2-28.2c-1.9,6.8-9.4,19.8-11.3,26.6
			c-1.5-5.8-2.6-16.1-8.8-20.4c-2.2,3.9-7.3,11.3-9.5,15.1c-4.5-11.8-3.4-26.4,4-37.6c-13.9,9.1-24.7,24.2-29.5,36.7
			c0.8-6.8,2.6-13.3-4.5-17.6c1.1,4.9-8.5,12.8-12.3,17.1c4.1-7.7,0.1-14.4-2.1-18.4c1.3,5-4,14.3-8.1,18.6
			c-4.3-11.3,7-26.3,13-34.2c-12.8,1.9-27.5,13.9-28.2,27.9c0-8.2-7.7-13.3-11.3-22.1c1.7,6.6-2,18-5.8,24.3
			c-4.8-11.4-11.9-21.8-23.5-29.6c5.1,8,5.1,18.8,6.5,27.4c-8.8-14.5-24.6-30.8-46.1-37.8c9.7,10.5,16.5,25.4,18,37.6
			c-6.3-7.8-17.7-16-27.9-21.8c0.9,5.5,5.1,12.2-1,18.4c-5.3-10.7-11.7-24.4-11-35.6c0,0-1.8,4.6-8.1,25.6
			c-1.8-8-9.3-22.5-14.2-29.9c-4.8-7.4-9.9-8.3-16.6-12.4c10.1,11,12.3,26.4,9,39.1c-8.2-6.1-6.5-14.9-20.2-20.3
			c2.1,7.1,2.1,14.4-0.1,21.4c-0.6,1.9-2.5,4.2-5.2,3.6c-1.2-0.2-4.8-17.5-27-28.4c0.2,9.5-7.3,18.9-16.1,26.5
			c3.3-9.8,6.1-15.8-9.2-26.9c2.8,10.7-7,10.3-9.2,16.7c-0.6,1.6-1.4,3.3-3.5,4.1c-4.4,1.6-8.8-2.2-9.9-5.3
			c-0.8-2.4-1.8-5.4-4.4-6.9c0.5-2-1.9-7.3,0.2-10.1c-19.5,7.6-21.2,12-22.5,22c-5-8.9-0.7-18.8,3.7-27.9
			c-26,6.3-37.2,22.1-38.4,22.1c-2.9,0.1-3.7-2.5-3.4-4.4c1.1-7.1,4.4-14.1,9.5-20.5c-15.5,2.6-16.1,12.6-26.6,16.9
			c2.5-12.8,12.2-24.9,26.8-33.5c-12.3,0.7-23.3,5.7-31.2,11.9c-7.9,6.2-13.2,13.6-18.4,20.8c3.3-21.4-4-27.8-4-27.8
			c-4.3,10.9-11.6,21.3-21.4,30.5c3.3-5.1,6.6-10.2,9.9-15.3c-12.4,3.6-23.7,8.8-33.3,15.1c6.9-11.4,17.9-21.8,31.9-30
			c-23.6,2.6-45.6,11.2-60.5,23.4c5.1-8,12-15.5,20.6-22.2c-17.5,3.3-32.9,10.9-42.6,21c-0.8-6.7,1.1-13.5,5.7-19.5
			c-12.5,3.4-22.2,10.8-25.4,19.4c-2.7-11-5.5-22-8.2-32.9c2.2,10.7-1.2,21.9-9.7,31.2c-2.1-4.9-1.2-10.2,2.2-14.7
			c-3.9,3.4-12.2,2.3-11.7,10.4c-1.7-4.9-0.8-10.1,2.4-14.6c-8.7,2.7-13.3,8.4-15.6,15.1c0.9-12.8-3.6-25.7-12.8-37.1
			c2.1,12.1-2,24.7-11.6,35.2c-0.4-4.1-0.8-8.2-1.2-12.4c-7.8,2.9-14.2,7.4-18.1,12.7c1.2-6.8,2.4-13.7,3.6-20.5
			c-10.2,4.3-18.2,10.8-22.5,18.2c-1.3-10.2-6.2-20.1-14.3-28.9c0.4,10.3-6.9,20.5-19.2,27c0-4.3,0.1-8.5,0.1-12.8
			c-4.8,2-8.8,4.8-11.7,8c0.1-7.2,3.8-14.3,10.4-20c-12.5,5-21.4,13.7-23.6,23.2c-2.3-8-6.8-15.7-13-22.8c1.3,4.5,1.7,11.4,1.6,19
			c-2-10.9-2.9-20.7-0.6-25.9c-7.2,6.7-12.6,14.1-16,22c-0.9-9.5-8.6-18.7-20.4-24.4c5.8,6.1,8.5,13.3,7.7,20.5
			c-2.4-3.3-6.1-6.3-10.6-8.6c-0.5,4.3-1,8.5-1.6,12.7c-11.4-7.1-19.6-10.9-17.8-21.1c-9.2,8.3-11.3,17.2-13.9,27.3
			c-3.3-7.6-8.8-15.9-18.4-20.8c0.3,6.9-0.6,14.9-0.3,21.8c-3.3-5.5-9-11.1-16.4-14.5c-0.9,4.1-4,7.9-4.9,12
			c-8.2-11-14.1-17.9-10.4-29.9c-10.6,10.8-11.4,22.8-12.2,35.6c-1.4-6.8-7.8-18-12.3-20.9c2.6,4.7-0.9,15.1-3.2,19.9
			c-2.8-4.8-3.7-14.8-7.2-18.5c2.9,4.7-0.6,14.3-3.2,19c-7.8-10.5-5.5-22.8-5.5-22.8s-9.6,7.5-11.3,21.4c-2-8.7-9.6-10.5-14.5-14.6
			c3.7,6.3-2.3,6.1-4,12.7c-8.4-10.5-10.1-11.6-27-15.9c7.5,7.2,2.9,7.7,7,15.9c-11.5-8.2-22.2-13.9-40.1-17.8
			c12.8,9,5.8,11.3,11.2,23c-8.7-6.8-15-8.3-26.8-12.6c2.6,5.2,1,7.2,1,12.1c-8.6-9.8-15-9.8-17.8-20.9c0,0-6.9,4.7-8,16.4
			c-4.2-7.6-13.4-24-31.4-28.9c13.4,9.4,11.3,13.3,10.4,26.9c-11.2-8.5-20-14.3-20-14.3s2.1,8,2.3,15.1c0.1,1.9-3.4,5.5-6.3,5.3
			c-1.2-0.1-10.2-14.9-31.8-23.4c3.2,9.3,0.7,27.6-6.5,33.4c-3.2-9,0.5-23.2-18-31.9c6.2,10.1,0.2,13.5,0.1,20.1
			c-0.1,1.6-1.6,3.9-3.5,4.9c-0.6,0.3-4.6,2.8-5.2,2.9c-0.3-3.5,0.4-7.6-0.5-11.1c-4.3,0.3-5.2,0.2-6.6,3c0.1,8.7-1-5.6-6-5.6
			c-0.3,4.4-5.3,18.5-4.4,14.3c0.4-1.6-5.3,2.4-8.8-3.9c-3.5-6.2-5.3-7.7-1-18.2c-13.2,10.4-17.4,23.6-15.3,30.3
			c-7.8-8-12.9-17.7-11.4-27.1c-23.5,9.6-22.6,22.2-23.8,22.4c-2.8,0.4-9.6-4.7-9.9-6.6c-1.1-7.1-0.2-9.5,2.9-16.4
			c-14.3,4.6-7.8,6.8-16.7,12.5c-1.6-12.8-1.9-21.5,9.8-31.9c-11.8,2.4-15,4.2-20.8,11.3c-5.9,7.1-8.7,15-11.5,22.8
			c-3.5-21.4-12.6-26.7-12.6-26.7c-0.8,11.2-4.7,22.3-11.4,32.7c1.7-5.4,3.3-10.8,4.9-16.3c-11,5.2-20.5,11.7-27.9,19.2
			c3.2-12.1,10.7-23.7,21.9-33.6c-22.3,5.7-41.2,17-52,30.9c2.5-8.5,7-16.8,13.2-24.5c-16.1,5.6-28.9,15-35.2,26.2
			c-2.9-6.5-3.1-13.4-0.5-19.9c-11.2,5-18.4,13.5-18.8,22.3c-6.1-10.4-12.3-20.9-18.4-31.3c5.6,10.2,5.8,21.7,0.4,31.9
			c-3.5-4.5-4.4-9.8-2.4-14.7c-2.8,3.9-11.3,3.9-8.3,11.7c-3.2-4.5-3.9-9.8-2.2-14.6c-7.7,3.9-10.3,10-10.5,16.9
			C644,183,635.5,171,623,161.1c5.9,11.6,5.7,24.4-0.4,36c-1.7-4-3.4-8-5-12c-6.7,3.9-11.6,9.1-13.8,14.8
			c-0.9-6.9-1.9-13.7-2.8-20.5c-8.6,5.6-14.4,13-16.4,20.8c-4.4-9.8-12.4-18.9-23-26.4c3.6,10-0.4,21-10.4,28.9
			c-1.3-4.2-2.6-8.3-3.9-12.5c-4.1,2.6-7.2,5.9-9,9.4c-2.1-7-0.7-14.5,3.9-21c-10.7,6.6-16.7,16.3-15.8,25.8
			c-4.8-7.5-11.6-14.5-19.9-20.6c4.5,7,8.6,20.7,11.5,34c-1.9,1.1-4.2,1.6-6.3,0.7c-2.1-0.9-2.7-2.7-3.1-4.3
			c-1.5-6.5-7.5-9.1-3.5-19.7c-15.6,9.8-19.7,18.4-18.2,27.7c-0.3,0-0.6,0.1-0.9,0.1c-6.6-7.7-5.8-17.4-4.7-26.3
			c-23.3,9.9-28.7,26.9-30,27.1c-2.8,0.5-4.5-2-4.8-3.8c-1.4-7.1-0.6-14.4,2.3-21.4c-14.3,4.8-11.4,14.6-20.2,20.3
			c-1.9-12.8,3.4-26,14.7-36.5c-11.7,2.5-20.8,8.9-26.4,16.1c-5.6,7.1-8.3,15.1-10.9,23c-4.1-21.3-13.3-26.5-13.3-26.5
			c-0.5,11.2-4.1,22.4-10.5,32.8c1.5-5.4,3-10.8,4.5-16.3c-10.9,5.3-20.2,12-27.4,19.5c2.8-12.1,10-23.8,20.9-33.9
			c-22.2,6-40.7,17.5-51.1,31.5c2.3-8.5,6.5-16.9,12.5-24.6c-15.9,5.7-28.4,15.4-34.4,26.6c-3.1-6.4-3.5-13.3-1.1-19.9
			c-11,5.1-18,13.8-18.2,22.5c-6.3-10.2-12.6-20.4-19-30.6c5.7,10,6,21.3,1,31.5c-3.6-4.5-4.7-9.8-2.9-14.7c-2.6,4-11.2,4-7.9,11.8
			c-3.3-4.5-4.2-9.7-2.6-14.6c-7.5,3.9-10.1,10.1-10.1,17c-3.5-12.6-12.3-24.6-25.1-34.3c6.2,11.5,6.4,24.3,0.7,36
			c-1.8-4-3.6-7.9-5.4-11.9c-6.6,4-11.3,9.3-13.3,15c-1.1-6.8-2.2-13.7-3.4-20.5c-8.5,5.7-14.1,13.1-15.8,21
			c-4.7-9.7-12.9-18.8-23.7-26.1c3.9,9.9,0.2,21-9.6,29.1c-1.4-4.2-2.8-8.3-4.3-12.5c-4,2.7-7,5.9-8.7,9.5c-2.3-7-1.1-14.4,3.3-21
			c-10.5,6.7-16.2,16.5-15.1,26c-5-7.5-11.9-14.4-20.5-20.3c3.8,5.6,6.8,11.4,9.2,17.3c-1.9,1.7-2.5,4.3-3.2,6.4
			c-0.8,3.2-4.9,7.1-9.5,5.6c-2.2-0.7-3.1-2.4-3.8-4c-2.7-6.4-11.3-2.6-9.2-13.4C78.7,246,76.7,253.4,80.7,263
			c-9.4-7.3-14.1-15.3-14.6-24.8c-21.3,11.6-22.9,23.2-21.2,25.9c1.1,1.7-8.1-3.9-8.8-5.7c-2.6-7-2.9-9.8-1.4-16.9
			c-13.3,5.8-5,10.6-17.4,18.6c-4.2-12.5-4.6-22.2,4.7-33.5c-11.2,3.4-12.2,9.3-16.5,16.8c-4.3,7.6-7.2,13.5-8.3,21.5
			c-5.5-14.4-10.8-18.7-13.5-20v74.1H2174.6z"/>
	</g>
</g>
</svg>
