<?xml version="1.0" encoding="utf-8"?>
<!-- Generator: Adobe Illustrator 23.0.3, SVG Export Plug-In . SVG Version: 6.00 Build 0)  -->
<svg version="1.1" id="Layer_1" xmlns="http://www.w3.org/2000/svg" xmlns:xlink="http://www.w3.org/1999/xlink" x="0px" y="0px"
	 viewBox="0 0 202.9 511.8" style="enable-background:new 0 0 202.9 511.8;" xml:space="preserve">
<style type="text/css">
	.st0{opacity:0.6;fill:url(#SVGID_1_);enable-background:new    ;}
	.st1{fill:none;stroke:#B2B2B2;stroke-width:0.5;stroke-miterlimit:10;}
	.st2{fill:url(#SVGID_2_);}
	.st3{fill:url(#SVGID_3_);}
	.st4{fill:url(#SVGID_4_);}
	.st5{opacity:0.95;fill:url(#SVGID_5_);}
	.st6{opacity:0.95;clip-path:url(#SVGID_6_);fill:url(#SVGID_7_);}
	.st7{clip-path:url(#SVGID_6_);}
	.st8{opacity:0.95;fill:url(#SVGID_8_);}
	.st9{fill:#1F1F30;}
	.st10{opacity:0.68;fill:url(#SVGID_9_);enable-background:new    ;}
	.st11{fill:url(#SVGID_10_);}
	.st12{fill:url(#SVGID_11_);}
	.st13{fill:url(#SVGID_12_);}
	.st14{opacity:0.95;fill:url(#SVGID_13_);}
	.st15{opacity:0.7;clip-path:url(#SVGID_14_);fill:url(#SVGID_15_);}
	.st16{clip-path:url(#SVGID_14_);}
	.st17{clip-path:url(#SVGID_14_);fill:url(#SVGID_16_);}
	.st18{opacity:0.48;fill:url(#SVGID_17_);}
	.st19{fill:url(#SVGID_18_);}
</style>
<radialGradient id="SVGID_1_" cx="132.9957" cy="657.4138" r="66.289" gradientTransform="matrix(1 0 0 -1 0 736.4556)" gradientUnits="userSpaceOnUse">
	<stop  offset="0.2179" style="stop-color:#312350;stop-opacity:0.8"/>
	<stop  offset="0.4128" style="stop-color:#332552;stop-opacity:0.5674"/>
	<stop  offset="0.5088" style="stop-color:#3A2D58;stop-opacity:0.4528"/>
	<stop  offset="0.5832" style="stop-color:#473A62;stop-opacity:0.364"/>
	<stop  offset="0.6465" style="stop-color:#584D71;stop-opacity:0.2885"/>
	<stop  offset="0.7028" style="stop-color:#6F6584;stop-opacity:0.2213"/>
	<stop  offset="0.754" style="stop-color:#8B839C;stop-opacity:0.1602"/>
	<stop  offset="0.8015" style="stop-color:#ACA6B8;stop-opacity:0.1036"/>
	<stop  offset="0.8449" style="stop-color:#D2CFD8;stop-opacity:5.175066e-02"/>
	<stop  offset="0.8855" style="stop-color:#FCFCFC;stop-opacity:3.284574e-03"/>
	<stop  offset="0.8883" style="stop-color:#FFFFFF;stop-opacity:0"/>
</radialGradient>
<path class="st0" d="M179.2,94.9C207.8,40.4,167.5,6.3,137.6,4s-75.3,25.3-56,83.5c12,34.1,32.7,52.9,41.8,56.7
	c-0.6,1.2-1.7,3.2-3.6,4.8c-2.2,1.9,1.2,5,5.4,5.3c4.2,0.3,8.1-2.2,6.3-4.4c-1.6-1.9-2.3-4.1-2.8-5.3
	C138.3,142.1,161.8,126.7,179.2,94.9z"/>
<g>
	<path class="st1" d="M133.6,140.1c0,0,10.9,31.5-10.5,45.2c-21.4,13.6-57.5,29.6-43.1,62.7C94.4,281,150.9,329,93,375"/>
	<g>
		
			<radialGradient id="SVGID_2_" cx="-245.4617" cy="-352.1458" r="10.6741" gradientTransform="matrix(0.8027 0.1704 -0.165 0.7769 272.8835 454.8169)" gradientUnits="userSpaceOnUse">
			<stop  offset="0" style="stop-color:#8A4B12"/>
			<stop  offset="0.2802" style="stop-color:#874A12"/>
			<stop  offset="0.446" style="stop-color:#7F4511"/>
			<stop  offset="0.5819" style="stop-color:#713D0F"/>
			<stop  offset="0.7016" style="stop-color:#5D320C"/>
			<stop  offset="0.8108" style="stop-color:#432409"/>
			<stop  offset="0.9107" style="stop-color:#231305"/>
			<stop  offset="1" style="stop-color:#000000"/>
		</radialGradient>
		<path class="st2" d="M135.5,143.6c-0.9-1.7-1.6-4.3-1.9-5.5c-0.3,0-0.7,0-1-0.1c-0.4-0.1-0.7-0.2-1-0.3c-3.5,5.6-6.4,7.7-6.4,7.7
			c5.4,2.9,12,0.8,12,0.8S136.5,145.5,135.5,143.6z"/>
		
			<radialGradient id="SVGID_3_" cx="-244.8654" cy="-344.2624" r="12.3953" gradientTransform="matrix(0.8177 -2.516198e-02 1.327204e-02 0.2384 337.9547 221.4193)" gradientUnits="userSpaceOnUse">
			<stop  offset="0.1523" style="stop-color:#232327"/>
			<stop  offset="0.6396" style="stop-color:#AB5915"/>
			<stop  offset="0.6803" style="stop-color:#7C400F"/>
			<stop  offset="0.7311" style="stop-color:#472509"/>
			<stop  offset="0.7753" style="stop-color:#201104"/>
			<stop  offset="0.8106" style="stop-color:#090501"/>
			<stop  offset="0.8325" style="stop-color:#000000"/>
			<stop  offset="1" style="stop-color:#7C4610"/>
		</radialGradient>
		<path class="st3" d="M137.3,146.1c0,0-6.6,2.1-12-0.8c0,0-0.5-0.2-0.8,0.4c-0.3,0.7,2.1,1.9,6,2.3c5.1,0.4,7.5-0.3,7.9-1
			C138.5,146.8,138.3,145.7,137.3,146.1z"/>
		
			<radialGradient id="SVGID_4_" cx="-246.6593" cy="-357.406" r="4.1873" gradientTransform="matrix(0.8027 0.1704 -0.165 0.7769 272.8672 454.8936)" gradientUnits="userSpaceOnUse">
			<stop  offset="0" style="stop-color:#8A4B12"/>
			<stop  offset="0.2802" style="stop-color:#874A12"/>
			<stop  offset="0.446" style="stop-color:#7F4511"/>
			<stop  offset="0.5819" style="stop-color:#713D0F"/>
			<stop  offset="0.7016" style="stop-color:#5D320C"/>
			<stop  offset="0.8108" style="stop-color:#432409"/>
			<stop  offset="0.9107" style="stop-color:#231305"/>
			<stop  offset="1" style="stop-color:#000000"/>
		</radialGradient>
		<path class="st4" d="M135.6,136.9c-0.2,0.9-1.5,1.4-3,1.1c-1.4-0.3-2.5-1.3-2.3-2.3c0.2-0.9,1.5-1.4,3-1.1
			C134.8,134.9,135.8,135.9,135.6,136.9z"/>
		
			<radialGradient id="SVGID_5_" cx="-116.9296" cy="-309.8283" r="123.3945" gradientTransform="matrix(0.9782 0.2077 -0.2077 0.9782 160.8083 413.5701)" gradientUnits="userSpaceOnUse">
			<stop  offset="0" style="stop-color:#DE5915"/>
			<stop  offset="1" style="stop-color:#E59122"/>
		</radialGradient>
		<path class="st5" d="M202.3,64.1c-5,36-41.1,77.1-70.3,70.9c-17.9-3.8-31.2-23.7-36.3-47.3c-3.3-14.9-3.3-31.3,0.9-46.1
			c8.1-28.7,34.6-46.6,63.8-40.4C189.6,7.4,206.5,34.5,202.3,64.1z"/>
		<g>
			<defs>
				<path id="SVGID_34_" d="M202.3,64.1c-5,36-41.1,77.1-70.3,70.9c-17.9-3.8-31.2-23.7-36.3-47.3c-3.3-14.9-3.3-31.3,0.9-46.1
					c8.1-28.7,34.6-46.6,63.8-40.4C189.6,7.4,206.5,34.5,202.3,64.1z"/>
			</defs>
			<clipPath id="SVGID_6_">
				<use xlink:href="#SVGID_34_"  style="overflow:visible;"/>
			</clipPath>
			
				<radialGradient id="SVGID_7_" cx="-1145.6976" cy="638.5007" r="75.1097" gradientTransform="matrix(0.4925 -0.1007 0.2636 1.29 501.6465 -855.811)" gradientUnits="userSpaceOnUse">
				<stop  offset="0" style="stop-color:#DE5915"/>
				<stop  offset="1" style="stop-color:#E59122"/>
			</radialGradient>
			<path class="st6" d="M142.7,75.7c10.9,53.5,3.2,100.3-17.2,104.4c-20.4,4.2-45.9-35.8-56.8-89.3C57.8,37.3,65.5-9.5,85.9-13.7
				C106.3-17.8,131.8,22.2,142.7,75.7z"/>
			<g class="st7">
				<g>
					
						<image style="overflow:visible;" width="97.6" height="155" xlink:href="A2DE5BD0.png"  transform="matrix(1 0 0 1 83.4168 -8.3684)"/>
				</g>
			</g>
			<g class="st7">
				<g>
					
						<image style="overflow:visible;" width="55.3" height="53.4" xlink:href="A2DE5BCF.png"  transform="matrix(1 0 0 1 141.2867 84.1669)"/>
				</g>
			</g>
		</g>
		
			<radialGradient id="SVGID_8_" cx="-152.0298" cy="-260.0802" r="72.6186" gradientTransform="matrix(0.9874 0.1586 -0.1616 1.0063 274.9693 301.4744)" gradientUnits="userSpaceOnUse">
			<stop  offset="0" style="stop-color:#DE5915"/>
			<stop  offset="1" style="stop-color:#E59122"/>
		</radialGradient>
		<path class="st8" d="M199.7,61.8c3.9-27.9-14.4-53.9-42.2-58.4C129.7-1,102.9,17.8,99.1,45.7C93.7,84.2,194.2,100.8,199.7,61.8z"
			/>
	</g>
	<path class="st9" d="M135,52.4c0,0-15.2-4.6-26.7-5.8c10.3-22.5,21.8-26.9,21.8-26.9S137.6,32.1,135,52.4z"/>
	<path class="st9" d="M161.1,59.8c0,0,15.8,1.8,26.9,5.1c-0.7-24.7-9.6-33.3-9.6-33.3S166.7,40,161.1,59.8z"/>
	<path class="st9" d="M140.9,65.7c0,0,2.3-7.2,7.1-12.3c2.5,4.7,2.7,13.8,2.7,13.8S145.9,68,140.9,65.7z"/>
	<path class="st9" d="M99.7,60.4c0,0,11.2,7.6,20.7,10l-2.7,9.4l11.2,4.4l2.4-7.1c0,0,13.1,7.2,23.4,5.8l-0.2,7.2l11.5-0.2l-1-7.9
		c0,0,10.4-0.2,20.5-2.8c0,0-6.2,10-16.6,15.1c-10.5,5.1-22.3,4.8-22.3,4.8l1.8-10.3l-12.4-3l-3.4,10.5
		C132.7,96.4,107.4,83.4,99.7,60.4z"/>
</g>
<radialGradient id="SVGID_9_" cx="82.9958" cy="522.4138" r="66.289" gradientTransform="matrix(1 0 0 -1 0 736.4556)" gradientUnits="userSpaceOnUse">
	<stop  offset="0.2179" style="stop-color:#312350;stop-opacity:0.8"/>
	<stop  offset="0.4128" style="stop-color:#332552;stop-opacity:0.5674"/>
	<stop  offset="0.5088" style="stop-color:#3A2D58;stop-opacity:0.4528"/>
	<stop  offset="0.5832" style="stop-color:#473A62;stop-opacity:0.364"/>
	<stop  offset="0.6465" style="stop-color:#584D71;stop-opacity:0.2885"/>
	<stop  offset="0.7028" style="stop-color:#6F6584;stop-opacity:0.2213"/>
	<stop  offset="0.754" style="stop-color:#8B839C;stop-opacity:0.1602"/>
	<stop  offset="0.8015" style="stop-color:#ACA6B8;stop-opacity:0.1036"/>
	<stop  offset="0.8449" style="stop-color:#D2CFD8;stop-opacity:5.175066e-02"/>
	<stop  offset="0.8855" style="stop-color:#FCFCFC;stop-opacity:3.284574e-03"/>
	<stop  offset="0.8883" style="stop-color:#FFFFFF;stop-opacity:0"/>
</radialGradient>
<path class="st10" d="M129.2,229.9c28.5-54.4-11.7-88.6-41.6-90.9s-75.3,25.3-56,83.5c12,34.1,32.7,52.9,41.8,56.7
	c-0.6,1.2-1.7,3.2-3.6,4.8c-2.2,1.9,1.2,5,5.4,5.3c4.2,0.3,8.1-2.2,6.3-4.4c-1.6-1.9-2.3-4.1-2.8-5.3
	C88.3,277.1,111.8,261.7,129.2,229.9z"/>
<g>
	<g>
		<path class="st1" d="M93,267.6c0,0,1.1,20.3,20.8,34c19.7,13.7,40.7,39.4,25.8,70.2c-14.8,30.8-70.1,74.1-17,119.9"/>
		<g>
			
				<radialGradient id="SVGID_10_" cx="-1416.5017" cy="419.9006" r="10.1143" gradientTransform="matrix(-0.8088 0.1388 0.1343 0.7828 -1109.4001 134.8518)" gradientUnits="userSpaceOnUse">
				<stop  offset="0" style="stop-color:#302C31"/>
				<stop  offset="0.3891" style="stop-color:#2E2A2F"/>
				<stop  offset="0.6191" style="stop-color:#252226"/>
				<stop  offset="0.8077" style="stop-color:#181618"/>
				<stop  offset="0.973" style="stop-color:#040404"/>
				<stop  offset="1" style="stop-color:#000000"/>
			</radialGradient>
			<path class="st11" d="M91,270.8c0.9-1.6,1.6-4,2-5.1c0.3,0,0.6,0,1,0c0.3-0.1,0.7-0.2,0.9-0.3c3.1,5.4,5.8,7.5,5.8,7.5
				c-5.2,2.6-11.4,0.3-11.4,0.3S90,272.6,91,270.8z"/>
			
				<radialGradient id="SVGID_11_" cx="-1415.9369" cy="427.3701" r="11.7456" gradientTransform="matrix(-0.8161 -5.720979e-02 -2.263564e-02 0.2377 -1052.6874 90.1789)" gradientUnits="userSpaceOnUse">
				<stop  offset="0.1523" style="stop-color:#232327"/>
				<stop  offset="0.6396" style="stop-color:#27212E"/>
				<stop  offset="0.6841" style="stop-color:#1B1720"/>
				<stop  offset="0.7755" style="stop-color:#070609"/>
				<stop  offset="0.8325" style="stop-color:#000000"/>
				<stop  offset="1" style="stop-color:#4A4654"/>
			</radialGradient>
			<path class="st12" d="M89.3,273.1c0,0,6.2,2.3,11.4-0.3c0,0,0.5-0.2,0.8,0.4c0.3,0.6-2,1.8-5.7,1.9c-4.8,0.2-7.1-0.6-7.5-1.2
				C88.1,273.8,88.3,272.7,89.3,273.1z"/>
			
				<radialGradient id="SVGID_12_" cx="-1417.6359" cy="414.9163" r="3.9677" gradientTransform="matrix(-0.8088 0.1388 0.1343 0.7828 -1109.3876 134.925)" gradientUnits="userSpaceOnUse">
				<stop  offset="0" style="stop-color:#302C31"/>
				<stop  offset="0.3891" style="stop-color:#2E2A2F"/>
				<stop  offset="0.6191" style="stop-color:#252226"/>
				<stop  offset="0.8077" style="stop-color:#181618"/>
				<stop  offset="0.973" style="stop-color:#040404"/>
				<stop  offset="1" style="stop-color:#000000"/>
			</radialGradient>
			<path class="st13" d="M91.2,264.5c0.2,0.9,1.4,1.4,2.8,1.2c1.4-0.2,2.4-1.2,2.2-2c-0.2-0.9-1.4-1.4-2.8-1.2
				C92,262.7,91,263.6,91.2,264.5z"/>
			
				<radialGradient id="SVGID_13_" cx="-1068.6371" cy="296.8243" r="96.4412" gradientTransform="matrix(-0.9856 0.1692 0.1692 0.9856 -992.7234 109.2947)" gradientUnits="userSpaceOnUse">
				<stop  offset="0.2386" style="stop-color:#16161A"/>
				<stop  offset="0.6035" style="stop-color:#28292A"/>
				<stop  offset="0.731" style="stop-color:#2F3131"/>
				<stop  offset="1" style="stop-color:#46484D"/>
			</radialGradient>
			<path class="st14" d="M30.7,193.1c3.4,34.3,36.1,74.5,63.9,69.7c17.1-2.9,30.4-21.3,36.1-43.4c3.6-14,4.3-29.5,0.9-43.7
				c-6.6-27.5-31.1-45.4-59-40.6C44.9,139.9,27.9,164.9,30.7,193.1z"/>
			<g>
				<defs>
					<path id="SVGID_24_" d="M30.7,193.1c3.4,34.3,36.1,74.5,63.9,69.7c17.1-2.9,30.4-21.3,36.1-43.4c3.6-14,4.3-29.5,0.9-43.7
						c-6.6-27.5-31.1-45.4-59-40.6C44.9,139.9,27.9,164.9,30.7,193.1z"/>
				</defs>
				<clipPath id="SVGID_14_">
					<use xlink:href="#SVGID_24_"  style="overflow:visible;"/>
				</clipPath>
				
					<radialGradient id="SVGID_15_" cx="-3366.3977" cy="769.3635" r="47.415" gradientTransform="matrix(-0.4882 -0.1199 -0.3141 1.2786 -1284.7096 -1172.9836)" gradientUnits="userSpaceOnUse">
					<stop  offset="0" style="stop-color:#D5D5D5"/>
					<stop  offset="0.1159" style="stop-color:#D0D0D0"/>
					<stop  offset="0.2529" style="stop-color:#C2C2C2"/>
					<stop  offset="0.4007" style="stop-color:#AAAAAA"/>
					<stop  offset="0.5561" style="stop-color:#898989"/>
					<stop  offset="0.7174" style="stop-color:#5E5E5E"/>
					<stop  offset="0.8812" style="stop-color:#2A2A2A"/>
					<stop  offset="1" style="stop-color:#000000"/>
				</radialGradient>
				<path class="st15" d="M94,208.7c-8.2,33.5-4.5,63.2,8.3,66.3c12.8,3.1,29.8-21.5,38-54.9c8.2-33.5,4.5-63.2-8.3-66.3
					C119.2,150.6,102.2,175.2,94,208.7z"/>
				<g class="st16">
					<g>
						
							<image style="overflow:visible;" width="90.6" height="147.6" xlink:href="A2DE5BF0.png"  transform="matrix(1 0 0 1 53.2874 126.1713)"/>
					</g>
				</g>
				
					<radialGradient id="SVGID_16_" cx="-3120.0952" cy="-1250.7275" r="69.9851" gradientTransform="matrix(-0.4407 -0.1642 -0.2103 0.5642 -1580.9523 367.6938)" gradientUnits="userSpaceOnUse">
					<stop  offset="0" style="stop-color:#5C5C65"/>
					<stop  offset="0.2845" style="stop-color:#39393E"/>
					<stop  offset="0.5861" style="stop-color:#1A1A1C"/>
					<stop  offset="0.8355" style="stop-color:#070708"/>
					<stop  offset="1" style="stop-color:#000000"/>
				</radialGradient>
				<path class="st17" d="M26.3,162.9c-8.1,21.8-0.9,44.6,16.1,51c17,6.3,37.4-6.2,45.6-28c8.1-21.8,0.9-44.6-16.1-51
					C54.8,128.5,34.4,141.1,26.3,162.9z"/>
				<g class="st16">
					<g>
						
							<image style="overflow:visible;" width="50.9" height="52.5" xlink:href="A2DE5BF3.png"  transform="matrix(1 0 0 1 34.9594 212.3258)"/>
					</g>
				</g>
			</g>
			
				<radialGradient id="SVGID_17_" cx="-1142.1885" cy="299.902" r="68.8096" gradientTransform="matrix(-0.9929 0.1197 0.122 1.0119 -1104.5791 -18.227)" gradientUnits="userSpaceOnUse">
				<stop  offset="0" style="stop-color:#444248"/>
				<stop  offset="0.3864" style="stop-color:#3C3A40"/>
				<stop  offset="0.9934" style="stop-color:#252529"/>
				<stop  offset="1" style="stop-color:#252529"/>
			</radialGradient>
			<path class="st18" d="M33.3,191c-2.6-26.5,15.7-50.5,42.1-53.7c26.5-3.2,51.1,15.6,53.7,42.1C132.9,216.1,37,228.2,33.3,191z"/>
		</g>
		
			<radialGradient id="SVGID_18_" cx="-951.9307" cy="511.396" r="58.6399" gradientTransform="matrix(-0.9036 0.4284 0.4284 0.9036 -993.7959 124.5125)" gradientUnits="userSpaceOnUse">
			<stop  offset="0" style="stop-color:#FFFFFF"/>
			<stop  offset="1" style="stop-color:#423B37"/>
		</radialGradient>
		<path class="st19" d="M42.8,188.2c-7.4-12.3,1.7-27.7,10-33.1c8.4-5.4,18.9-1.1,17.8,15.5C69.1,193.6,50.2,200.5,42.8,188.2z
			 M114.5,163.7c-8.9-11-20.8-16.4-23-8.8c-2.1,7.6,12.5,27,19.7,28.1C121.8,184.6,123.4,174.6,114.5,163.7z M100.9,198.6
			c-3.7-11.5-16.1-12.3-21.6-0.9c-4.3,8.9-1.5,25.4,4.3,34.2c5.8,8.9,12.5,4.3,15.8-3.2C103.6,219.3,104.1,208.4,100.9,198.6z"/>
	</g>
</g>
</svg>
