<?xml version="1.0" encoding="utf-8"?>
<!-- Generator: Adobe Illustrator 23.0.3, SVG Export Plug-In . SVG Version: 6.00 Build 0)  -->
<svg version="1.1" id="Layer_1" xmlns="http://www.w3.org/2000/svg" xmlns:xlink="http://www.w3.org/1999/xlink" x="0px" y="0px"
	 viewBox="0 0 544.4 489.6" style="enable-background:new 0 0 544.4 489.6;" xml:space="preserve">
<style type="text/css">
	.st0{opacity:0.89;fill:#220C23;}
	.st1{fill:#5B1B07;}
	.st2{fill:#3F1206;}
	.st3{fill:#FF9810;}
	.st4{fill:#DD691B;}
	.st5{opacity:0.48;}
	.st6{fill:#AA5A24;}
	.st7{fill:#FFE461;}
	.st8{fill:#FFE876;}
	.st9{fill:#FCE03D;}
	.st10{fill:#74852F;}
	.st11{fill:#9BAD2F;}
	.st12{opacity:0.87;}
	.st13{fill:#E57022;}
	.st14{opacity:0.48;fill:#AA5A24;}
	.st15{opacity:0.25;fill:#AA5A24;}
	.st16{fill:#CECABA;}
	.st17{fill:#BCB9AC;}
	.st18{fill:#EFEBDA;}
	.st19{fill:#EAE5D3;}
	.st20{fill:url(#SVGID_1_);}
	.st21{fill:#7C7C7C;}
	.st22{fill:url(#SVGID_2_);}
	.st23{fill:#A5A192;}
	.st24{fill:url(#SVGID_3_);}
	.st25{fill:#F7F6F0;}
	.st26{fill:#E2DECF;}
	.st27{fill:#C1BDAC;}
	.st28{fill:#FFB012;}
	.st29{opacity:0.7;fill:#FFD766;}
	.st30{opacity:0.45;fill:#FFD766;}
	.st31{fill:#FFD766;}
	.st32{opacity:0.3;fill:url(#SVGID_4_);}
	.st33{opacity:0.3;fill:url(#SVGID_5_);}
</style>
<path class="st0" d="M355.4,419c-0.3-11.1-38.9-20-86.5-20c-47.8,0-86.5,9-86.5,20.1c0,1.1,0.4,2.2,1.1,3.3
	c-8,1.8-13.5,4.8-14.4,8.2c-6.1-8.2-37-14.1-74.3-13.7c-41.5,0.5-75.1,8.7-75,18.3c0,1,0.4,1.9,1,2.8c-7.6,1.8-12.6,4.8-12.6,8.2
	c0,4.1,7.7,7.5,18.4,8.8c-0.7,0.9-1.2,1.8-1.2,2.7c0.1,6.2,17,11,37.9,10.7c6.8-0.1,13.1-0.7,18.6-1.7c7,4.1,19.4,6.7,33.6,6.5
	c18.8-0.2,34.4-5.2,38.2-11.7c2.8,0.2,5.8,0.3,8.8,0.2c16-0.2,29.7-3.6,36.3-8.5c8,2.8,19.8,4.5,33.1,4.5c7.8,0,15.1-0.6,21.5-1.7
	c8,4.8,22.3,7.9,38.6,7.9c21.6,0,39.6-5.5,44.2-12.9c3.3,0.3,6.6,0.4,10.1,0.4c25.8,0,46.6-7.4,46.6-16.5
	C393.1,427.1,376.9,420.4,355.4,419z"/>
<g>
	<path class="st1" d="M202.3,313.3c-4.6-8.9,2.5-16.8,10-16.3c2.7-9.3,20.4-15.4,31.7-7.6L279,280l33.7,7.1c15-4.4,32.7-1,47.5,10.2
		c5.9-2.8,15.5,3.4,20.9,12.6c-7.3,3.7,2.8,57.6,4.8,64.4c-13.3-0.9-49.8,49.3-60.3,60.6c-17.7-3.9-41.9,2.7-60-5
		c-11.1-6-46.5-9.3-59.7-8.7C201.8,414.4,182.4,358.6,202.3,313.3z"/>
</g>
<g>
	<g>
		<path class="st2" d="M242,294.3c-4.9,5.1-7.6,11.9-9.7,18.5c-2.9,9.3-4.6,18.9-5.8,28.5c-2.4,20.8-2.4,42.6,2,63.1
			c1.8,8.6,4.8,17.9,10.6,24.7c0.6,0.7,1.9-0.2,1.4-1c-4.2-6.5-6.6-13.9-8.2-21.4c-2-9.5-3.2-19.2-3.7-29c-1-20,0.2-40.7,5.1-60.2
			c1.9-7.6,4.4-16,9.3-22.2C243.6,294.6,242.7,293.6,242,294.3L242,294.3z"/>
	</g>
</g>
<g>
	<g>
		<path class="st2" d="M213.5,298.7c-4.1,4-6.5,10.3-8.8,15.4c-2.8,6.4-5.1,12.9-7.1,19.6c-2.1,6.9-3.8,13.8-5,20.9
			c-1,6.1-1.9,12.7-1.2,18.9c0.1,1,1.5,1,1.6,0c1.2-13.3,3.8-26.2,7.6-39c1.9-6.5,4.2-13,6.7-19.3c2.2-5.4,5.2-10.5,7.2-15.9
			C214.8,298.7,213.9,298.3,213.5,298.7L213.5,298.7z"/>
	</g>
</g>
<g>
	<g>
		<path class="st2" d="M312.1,296.5c4.7,14.6,5.6,30.6,6.1,45.8c0.5,20-0.7,40.1-4.6,59.8c-2,10.2-5.1,19.9-8.8,29.6
			c-0.4,1.1,1.3,1.8,1.9,0.8c4.4-8,6.9-17.2,8.9-26c2.2-9.9,3.6-20.1,4.4-30.2c1.6-19.1,1.4-38.6-1.2-57.6
			c-1.1-7.6-2.4-15.4-5.3-22.5C313.1,295.3,311.8,295.6,312.1,296.5L312.1,296.5z"/>
	</g>
</g>
<g>
	<g>
		<path class="st2" d="M356.2,297.2c5.5,9.3,9.6,19.5,12,30.1c1.2,5.3,2,10.6,2.3,16c0.3,5.4,0,10.8,0,16.2c0,1.3,2,1.6,2.3,0.3
			c2.3-10.6,0.8-22.4-1.7-32.9c-2.6-10.9-7.1-21.3-13.4-30.6C357.1,295.4,355.7,296.2,356.2,297.2L356.2,297.2z"/>
	</g>
</g>
<g>
	<g>
		<path class="st3" d="M398.5,335.6c-3.4-13.4-8.6-26.7-18.9-34.7c2.9,3,5,6.8,6.3,10.1c-8,4.5-9.9,15.3-7.7,23.3
			c-3.5-0.3-7.5-0.6-11.9-0.8c-7.5-0.4-15.8-0.4-23.2,1.3c0,0,0,0,0,0c-2.2,0.5-4.4,1.2-6.4,2c-0.5,0.2-1,0.4-1.5,0.7
			c-1,0.5-1.9,1-2.9,1.6c-2,1.2-3.8,2.7-5.3,4.5c-19.4-4.5-50.1-7.5-68.5-1.1c-12.1-7.1-27-10.6-41.6-9.8
			c-4.4-7.9-11.2-13.8-20.9-16.9c-4.2-11.7,1.1-22.2,13.3-21.6c3.8-10.2,29.4-10.6,36.6-8.4c19.4-7.2,50.8-5.1,59.1,0.1
			c15.5-4.5,40.6-3,57.6,9.5c2.2-0.4,4.2-0.4,6-0.2c-0.1,0-0.2-0.1-0.3-0.1c-10-11.8-44.9-19.6-61.5-14.6c0,0-25.7-12.5-61.3,0.7
			c-42.8-3.6-57.5,17.7-65.1,34.1c-7.6,16.5-10,27.1-11.4,45.2c-1.1,14.5,3.6,35,12,47.9c0.4,0.5,0.7,1.1,1.1,1.6
			c0.4,0.7,0.9,1.3,1.4,1.9c8.2,10.3,27.8,29.3,49.3,24.3c11.3,11.7,30.7,10.5,40.2,5.3c14.7,8.9,34.5,9.1,47.9-1.7
			c8.6,1.8,16.3,6.4,30.8-1c6.8,2.6,17.5-5.6,23.2-10.4c12.4-10.6,20.1-26,23.8-41.8C402.4,370.5,401.9,348.7,398.5,335.6z
			 M278.4,376.3c4-1.5,6.5,3.4,7.9,7.6c0,0,0,0,0,0c0.3,0.8,0.5,1.6,0.7,2.4c0.4,1.4-0.7,2.7-2.1,2.7l-11.4,0.1
			c-1.4,0-2.4-1.2-2.1-2.6C272.2,383.2,274,377.9,278.4,376.3z M211,372.4c-4.8-6.3-6-13.8-6.3-17.6c-0.1-1.2,1.1-2.2,2.3-2l47,10.8
			c0.9,0.2,1.6,1.1,1.4,2.1c-3.6,19.5-25.3,17-25.3,17C220.7,381.6,214.8,377.4,211,372.4z M309.4,429.6c-1.7-6.4-5.8-21.8-7.3-21.4
			c-2.8,0.8-14.6,22.7-18.1,22.6c-3.5-0.2-12.9-18.5-15.1-18.1c-2.2,0.3-10.1,16.8-14.4,16.6c-4.3-0.2-13.5-12.5-16.6-18.5
			c-1.5,3.5-2.7,8.7-4.2,12.1c-12.2-10.9-20.6-37.2-18-36.3c2.1,0.8,8.9,9.2,13.8,13.4c1.6-4.5,4.2-11.1,6.6-11
			c2.4,0.2,12.1,17.8,16.3,19.1c1.7,0.6,15-15.6,17.2-14.7c2.3,0.8,14.1,16.1,15.6,16.3c1.4,0.2,12.8-14.9,15.3-14.7
			c2.5,0.2,6.7,11.1,10,18.4c7.8-5.6,17.3-16.3,20.4-19.9c0.3-0.3,0.9-0.1,0.8,0.4C329.4,410.9,323.3,419.7,309.4,429.6z
			 M331.4,382.5c-2.1,0.8-4.6,1.3-7.2,1.6c0,0-21.7,2.6-25.3-17c-0.2-0.9,0.5-1.9,1.4-2.1l47-10.8c1.2-0.3,2.4,0.7,2.3,1.9
			C349.2,362.2,346.5,377.2,331.4,382.5z"/>
	</g>
</g>
<g>
	<g>
		<g>
			<path class="st4" d="M193.8,314.9c-7.2,10.5-12,21.3-13,34.1c-1.3,15.3,0.8,30.2,5.8,44.7c2.9,8.5,6.6,17,11.3,24.6
				c0.5,0.8,1.6,0.1,1.2-0.7c-6.3-14.2-12.8-28-15.4-43.4c-1.3-7.4-1.5-14.8-1.2-22.3c0.2-5.8,1-11.6,2.7-17.1
				c2.1-6.9,5.6-13.3,9.6-19.3C195,314.8,194.1,314.3,193.8,314.9L193.8,314.9z"/>
		</g>
	</g>
	<g>
		<g>
			<path class="st4" d="M380,336.8c4.5,13.1,4.9,27.9,3.4,41.6c-1.6,14.4-5.5,29.4-14,41.3c-4.3,6-9.6,10.7-16.2,13.9
				c-0.8,0.4-0.2,1.7,0.6,1.4c12.9-4.4,20.9-17.5,25.5-29.6c5.5-14.4,7.4-30.6,6.3-45.9c-0.6-7.8-2-15.6-4.8-23
				C380.5,336.2,379.8,336.4,380,336.8L380,336.8z"/>
		</g>
	</g>
	<g>
		<g>
			<path class="st4" d="M215.8,334.6c-0.5,3.4-1.4,7-1.1,10.4c0,0.5,0.8,0.7,0.9,0.1c0.9-3.3,0.9-7,1.1-10.5
				C216.6,334.2,215.8,334.1,215.8,334.6L215.8,334.6z"/>
		</g>
	</g>
	<g>
		<g>
			<path class="st4" d="M210.5,375.5c-1.6,18.9,4.4,38.5,15,54.1c0.3,0.5,1,0.1,0.8-0.4c-4-8.5-8.1-16.9-10.7-26
				c-2.6-9-3.5-18.3-3.9-27.7C211.5,374.7,210.5,374.8,210.5,375.5L210.5,375.5z"/>
		</g>
	</g>
	<g>
		<g>
			<path class="st4" d="M258.3,344.2c-0.6,7.9-1.2,15.9,0,23.8c0.1,0.5,0.9,0.4,0.9-0.1c-0.4-7.9-0.3-15.7-0.1-23.6
				C259.1,343.7,258.4,343.7,258.3,344.2L258.3,344.2z"/>
		</g>
	</g>
	<g>
		<g>
			<path class="st4" d="M258.4,371.5c-0.2,0.5-0.2,0.9-0.2,1.4c0,0.5-0.1,1,0.1,1.5c0.1,0.3,0.6,0.4,0.7,0.1
				c0.2-0.4,0.3-0.9,0.3-1.4c0-0.5,0.1-1.1-0.1-1.5C259.2,371.3,258.6,371.1,258.4,371.5L258.4,371.5z"/>
		</g>
	</g>
	<g>
		<g>
			<path class="st4" d="M258.9,381.1c0.2,4.8,0,9.8,0.8,14.5c0.1,0.6,1,0.4,1-0.1c0.3-4.7-0.5-9.6-0.8-14.3
				C259.8,380.5,258.9,380.5,258.9,381.1L258.9,381.1z"/>
		</g>
	</g>
	<g>
		<g>
			<path class="st4" d="M265,420.4c0.5,5.4,1.7,11.9,5.5,16c0.5,0.5,1.6,0,1.3-0.8c-1-2.6-2.6-4.8-3.6-7.4c-1-2.5-1.8-5.3-2.2-8
				C266,419.6,264.9,419.7,265,420.4L265,420.4z"/>
		</g>
	</g>
	<g>
		<g>
			<path class="st4" d="M327.7,346.5c0.5,3.7,0.3,7.5,0.5,11.2c0,0.4,0.6,0.5,0.7,0.1c0.9-3.8,0.3-7.7-0.6-11.4
				C328.3,346,327.7,346.1,327.7,346.5L327.7,346.5z"/>
		</g>
	</g>
	<g>
		<g>
			<path class="st4" d="M330.9,384.3c-0.2,2.6-0.6,5.1-0.8,7.7c0,0.5,0.7,0.5,0.8,0.1c0.8-2.5,0.9-5.1,0.8-7.8
				C331.7,383.8,330.9,383.8,330.9,384.3L330.9,384.3z"/>
		</g>
	</g>
	<g>
		<g>
			<path class="st4" d="M328.8,406.4c-0.9,5.2-2.2,10.3-3.4,15.4c-1.3,5.1-3.1,10-4.2,15.1c-0.1,0.6,0.7,1,1,0.4
				c2.3-4.5,3.5-9.7,4.8-14.6c1.4-5.3,2.2-10.7,3-16C330.1,405.9,329,405.6,328.8,406.4L328.8,406.4z"/>
		</g>
	</g>
</g>
<g class="st5">
	<path class="st6" d="M398.5,335.6c-3.4-13.3-8.6-26.7-18.9-34.7c2.9,3,5,6.8,6.2,10.1c-8,4.5-9.9,15.3-7.7,23.3
		c-12.7-0.9-33.1-3.4-45.9,4.8c37.8-10.2,44.7,6.3,46.8,17.7c1.9,10,1.8,29.2-1.6,42.2c-4,15.7-17.2,29.7-30.7,34.8
		c-5.1,2-10.9,3.1-15.9,0.9c-4.3-1.9-7.2-7-6.1-11.2c-4.8,10.1-14.7,17.8-25.7,19.9c-11.8,2.2-24.7-2-32.8-10.9
		c-0.4,3.2-3.3,5.8-6.5,6.6c-3.2,0.8-6.6,0.3-9.7-0.5c-12.9-3.3-26.1-15.8-31.3-23c0.4,1.8,1.5,4.4,1.8,6.5c0.3,2-0.6,4.4-2.6,5
		c-1.6,0.5-3.2-0.3-4.6-1.1c-10.1-5.5-18.3-14.4-23-24.8c1.2,2.7-0.9,6-3.7,7c-1.8,0.6-3.7,0.5-5.5,0c0.3,0.5,0.7,1,1.1,1.6
		c0.5,0.6,0.9,1.3,1.4,1.9c8.2,10.3,27.8,29.3,49.3,24.3c11.3,11.7,30.7,10.5,40.2,5.3c14.7,8.9,34.5,9.1,47.9-1.7
		c8.6,1.8,16.3,6.4,30.8-1c6.8,2.6,17.5-5.5,23.2-10.4c12.4-10.6,20.1-26,23.8-41.8C402.4,370.5,401.9,348.7,398.5,335.6z"/>
</g>
<path class="st7" d="M255.4,365.8c-1.8,19.6-27.7,23.8-39.8,13.9c-12.1-9.9-10.9-24.9-10.9-24.9c0.3,3.8,1.5,11.3,6.3,17.6
	c3.8,4.9,9.7,9.2,19.2,10.3C230.2,382.7,251.9,385.3,255.4,365.8z"/>
<path class="st7" d="M349.6,356.3c-0.3,15.8-7.3,23.5-13.8,27.1c-5.3,3-11.4,3.8-17.4,3c-20.3-2.8-19.5-19.2-19.5-19.2
	c3.6,19.6,25.3,17,25.3,17c2.7-0.3,5.1-0.9,7.2-1.6C346.5,377.2,349.2,362.2,349.6,356.3z"/>
<path class="st7" d="M286.4,390.2c-0.6-0.1-9.6,0.4-13.1,0c-3.5-0.4-1.8-3.8-1.8-3.8c-0.3,1.3,0.8,2.6,2.1,2.6l11.4-0.1
	c1.4,0,2.4-1.3,2.1-2.7c-0.2-0.7-0.4-1.5-0.7-2.4C288.4,387.6,287.8,390.4,286.4,390.2z"/>
<path class="st7" d="M309.6,425.9c-1.7-6.4-5.8-21.8-7.3-21.4c-2.8,0.8-14.6,22.7-18.1,22.6c-3.5-0.2-12.9-18.5-15.1-18.1
	c-2.2,0.3-10.1,16.8-14.4,16.6c-4.3-0.2-13.5-12.5-16.6-18.5c-1.5,3.4-2.7,8.6-4.2,12.1c-8.8-7.8-16.1-23.2-18.6-30.9
	c0.7,5.8,8.2,25.6,18.4,34.6c1.5-3.4,2.7-8.6,4.2-12.1c3.1,6,12.3,18.3,16.6,18.5c4.3,0.2,12.2-16.3,14.4-16.6
	c2.2-0.3,11.6,18,15.1,18.1c3.5,0.2,15.3-21.8,18.1-22.6c1.5-0.4,5.6,15,7.3,21.4c13.1-9.4,19.3-17.8,21.7-32.9
	C328.1,409.3,321.4,417.5,309.6,425.9z"/>
<g>
	<g>
		<path class="st8" d="M385.9,310.9c-3-7.8-10.3-18.1-23.3-15.6c-13.7-15.1-43-16.5-54-12.5c-14.8-10.1-55.6-4.7-63.8,1.7
			c-13.9-5.7-31.7-0.5-35.5,9.7c-12.2-0.6-17.5,9.9-13.3,21.6c9.7,3,16.5,8.9,20.9,16.9c14.6-0.8,29.5,2.7,41.6,9.8
			c18.4-6.4,49.1-3.4,68.5,1.1c11.6-13.5,36.5-10.4,51.2-9.3C376,326.2,377.9,315.4,385.9,310.9z M373.1,328.9
			c-13.3-0.9-37.8-2.9-48.3,8.4c-17.7-3.9-47.4-6.2-64.2-0.9c-11.1-6-25.6-9.5-38.9-8.9c-4-6.7-11.6-12.4-20.5-15
			c-1.4-10.1,3.5-16,11-15.4c2.7-9.3,22.5-12.2,33.8-4.4c0,0,38.9-17.3,65.8-3.1c11.8-5.6,35.2-4.3,49.2,8.8
			c6.8-0.1,16.1,1.8,19.9,11.6C373.8,313.6,372.1,322.5,373.1,328.9z"/>
	</g>
</g>
<g>
	<path class="st9" d="M189.7,326.3c-8,4.9-9.3,19.6-8.1,27.9c0.8,5.5,9.2,3.9,9.4-1.3c0.2-4.7,0.1-9.2,0.9-13.9
		c0.6-3.8,1.8-7.6,1.1-11.4C192.7,326.2,190.9,325.6,189.7,326.3L189.7,326.3z"/>
</g>
<g>
	<path class="st9" d="M194.8,325c5,0,5-7.8,0-7.8C189.8,317.2,189.8,325,194.8,325L194.8,325z"/>
</g>
<g>
	<path class="st9" d="M189.7,396.8c0.3,3.6,1.2,6.9,2.7,10.1c0.6,1.3,2.3,2.2,3.7,2.1c0.2,0,0.3,0,0.5,0c1.2,0,2.5-0.6,3-1.7
		c0.1-0.1,0.1-0.3,0.2-0.4c0.7-1.3,0.9-3.1,0-4.4c-1.8-2.4-3.7-4.6-5.3-7.1C193.3,393.5,189.5,394.1,189.7,396.8L189.7,396.8z"/>
</g>
<path class="st0" d="M498,451.7c-15,0-28,2-34.2,5c-7.5-1.1-17.6-1.8-28.8-1.8c-23.1,0-41.9,3-41.9,6.7c0,3.7,18.8,6.7,41.9,6.7
	c2.6,0,5.1,0,7.6-0.1c0.1,3,10.4,5.4,23.1,5.4c11,0,20.2-1.8,22.5-4.3c3.1,0.2,6.4,0.3,9.8,0.3c21,0,38.1-4,38.1-8.9
	C536.1,455.7,519.1,451.7,498,451.7z"/>
<path class="st10" d="M507.6,447.3c0.9,5.3-2.7,10.4-7.9,11.8c-0.7,0.2-1.4,0.4-2.1,0.5c-13.3,2.3-23.1-10.7-26.1-15.3h0
	c-0.3-0.5-0.5-0.8-0.7-1.1c0,0,0,0,0,0c-0.1-0.2-0.2-0.3-0.2-0.3c0,0,0-0.1,0-0.1l8.7-6.2c0,0,0.8,5.7,5,10.2
	c0.7,0.8,1.5,1.5,2.4,2.1c0.2,0.2,0.5,0.3,0.7,0.5c0.4,0.2,0.7,0.5,1.1,0.7c0.4,0.2,0.8,0.4,1.2,0.6c0.3,0.1,0.5,0.2,0.8,0.4
	c0.5,0.2,1,0.4,1.5,0.5c1.8,0.6,3,0.7,3.9,0.4c0.2,0,0.3-0.1,0.4-0.2c0.1-0.1,0.3-0.2,0.4-0.3c0.4-0.4,0.6-0.9,0.8-1.6
	c0.2-0.8,0.3-1.7,0.4-2.8v-0.1c0-0.4,0-0.7,0.1-1.1c0.1-1.2,0.1-2.4,0.2-3.8c0.1-0.1,0.2-0.2,0.4-0.3c1.1-0.8,2.8-1.2,5.2,0
	C506.1,442.8,507.3,445,507.6,447.3z"/>
<path class="st11" d="M498.6,441.7c-0.2,0.7-0.3,1.4-0.4,2.2c-0.5,8.4,0.6,12.9-8.4,9c-9-3.9-10.4-14-10.4-14l-7.8,5.5h0
	c-0.3-0.5-0.5-0.8-0.7-1.1c0,0,0,0,0,0c-0.1-0.2-0.2-0.3-0.2-0.3c0,0,0-0.1,0-0.1l8.7-6.2c0,0,0.8,5.7,5,10.2
	c0.7,0.8,1.5,1.5,2.4,2.1c0.2,0.2,0.5,0.3,0.7,0.5c0.4,0.2,0.7,0.5,1.1,0.7c0.4,0.2,0.8,0.4,1.2,0.6c0.3,0.1,0.5,0.2,0.8,0.3
	c0.5,0.2,1,0.4,1.5,0.5c1.8,0.6,3.1,0.7,3.9,0.4c0.2,0,0.3-0.1,0.4-0.2c0.1-0.1,0.3-0.2,0.4-0.3c0.4-0.4,0.6-0.9,0.8-1.6
	c0.2-0.8,0.3-1.7,0.4-2.8v-0.1c0-0.4,0-0.7,0.1-1.1c0-1.2,0.1-2.4,0.2-3.8c0-0.1,0-0.2,0-0.3c0-0.6,0.1-1.2,0.3-1.8
	c-0.1,0.5-0.2,1.2-0.2,1.8c0,0.1,0,0.2,0,0.3C498.4,441.9,498.5,441.8,498.6,441.7z"/>
<path class="st3" d="M510.5,415c-8.2,10.1-18.8,17.4-24.1,20.5c-3.5,11-24.9,21-38.2,21.4c-20.8,9.7-44.5,2.6-57.1-2.6
	c-10.6-4.4,6.6-15.9,18.2-17.7c4.2-0.6,6.4-1.3,7.7-2.3c0.7-0.5,5.5-11.9,23.3-15.2c0.5-0.1,1-0.3,1.5-0.6l0,0h0
	c0.8-0.4,1.6-1.2,2.5-2.3c4.4-5.7,13.3-6.2,18.2-8.8c1.3-0.7,2.2-1.5,2.8-2.3c0,0,0,0,0,0c0.5-0.6,0.8-1.2,1.1-1.9
	c2.1-3.4,7.5-10.4,17.1-13.4c0.6-0.1,1.2-0.3,1.6-0.5c1.4-0.6,2.3-1.6,3.1-2.8c0,0,0,0,0,0c0.3-0.5,0.6-1.1,0.9-1.7
	c1.9-3.1,6.9-9.6,16.3-11.1c1.3,0,2.4-0.2,3.2-0.8c3.1-2.2,5.8-10.2,10.2-5.3C523.1,372.6,522.9,399.8,510.5,415z"/>
<g>
	<g>
		<path class="st4" d="M448.1,455.4c-10.6-3-24.4-8.1-29.7-18.5c-0.3-0.7-1.3-0.1-1,0.6c4.7,11,19.7,16.2,30.4,19
			C448.5,456.7,448.8,455.6,448.1,455.4L448.1,455.4z"/>
		<path class="st4" d="M485.9,434.2c2.5-14.5-4.3-25.5-17.7-31.1c-0.5-0.2-0.8,0.6-0.3,0.8c5.1,2.9,9.7,5.3,13.1,10.2
			c4.3,6.2,5,12.4,3.9,19.8C484.8,434.6,485.8,434.9,485.9,434.2L485.9,434.2z"/>
		<path class="st4" d="M495.2,428.1c9.1-12.3,5.2-29.3-6.1-38.8c-0.5-0.4-1.1,0.3-0.7,0.7c11.2,10.1,14,24.9,6.4,37.9
			C494.6,428.1,495,428.4,495.2,428.1L495.2,428.1z"/>
		<path class="st4" d="M505.6,415.6c6.3-10.9,8.3-23.7,5.2-35.9c-0.1-0.5-0.8-0.3-0.8,0.2c2.3,12.2,0.5,24.2-5.2,35.3
			C504.6,415.7,505.3,416.1,505.6,415.6L505.6,415.6z"/>
		<path class="st4" d="M438.9,424.5c5.2,12.2,21.5,26.7,35.9,22c0.5-0.2,0.3-0.9-0.2-0.8c-14.4,3-29.4-9.3-34.9-21.7
			C439.4,423.5,438.6,424,438.9,424.5L438.9,424.5z"/>
	</g>
</g>
<g class="st12">
	<g>
		<path class="st13" d="M454.4,416.9c1.5,3.7,4.4,6.8,6.8,9.9c2.6,3.3,5,6.7,8.2,9.4c2.3,2,5.5-0.5,4.2-3.2c-1.8-3.8-4.4-6.9-7-10.1
			c-2.5-3-5.1-6.6-8.5-8.7C456.4,413.1,453.6,414.9,454.4,416.9L454.4,416.9z"/>
		<path class="st13" d="M495.1,413.1c-0.8-5.7-5.1-13.2-10.4-15.7c-2.3-1.1-5.1,1.2-3.6,3.6c1.4,2.4,3.5,4.4,5.1,6.7
			c1.6,2.3,2.8,4.9,4.2,7.4C492,417.7,495.5,415.8,495.1,413.1L495.1,413.1z"/>
		<path class="st13" d="M507.2,393.9c1.5-4.7-1.1-13.1-5.8-15.3c-1.5-0.7-3.9,0.1-3.6,2.1c0.3,2.6,1.4,4.5,2.4,6.9
			c1,2.2,1.4,4.9,2.9,6.9C504.3,396,506.6,395.8,507.2,393.9L507.2,393.9z"/>
	</g>
</g>
<path class="st14" d="M510.5,415c-8.2,10.1-18.8,17.4-24.1,20.5c-3.5,11-24.9,21-38.2,21.4c-20.8,9.7-44.5,2.6-57.2-2.6
	c-5.4-2.3-3.5-6.4,1.2-10.1c7.1,7.8,34.7,15.8,43.5,7.5c6.5-0.2,18.8-1.1,24.3-7.2c15.9-0.8,24.6-13.9,26.4-19.5
	c4.2,0.8,10.3-1.7,14-10.1c4.4-0.9,7.6-4.9,10.1-10.4c6.5-8,9.7-19.4,10.5-29.1C522.2,385.8,519.7,403.7,510.5,415z"/>
<path class="st15" d="M401.9,443c-0.7,2.3-0.1,5.9,5.2,7.6c3.1,1,8.2,2.9,14.3,2.3c5-0.5,5.1-3.9,2.4-5.1c-2.7-1.2-9.4-8.5-13.1-9.1
	C407.1,438.1,402.5,440.9,401.9,443z"/>
<path class="st0" d="M420,474.9c0,3-24.3,6.5-54.3,6.5c-30,0-54.3-3.5-54.3-6.5c0-3,24.3-7.1,54.3-7.1
	C395.7,467.9,420,471.9,420,474.9z"/>
<path class="st16" d="M410.8,466.9c0,0.6-0.2,1.1-0.4,1.6c-0.4,0.9-1.2,1.7-2.1,2.1c-2.6,1.2-5.6-0.3-6.1-3h0c0,0-0.2-0.7-1-0.5
	l-21.4,4.8c-0.9,0.2-0.7,0.9-0.7,0.9c0.6,2.5-1.2,5-3.8,5.3c-1.8,0.2-3.7-0.8-4.5-2.5c-0.6-1.3-0.5-2.6,0-3.7
	c-1.2-0.8-2-2.1-2.1-3.7c-0.1-1.9,1-3.7,2.8-4.5c2.5-1.1,5.2,0,6.3,2.2c0.3,0.6,0.9,0.9,1.5,0.8l20.1-4.5c0.6-0.1,1-0.7,1-1.3
	c0-2.5,2-4.7,4.7-4.7c1.9,0,3.7,1.1,4.4,2.9c0.6,1.5,0.4,3.1-0.3,4.3C410.2,464.2,410.9,465.4,410.8,466.9z"/>
<path class="st17" d="M410.4,468.6c-0.4,0.9-1.2,1.7-2.1,2.1c-2.6,1.2-5.6-0.3-6.1-3h0c0,0-0.2-0.7-1-0.5l-21.4,4.8
	c-0.9,0.2-0.7,0.9-0.7,0.9c0.6,2.5-1.2,5-3.8,5.3c-1.8,0.2-3.7-0.8-4.5-2.5c-0.6-1.3-0.5-2.6,0-3.7c0,0,0.2,4.6,3.5,4.6
	c2.2-0.1,2.4-2.2,2.3-3.6c0-0.8,0.5-1.6,1.3-1.7l23.2-5.5c0.9-0.2,1.8,0.2,2.1,1C404.1,468.5,406.1,471.1,410.4,468.6
	C410.4,468.6,410.4,468.6,410.4,468.6z"/>
<path class="st18" d="M401.1,461.3c0,0,0.2-2.9,2.7-4c1.2-0.5,3.1-0.4,4.9,1.3C408.7,458.6,404,456.2,401.1,461.3z"/>
<path class="st19" d="M394.6,459.8C394.6,459.8,394.6,459.8,394.6,459.8c-3.8,2.4-8.2,4.4-13.1,5.8c0,0-3.4,1-5.7,5.3
	c-0.7,1.3-1.6,2.6-2.8,3.6l-0.2,0.2l-0.4,0.3c-2.8,2.2-6.7,3-11.5-1.1l0,0c-0.5,0.5-7.6,6.6-14-2.2c0,0-6.7,5.7-9.6,1.3
	c-1.1-1.7-1.7-4.9-1.1-10.5c0,0-0.4-2.8-3.6-6.3c-3.2-3.5-4.2-4.2-1.5-9c0,0-2.9-12.1-1.3-25.5c1.5-12.7,7.2-26.5,23.5-32
	c0,0,0,0,0,0c4.6-1.6,10.1-2.4,16.6-2.4C417.5,387.3,427,439.3,394.6,459.8z"/>
<radialGradient id="SVGID_1_" cx="346.7445" cy="431.1802" r="14.1375" gradientUnits="userSpaceOnUse">
	<stop  offset="0" style="stop-color:#A5A192"/>
	<stop  offset="1" style="stop-color:#A5A192"/>
</radialGradient>
<path class="st20" d="M358.7,433.1c-1.3,8.7-8.7,14.7-14.7,13.8c-6-0.9-10.5-8.9-9.2-17.6c1.3-8.7,7.8-14.8,13.9-14
	C354.7,416.3,360,424.4,358.7,433.1z"/>
<path class="st21" d="M348.4,446.5c-1.5,0.5-3,0.7-4.4,0.5c-6-0.9-10.5-8.9-9.2-17.6c1.3-8.7,7.8-14.8,13.9-14
	c0.6,0.1,1.2,0.3,1.8,0.5c-4.5,1.7-8.6,6.8-9.6,13.5C339.7,437.2,343.3,444.5,348.4,446.5z"/>
<linearGradient id="SVGID_2_" gradientUnits="userSpaceOnUse" x1="342.4993" y1="413.2917" x2="342.4993" y2="441.6055">
	<stop  offset="0" style="stop-color:#636363"/>
	<stop  offset="1" style="stop-color:#636363;stop-opacity:0"/>
</linearGradient>
<path class="st22" d="M348.4,446.5c-1.5,0.5-3,0.7-4.4,0.5c-6-0.9-10.5-8.9-9.2-17.6c1.3-8.7,7.8-14.8,13.9-14
	c0.6,0.1,1.2,0.3,1.8,0.5c-4.5,1.7-8.6,6.8-9.6,13.5C339.7,437.2,343.3,444.5,348.4,446.5z"/>
<path class="st23" d="M391.3,437.7c-1.3,8.7-11.4,14.5-17.4,13.6c-6-0.9-9.9-8.7-8.6-17.4c1.3-8.7,7.2-15.1,13.2-14.2
	C384.5,420.7,392.5,429,391.3,437.7z"/>
<path class="st21" d="M380,450.4c-2.2,0.8-4.4,1.2-6.2,0.9c-6-0.9-9.9-8.7-8.6-17.4c1.3-8.7,7.2-15.1,13.2-14.2c0.3,0,0.7,0.1,1,0.2
	c-3.9,2.1-7,7-7.9,13.1C370.3,441.7,374.1,449.4,380,450.4z"/>
<linearGradient id="SVGID_3_" gradientUnits="userSpaceOnUse" x1="375.8817" y1="418.2394" x2="372.7086" y2="441.5844">
	<stop  offset="0" style="stop-color:#636363"/>
	<stop  offset="1" style="stop-color:#636363;stop-opacity:0"/>
</linearGradient>
<path class="st24" d="M380,450.4c-2.2,0.8-4.4,1.2-6.2,0.9c-6-0.9-9.9-8.7-8.6-17.4c1.3-8.7,7.2-15.1,13.2-14.2c0.3,0,0.7,0.1,1,0.2
	c-3.9,2.1-7,7-7.9,13.1C370.3,441.7,374.1,449.4,380,450.4z"/>
<path class="st23" d="M352,450.4c0,0-6,1.5-5.2,4.7c0.7,3.2,5.5-1.3,6.6-0.5c1.1,0.8,2.6,4.9,5.5,2.5
	C361.9,454.7,356.4,449.6,352,450.4z"/>
<path class="st21" d="M359.3,456.7c-0.1,0.1-0.2,0.3-0.4,0.4c-3,2.4-4.4-1.7-5.5-2.5c-1.1-0.8-5.9,3.7-6.6,0.5
	c-0.3-1.4,0.7-2.5,1.9-3.3c-0.7,0.7-1.1,1.5-0.8,2.4c0.7,3.2,5.5-1.3,6.6-0.6C355.4,454.4,356.8,458,359.3,456.7z"/>
<path class="st25" d="M394.6,459.8c0.9-0.7,18.4-14.9,8-44.5c-10.7-30.4-49.4-25.6-49.4-25.6s0,0,0,0c4.6-1.6,10.1-2.4,16.6-2.4
	C417.5,387.3,427,439.3,394.6,459.8z"/>
<path class="st16" d="M336,464.7c0.1-2.2-0.4-4.3-1.6-6.1c-0.5-0.7-1.1-1.5-1.8-2.3c-2.9-3.2-4-4.1-2.1-7.9c0.4-0.8,0.5-1.7,0.3-2.5
	c-0.7-3.5-2.3-13.4-1-24.1c0,0,0,16.5,3.5,23.8c0.2,0.5,0.2,1-0.1,1.5c-0.7,1.3-2.1,4-1.5,5.2c0.8,1.7,4.8,5,5.1,7.5
	c0.3,2.5-1.4,9.7,0.4,13.3C336.3,471.6,335.8,469,336,464.7z"/>
<path class="st16" d="M375,461.9c0,0,9.6-0.5,8.5-9.1C383.4,452.8,380.8,459.2,375,461.9z"/>
<path class="st16" d="M360.9,474L360.9,474c-0.6,0.5-7.7,6.6-14-2.2c0,0,0.1-1.1,0.9-0.3C348.5,472.2,353.2,479.5,360.9,474z"/>
<path class="st16" d="M372.9,474.6l-0.2,0.2l-0.4,0.3c-2.8,2.2-6.7,3-11.5-1.1c0,0-0.1-1.3,0.9-1
	C362.7,473.3,366.9,478.5,372.9,474.6z"/>
<path class="st25" d="M366.5,423.5c0,0,8.8-11.6,18.8-2.9c1.7,1.5,3.1,3.4,4.2,5.4c1.1,2,2.5,5.1,3.3,8.5c0,0,1.9-10.9-8.7-18.1
	C384.1,416.4,372.6,409.4,366.5,423.5z"/>
<path class="st25" d="M333.3,428c0,0,1.6-14.4,15.1-14.3c0,0,8.1,0.6,10.6,9.8c0,0-1.5-11.3-12.2-12.3
	C336.1,410.2,332.8,422.2,333.3,428z"/>
<path class="st25" d="M332.6,413.2c0,0,7-24.1,28.3-22.8C360.9,390.4,343.8,392.5,332.6,413.2z"/>
<path class="st26" d="M343,479.5c-0.1,1.1-0.8,2-1.6,2.5c0.3,0.8,0.3,1.7-0.2,2.6c-0.5,0.8-1.3,1.3-2.2,1.4h0c-0.2,0-0.4,0-0.6,0
	c-1.7-0.1-2.8-1.5-2.8-3c0-0.3,0-0.6,0.1-0.9h0c0,0,0.1-0.5-0.5-0.6l-14.4-4.3c-0.6-0.2-0.7,0.3-0.7,0.3c-0.5,1.7-2.4,2.6-4,1.9
	c-0.7-0.3-1.2-0.8-1.5-1.4c0,0,0,0,0,0c-0.2-0.5-0.4-1-0.3-1.6c0.1-1,0.6-1.7,1.3-2.2c-0.4-0.9-0.5-1.9,0-2.9
	c0.6-1.2,1.9-1.9,3.2-1.8c0.5,0,1,0.2,1.4,0.5c1,0.6,1.7,1.8,1.6,3c0,0.4,0.2,0.8,0.6,1l13.6,4c0.4,0.1,0.8-0.1,1.1-0.5
	c0.8-1.5,2.7-2.1,4.4-1.3C342.4,476.9,343.1,478.2,343,479.5z"/>
<path class="st27" d="M338.9,486c-0.2,0-0.4,0-0.6,0c-1.7-0.1-2.8-1.5-2.8-3c0-0.3,0-0.6,0.1-0.9h0c0,0,0.1-0.5-0.5-0.6l-14.4-4.3
	c-0.6-0.2-0.7,0.3-0.7,0.3c-0.5,1.7-2.4,2.6-4,1.9c-0.7-0.3-1.2-0.8-1.5-1.4c0.2,0.1,3.4,1.9,4.9-0.8c0.2-0.3,0.5-0.4,0.9-0.4
	l15.8,4.6c0.3,0.1,0.5,0.4,0.5,0.7C336.4,483.3,336.4,485.6,338.9,486z"/>
<path class="st25" d="M316.7,470.4c0,0,1.9-0.9,3.4,0.3c0.7,0.6,1.3,1.6,1.1,3.4C321.2,474.2,320.2,471,316.7,470.4z"/>
<path class="st25" d="M337.4,478.2c0,0,0.3-1.3,1.9-1.6c0.7-0.1,1.4,0,2,0.4c0.6,0.5,1.3,1.4,0.9,3.2c0,0,0.1-1.4-1-2.3
	c-0.7-0.6-1.7-0.7-2.6-0.4C338.3,477.6,337.8,477.8,337.4,478.2z"/>
<path class="st25" d="M322,474.2l11.1,3.3l-9.6-2.2C322.8,475.2,322.3,474.8,322,474.2L322,474.2z"/>
<path class="st17" d="M393.1,459.8c0.1,0.5-0.6,1-1,1.1c-0.5,0.1-0.9-0.2-1-0.7c-0.1-0.5,0.2-0.9,0.7-1
	C392.2,459.1,393,459.3,393.1,459.8z"/>
<path class="st17" d="M388.6,461.3c0.1,0.6-0.7,1.2-1.2,1.3c-0.6,0.1-1.1-0.3-1.2-0.8c-0.1-0.6,0.3-1.1,0.8-1.2
	C387.5,460.5,388.4,460.7,388.6,461.3z"/>
<path class="st17" d="M390.5,461.1c0.1,0.3-0.4,0.7-0.7,0.8c-0.3,0.1-0.6-0.1-0.7-0.5c-0.1-0.3,0.1-0.6,0.5-0.7
	C389.9,460.7,390.5,460.8,390.5,461.1z"/>
<path class="st17" d="M373.2,472.6c0.1,0.3-0.4,0.7-0.7,0.8c-0.3,0.1-0.6-0.1-0.7-0.5s0.1-0.6,0.5-0.7
	C372.6,472.1,373.1,472.2,373.2,472.6z"/>
<path class="st17" d="M341.5,480c0,0.2-0.3,0.5-0.5,0.5c-0.2,0-0.4-0.1-0.5-0.3c0-0.2,0.1-0.4,0.3-0.5
	C341.1,479.7,341.5,479.8,341.5,480z"/>
<path class="st17" d="M337.8,482.3c0,0.2-0.3,0.5-0.5,0.5c-0.2,0-0.4-0.1-0.5-0.3c0-0.2,0.1-0.4,0.3-0.5
	C337.3,482,337.7,482.1,337.8,482.3z"/>
<path class="st17" d="M336.2,480.8c0,0.1-0.2,0.3-0.3,0.3c-0.1,0-0.3-0.1-0.3-0.2c0-0.1,0.1-0.3,0.2-0.3
	C335.9,480.6,336.2,480.7,336.2,480.8z"/>
<path class="st17" d="M337.2,481.5c0,0.2-0.1,0.3-0.2,0.3c-0.1,0-0.2-0.1-0.3-0.2c0-0.2,0-0.3,0.1-0.3
	C337,481.2,337.2,481.3,337.2,481.5z"/>
<path class="st17" d="M337.4,483.4c0,0.1-0.2,0.3-0.3,0.3c-0.1,0-0.3-0.1-0.3-0.2c0-0.1,0.1-0.3,0.2-0.3
	C337.2,483.2,337.4,483.3,337.4,483.4z"/>
<path class="st17" d="M397.9,454.3c0.1,0.3-0.3,0.5-0.6,0.6c-0.3,0.1-0.5-0.1-0.6-0.4c-0.1-0.3,0.1-0.5,0.4-0.6
	S397.8,454,397.9,454.3z"/>
<path class="st17" d="M397.1,456.6c0.1,0.3-0.3,0.5-0.6,0.6c-0.3,0.1-0.5-0.1-0.6-0.4c-0.1-0.3,0.1-0.5,0.4-0.6
	C396.6,456.2,397.1,456.3,397.1,456.6z"/>
<path class="st17" d="M393.3,456.8c0.1,0.3-0.3,0.5-0.6,0.6c-0.3,0.1-0.5-0.1-0.6-0.4c-0.1-0.3,0.1-0.5,0.4-0.6
	C392.8,456.4,393.3,456.5,393.3,456.8z"/>
<path class="st17" d="M381.6,464.2c0.1,0.3-0.3,0.5-0.6,0.6c-0.3,0.1-0.5-0.1-0.5-0.4c-0.1-0.3,0.1-0.5,0.4-0.6
	C381.1,463.8,381.5,464,381.6,464.2z"/>
<path class="st17" d="M376.3,468.2c0.1,0.3-0.3,0.5-0.6,0.6c-0.3,0.1-0.5-0.1-0.6-0.4c-0.1-0.3,0.1-0.5,0.4-0.6
	C375.8,467.8,376.2,467.9,376.3,468.2z"/>
<path class="st17" d="M360.3,458.1c0.1,0.3-0.3,0.5-0.6,0.6c-0.3,0.1-0.5-0.1-0.6-0.4c-0.1-0.3,0.1-0.5,0.4-0.6
	C359.8,457.8,360.3,457.9,360.3,458.1z"/>
<path class="st17" d="M374.8,471.3c0,0.2-0.2,0.4-0.4,0.4c-0.2,0-0.4-0.1-0.4-0.3c0-0.2,0.1-0.4,0.3-0.4
	C374.5,471.1,374.8,471.2,374.8,471.3z"/>
<path class="st17" d="M384.6,463.7c0.1,0.4-0.4,0.7-0.8,0.8c-0.4,0.1-0.7-0.2-0.8-0.5c-0.1-0.4,0.2-0.7,0.5-0.8
	C383.9,463.2,384.5,463.3,384.6,463.7z"/>
<path class="st1" d="M188,388.7c0.9,67.5-58.7,66.8-84.6,68c-25.9,1.2-86.7-9.3-82-70.7c0.8-11,4-19.8,8.7-26.9
	c3.3-5.1,7.4-9.3,12-12.8h0c0,0,0,0,0,0c1-1,17.8-17.1,37.3-14.5c0,0,18.1-9.9,44.3-1.3c0,0,21.3-4,37.8,10.5h0c0,0,0,0,0,0v0
	c8.2,4.7,15.5,11.4,20.3,20.8C185.6,369.1,187.8,377.9,188,388.7z"/>
<path class="st28" d="M182.5,363.2c-0.2-0.4-0.4-0.8-0.6-1.1c0,0,0-0.1-0.1-0.1v0c-4.8-9.5-12.1-16.1-20.3-20.9v0c0,0,0,0,0,0h0
	c-16.5-14.6-37.8-10.5-37.8-10.5c-26.2-8.6-44.3,1.3-44.3,1.3c-19.6-2.6-36.4,13.5-37.3,14.5c0,0,0,0,0,0h0
	c-4.5,3.5-8.6,7.7-12,12.8v0c0,0,0,0,0,0c-0.7,1.1-1.4,2.2-2,3.5c0,0,0,0,0,0.1c-3.5,6.4-5.8,14.1-6.5,23.3
	C19,417.9,34.2,436.1,53,446h0c0,0,0.1,0,0.1,0.1c0.2,0.1,0.3,0.2,0.5,0.2c17.3,8.9,37.5,11,49.8,10.4c8.2-0.4,19.8-0.6,31.8-2.8
	c11.4-2.1,23.1-6.1,32.6-13.8l0,0c12-9.8,20.5-25.6,20.2-51.4C187.8,378.6,185.8,370.1,182.5,363.2z M54.6,390
	c-0.1-0.1-0.2-0.1-0.3-0.2c-1-0.5-2-1.1-2.9-1.7v0c-0.1-0.1-0.2-0.1-0.3-0.2c-16.6-11.6-5.2-31.8-5.2-31.8l6.4,2l6.9,2.2l1,0.3
	l0.8,0.3l0.8,0.2l37.5,12c0,0-3.4,11.7-13.4,17.8h0c-0.3,0.2-0.6,0.4-1,0.6c-0.1,0.1-0.2,0.1-0.3,0.2c-0.2,0.1-0.4,0.2-0.6,0.3v0
	c-0.2,0.1-0.4,0.2-0.7,0.3c-0.1,0.1-0.2,0.1-0.4,0.2v0c-0.1,0.1-0.3,0.1-0.4,0.2v0c-6.2,2.6-14.4,3-25.1-1.4
	C56.3,390.8,55.4,390.4,54.6,390z M153.9,437.4c-0.4,0.3-0.7,0.5-1.1,0.8c-1.7,1.1-3.5,2.2-5.6,3.1c-1.5,0.7-3.6,1.2-5.8,1.6
	c-1.5,0.3-3.2,0.5-4.8,0.7c-1.2,0.2-2.4,0.3-3.6,0.4c-0.1-0.7-0.2-1.7-0.5-2.9c0-0.1-0.1-0.2-0.1-0.4c0-0.2-0.1-0.3-0.1-0.5
	c-1.3-4.2-4.7-9.6-13-8.1c-10.9,2-9.8,12-9.1,15.3c-7.1,0.3-12.7,0-18.5-0.8c-0.1,0-0.2,0-0.3,0c-0.7-0.1-1.3-0.2-2-0.3
	c-0.8-0.1-1.6-0.3-2.4-0.4c-0.2-1.2-0.3-2.3-0.4-3.4c-0.5-4.6-0.9-8.5-3-10.9c-0.5-0.6-1.1-1-1.8-1.4c-0.1-0.1-0.2-0.1-0.3-0.2
	c-0.6-0.3-1.2-0.5-1.9-0.7c-0.5-0.1-1-0.2-1.6-0.3c-6.2-0.7-10,5.7-10.6,8.1c-1.2-1.2-2.4-2.3-3.4-3.6v0c-1.5-1.9-2.7-3.7-3.3-5.3
	c-3.2-8.9-1-20,6-24.7c2.6-1.8,6-2.7,9.9-2.2c1.3,0.2,2.7,0.3,4.2,0.4c0.2,0,0.3,0,0.5,0c0.1,0,0.2,0,0.3,0c0.1,0,0.2,0,0.3,0
	c0.4,0,0.8,0.1,1.3,0.1c0.4,0,0.8,0,1.1,0c0.1,0,0.2,0,0.3,0h0c0.9,0,1.8,0,2.7,0c-0.3,3-0.6,14.5,11.8,14.9c0,0,12.6,2.4,14.1-13.9
	c0.1-0.8,0.1-1.7,0.1-2.7c7.1-0.7,15.1-1.6,23.8-2.5c0.2,0,0.4,0,0.6-0.1c0.1,0,0.2,0,0.3,0c0.3,0,0.5,0,0.8-0.1
	c0.7,0,1.4-0.1,2.1,0h0.3c0.7,0,1.3,0,2,0.1C164.7,399.7,173.4,423.4,153.9,437.4z M157.4,389.1c-5.4,2.1-10.2,3-14.5,3
	c-0.6,0-1.3,0-1.9-0.1c-0.1,0-0.2,0-0.3,0c-0.6,0-1.2-0.1-1.8-0.2c-0.2,0-0.4-0.1-0.7-0.1c-0.1,0-0.2,0-0.3-0.1
	c-1.4-0.2-2.8-0.6-4.1-1c-6.6-2.2-11.3-6.6-14.3-10.4c-3-3.8-4.4-7.1-4.4-7.1l21.4-7.1l0.3-0.1l0.2-0.1l0.5-0.2l1.1-0.4l20.1-6.7
	l0.1,0l2.9-1l4.8-1.6C166.4,356.1,178,381,157.4,389.1z"/>
<path class="st29" d="M81.3,402c-0.2,0-0.3,0-0.5,0c0.5-3.7,1.1-6.8,1.7-9.4v0c0.1-0.6,0.3-1.2,0.4-1.7c0.1,0,0.2,0,0.3,0
	c0.1,0,0.2,0,0.4,0c0.2,0,0.3,0,0.5,0c0,0.3-0.1,0.7-0.1,1v0c-0.3,3.4-0.5,6.8-0.6,10.2c-0.4,0-0.9-0.1-1.3-0.1
	C81.7,402.1,81.5,402.1,81.3,402z"/>
<path class="st29" d="M84.6,447l-3.6,0.4c-0.1-0.4-0.1-0.8-0.1-1.1c-0.8-6-1.2-11.5-1.4-16.7c0.9,0.2,1.6,0.5,2.2,0.8
	c0.7,0.4,1.3,0.9,1.8,1.4C84,440.9,84.6,447,84.6,447z"/>
<path class="st30" d="M50.4,409.9l2.7,26.4l-5.4-4.1c-0.1-0.7-0.3-1.4-0.4-2.1c-3.4-17.8-0.9-32.7,2.5-43.2c1.3-4,2.7-7.4,4-10
	c0.1,0.2,0.2,0.5,0.3,0.7c0,0.1,0.1,0.2,0.1,0.2c0.1,0.2,0.1,0.3,0.2,0.5c0,0.1,0.1,0.1,0.1,0.2c-0.8,3.1-1.4,6.7-1.9,10.3
	C50.9,399.3,50.4,409.9,50.4,409.9z"/>
<path class="st29" d="M141.4,442.9l-6.2,6.5l1.4-5.8C138.2,443.5,139.9,443.2,141.4,442.9z"/>
<path class="st29" d="M135.8,356c0.7,1.9,1.6,5.1,2.7,9.4l-1.1,0.4l-0.5,0.2c-0.3-2.4-0.6-4.5-0.9-6.4c0,0,0-0.1,0-0.1
	c-0.4-2.3-0.7-4.2-1-5.5c0.1,0.2,0.2,0.6,0.5,1.3C135.6,355.3,135.7,355.6,135.8,356C135.8,355.9,135.8,355.9,135.8,356z"/>
<path class="st29" d="M143.4,398c-0.7-0.1-1.3-0.1-2-0.1h-0.3c-0.7,0-1.4,0-2.1,0c0-0.9,0-1.7,0-2.6c0-1.2,0-2.3-0.1-3.5
	c0.6,0.1,1.2,0.1,1.8,0.2c0.1,0,0.2,0,0.3,0c0.6,0,1.2,0.1,1.9,0.1C143.1,394,143.3,396,143.4,398z"/>
<path class="st30" d="M147.7,334.3c0,0,14.8,7.7,19.3,43c0,0-2.2-13.2-8-21.2c-5.8-8-16-21.8-16-21.8H147.7z"/>
<path class="st30" d="M169.6,393.5c0,0,6,14.2,1.7,34.5l-4.3,2.3C167,430.3,173.4,408,169.6,393.5z"/>
<path class="st30" d="M72.9,337.1c-3.5,3.3-8.7,15.4-12,23.8l-0.8-0.3l-1-0.3c2.3-10.3,6.5-18.8,8.4-22.3c0.6-1,0.9-1.6,0.9-1.6
	L72.9,337.1z"/>
<path class="st28" d="M81.9,402.1c-0.1,0-0.2,0-0.3,0c0.3-3.3,0.7-6.5,1.2-9.6v0c0.1-0.5,0.2-1,0.3-1.5c0.1,0,0.2,0,0.4,0
	c0.2,0,0.3,0,0.5,0c0.2,0,0.3,0,0.5,0c0,0.2,0,0.5,0,0.7c-0.1,2.9-0.1,6.5-0.1,10.6c-0.4,0-0.8,0-1.1,0
	C82.8,402.1,82.3,402.1,81.9,402.1z"/>
<path class="st28" d="M135,353.8c0.2,0.9,1.2,5.2,2.4,11.9l-0.5,0.2l-0.2,0.1l-0.3,0.1C136.1,362.1,135.6,358,135,353.8z"/>
<path class="st28" d="M141.1,397.9c-0.7,0-1.4,0-2.1,0c-0.2,0-0.5,0-0.8,0.1c-0.1,0-0.2,0-0.3,0c0-2,0-4.1,0-6.3
	c0.1,0,0.2,0,0.3,0.1c0.2,0,0.4,0.1,0.7,0.1c0.6,0.1,1.2,0.1,1.8,0.2C140.9,393.9,141,395.9,141.1,397.9z"/>
<path class="st28" d="M191.1,400.6c-0.3,9.2-2.2,21.8-8.9,30.4c-2.4,3.1-5.5,5.7-9.4,7.5c-2.6,1.6-4.6,1.7-5,1.7c0,0-0.1,0-0.1,0
	l0,0c-16,17.3-32.6,13.8-32.6,13.8c-24.4,8.9-44.3,3.2-47,2.4c-0.7,0-1.3,0-2,0c-1,0.1-2,0.1-2.9,0.1c-19.7,0-30.2-10.4-30.2-10.4h0
	c-5.1,0-9.3-1.6-12.9-4.1c0,0,0,0,0,0c-2.8-2-5.2-4.6-7.3-7.4c-6.3-7.2-10.3-14.4-12.6-21.3c-9.9-28.9,8.9-52.9,9.9-54.1
	c0,0,0,0,0,0c-5.7,13.3-9.2,31.1-3,47.3c3.6,9.3,10.4,18,22,25c0,0,0,0,0,0s-3.5-21.2,2-43.6c0.8-3.3,1.8-6.7,3.1-10
	c0.1,0.2,0.1,0.3,0.2,0.5c0,0.1,0.1,0.1,0.1,0.2c0.1,0.3,0.3,0.6,0.5,0.9c0,0,0,0.1,0.1,0.1c0.2,0.3,0.3,0.6,0.5,0.8v0
	c-0.4,2.7-0.9,5.9-1.2,9.4c-1.3,12.5-1.8,28.6,2.3,40.8c1.4,4.3,2.6,7.8,7.3,11c3.5,2.3,11.3,5.4,18.8,4.4c0,0-0.8-6.6-1.3-15.8
	c0.1,0.1,0.2,0.1,0.3,0.2c0.7,0.4,1.3,0.9,1.8,1.4c2.1,2.4,2.5,6.3,3,10.9c0.1,1.1,0.3,2.2,0.4,3.4c0.8,0.2,1.6,0.3,2.4,0.4
	c0.7,0.1,1.4,0.2,2,0.3c1.6,1.9,4,3.1,6.6,3.3c5.4,0.4,13.2,0.4,23-1c5-0.8,9.4-4,11.4-8.6c0,0.2,0.1,0.3,0.1,0.5
	c0,0.1,0.1,0.2,0.1,0.4c0.3,1.2,0.5,2.2,0.5,2.9c1.2-0.1,2.3-0.3,3.6-0.4c1.6-0.2,3.3-0.4,4.8-0.7c2.3-0.4,4.3-0.9,5.8-1.6
	c2.1-1,3.9-2,5.6-3.1c0.4-0.3,0.8-0.5,1.1-0.8c1.6-0.8,3.1-1.6,4.5-2.6c2.5-1.7,4.5-4,5.6-6.7c2.2-5.5,5.8-16.9,5.7-34.6
	c0,0,0.8,2.7,1.4,7.4c0.7,5.8,1.2,14.8-0.4,25.9c0,0,0,0,0,0c3.1-1.3,12.7-7,14.8-26.3c1.1-9.3,0.4-21.8-3.5-38.5c0,0,0,0,0.1,0.1
	c0.8,1.2,7.2,11.6,8.8,26.4l0,0c0,0,0.1,0.6,0.1,1.6c0,0.3,0.1,0.7,0.1,1c0,0.6,0.1,1.2,0.1,1.9c0,0.1,0,0.2,0,0.3
	C191.2,395.2,191.2,397.7,191.1,400.6z"/>
<path class="st14" d="M83.2,402.2c-0.4,0-0.9-0.1-1.3-0.1c0.3-3.4,0.7-6.7,1.2-9.8c0.1-0.4,0.2-0.9,0.2-1.3c0.2,0,0.3,0,0.5,0
	c0.2,0,0.3,0,0.5,0h0.3c0,0.2,0,0.4,0,0.6c-0.1,2.9-0.1,6.6-0.1,10.7C84.2,402.2,83.7,402.2,83.2,402.2z"/>
<path class="st14" d="M135.8,356c0.4,2,1.1,5.3,1.9,9.6l-0.3,0.1l-0.5,0.2l-0.2,0.1c-0.2-2.1-0.4-4.3-0.7-6.5c0,0,0-0.1,0-0.1
	c-0.2-1.4-0.3-2.8-0.5-4.2c0-0.4-0.1-0.8-0.2-1.2C135.4,354.2,135.6,354.9,135.8,356C135.8,355.9,135.8,355.9,135.8,356z"/>
<path class="st14" d="M141.4,397.9h-0.3c-0.7,0-1.4,0-2.1,0c-0.2,0-0.5,0-0.8,0.1c0-2,0-4.1,0-6.2c0.2,0,0.4,0.1,0.7,0.1
	c0.6,0.1,1.2,0.1,1.8,0.2c0.1,0,0.2,0,0.3,0C141.2,394,141.3,395.9,141.4,397.9z"/>
<path class="st14" d="M191.5,400.7c-0.3,9.2-2.1,21.8-8.9,30.4c-2.4,3.1-5.5,5.7-9.4,7.5c-2.6,1.6-4.6,1.7-5,1.7c0,0-0.1,0-0.1,0
	c-16,17.3-32.6,13.8-32.6,13.8c-24.4,8.9-44.3,3.2-47,2.4c-0.7,0-1.3,0-2,0c-1,0.1-2,0.1-3,0.1c-17.9,0-28.3-8.6-30-10.1
	c-0.2-0.2-0.2-0.2-0.2-0.2h-0.2c-5-0.1-9.2-1.6-12.7-4.1c0,0,0,0,0,0c-2.9-2-5.3-4.6-7.3-7.4c-6.3-7.2-10.3-14.4-12.6-21.3
	c-7.9-23,2.4-42.9,7.5-50.6c0,0,0,0,0-0.1c1.4-2.2,2.4-3.4,2.4-3.4c-5.6,13.3-9.2,31.1-3,47.3c3.3,8.7,9.6,16.9,19.8,23.7
	c0.7,0.5,1.4,0.9,2.1,1.3c0,0,0,0,0,0s-3.5-21.1,1.9-43.4v0c0.8-3.2,1.8-6.5,3-9.7c0,0.1,0.1,0.1,0.1,0.2c0.1,0.3,0.3,0.6,0.5,0.9
	c0,0,0,0.1,0.1,0.1c0.2,0.3,0.3,0.6,0.5,0.8v0c0.1,0.1,0.2,0.3,0.3,0.4c-0.4,2.7-0.8,5.8-1.2,9.1c-1.3,12.5-1.8,28.6,2.3,40.7
	c1.4,4.3,2.6,7.8,7.3,11c3.1,2.1,9.8,4.8,16.6,4.5c0.7,0,1.4-0.1,2.2-0.2c0,0-0.8-6.5-1.3-15.7c0.7,0.4,1.3,0.9,1.8,1.4
	c2.1,2.4,2.5,6.3,3,10.9c0.1,1.1,0.3,2.2,0.4,3.4c0.8,0.1,1.6,0.3,2.4,0.4c0.8,0.1,1.6,0.2,2.3,0.4c1.6,1.9,4,3.2,6.6,3.3
	c5.4,0.4,13.2,0.4,23-1c4.9-0.7,9.1-3.8,11.2-8.2c0,0.1,0.1,0.2,0.1,0.4c0.3,1.2,0.5,2.2,0.5,2.9c1.2-0.1,2.3-0.3,3.6-0.4
	c1.6-0.2,3.3-0.4,4.8-0.7l0.7-0.8c2.7-0.8,6.7-2.1,10.7-4c2-1,4.1-2.1,5.9-3.3c2.5-1.7,4.5-4,5.6-6.7c2.2-5.5,5.8-16.9,5.6-34.6
	c0,0,0.8,2.7,1.4,7.4c0.7,5.8,1.2,14.8-0.4,25.9c0,0,0,0,0,0c3.1-1.3,12.7-7,14.8-26.3c1-9.1,0.4-21.2-3.3-37.4
	c-0.1-0.4-0.2-0.8-0.3-1.2c0.4,0.7,7.2,11.2,8.8,26.5l0,0c0,0,0.1,0.6,0.1,1.6c0,0.3,0.1,0.7,0.1,1c0,0.6,0.1,1.2,0.1,1.9
	c0,0.1,0,0.2,0,0.3C191.5,395.3,191.6,397.8,191.5,400.7z"/>
<path class="st14" d="M167,377.3c-2.7-7.4-5.6-13.6-8.4-18.6c-12.6-22.3-25.6-23.9-30.8-23.4c-1.4,0.2-2.3,0.4-2.3,0.4
	c4.2,4.1,7.2,10.6,7.4,10.9c-14.3-17.6-32.1-5.5-32.1-5.5s-10.9-6.3-22.5-1.9c-8.1,3.1-12.6,13.1-16.6,22.1l-0.8-0.2l-0.8-0.3
	c3.7-10.7,10-22.6,10-22.6c-0.9,0-1.8,0-2.6,0c-13.4,0.5-24.7,7.9-25.3,8.3c1-1,17.8-17.1,37.3-14.5c0,0,18.1-9.9,44.3-1.3
	c0,0,21.3-4,37.8,10.5c-4.6-3.5-10.4-5.2-15.9-5.8c7.9,7.8,12.9,15.7,16,22.5C166.8,369,167,377.3,167,377.3z"/>
<path class="st7" d="M85.7,390.9c-0.3,0.2-0.6,0.4-1,0.6c-0.1,0.1-0.2,0.1-0.3,0.2c-0.2,0.1-0.4,0.2-0.6,0.3
	c-0.2,0.1-0.4,0.2-0.7,0.3c-0.1,0.1-0.2,0.1-0.4,0.2c-0.1,0.1-0.3,0.1-0.4,0.2c-6.2,2.6-14.4,3-25.1-1.4c-0.9-0.4-1.8-0.8-2.7-1.2
	c-0.1-0.1-0.2-0.1-0.3-0.2c-0.6-0.3-1.2-0.7-1.8-1c-0.4-0.2-0.8-0.5-1.1-0.7c-0.1-0.1-0.2-0.1-0.3-0.2c-0.4-0.3-0.9-0.6-1.3-0.9
	c-14.7-11.7-3.9-30.8-3.9-30.8l9,2.9c-1.4,4-3.4,11.3-1.1,18c0.1,0.2,0.2,0.5,0.3,0.7c0,0.1,0.1,0.2,0.1,0.2
	c0.1,0.2,0.1,0.3,0.2,0.5c0,0.1,0.1,0.1,0.1,0.2c0.1,0.3,0.3,0.6,0.5,0.9c0,0,0,0.1,0.1,0.1c0.2,0.3,0.3,0.6,0.5,0.8v0
	c0.1,0.1,0.2,0.3,0.3,0.4c3.8,5.4,11.7,9.6,27,10c0.1,0,0.2,0,0.3,0c0.1,0,0.2,0,0.4,0c0.2,0,0.3,0,0.5,0c0.2,0,0.3,0,0.5,0H85.7z"
	/>
<path class="st31" d="M157.4,389.1c-9.7,3.8-17.5,3.6-23.6,1.6c29.3-0.5,28.2-24.7,24.9-32l7.7-2.6C166.4,356.1,178,381,157.4,389.1
	z"/>
<polygon class="st31" points="105.7,384.4 97.8,396.8 114,396.8 "/>
<polygon class="st1" points="105.7,386.9 101.3,395.4 110.2,395.2 "/>
<path class="st10" d="M106.1,333.2h-6.2c-1.8-9.6-7.4-17.6-9.3-20.2c-0.4-0.6-0.4-1.3,0.1-1.8c1.1-1.3,3.6-3.3,7.7-2.8
	c0.5,0.1,0.9,0.4,1.1,0.8C107.3,324,106.1,333.2,106.1,333.2z"/>
<path class="st11" d="M106.1,333.2h-1.9c-0.8-16-7-22.2-7-22.2c1.6-0.8,2.3-1.8,2.3-1.8C107.3,324,106.1,333.2,106.1,333.2z"/>
<linearGradient id="SVGID_4_" gradientUnits="userSpaceOnUse" x1="49.795" y1="434.468" x2="30.571" y2="422.2345">
	<stop  offset="0" style="stop-color:#A63420"/>
	<stop  offset="1" style="stop-color:#A63420;stop-opacity:0"/>
</linearGradient>
<path class="st32" d="M53.1,446L53.1,446c-5.1,0-9.4-1.6-12.9-4.1c0,0,0,0,0,0c-2.9-2-5.3-4.6-7.3-7.4c-6.3-7.2-10.3-14.4-12.6-21.3
	l6.9-6.8c3.6,9.3,10.4,18,22,25c0,0,0,0,0,0S50.3,438.4,53.1,446z"/>
<linearGradient id="SVGID_5_" gradientUnits="userSpaceOnUse" x1="167.8152" y1="420.1932" x2="191.1357" y2="420.1932">
	<stop  offset="0" style="stop-color:#A63420"/>
	<stop  offset="1" style="stop-color:#A63420;stop-opacity:0"/>
</linearGradient>
<path class="st33" d="M191.1,400.6c-0.4,12.6-3.7,31.3-18.3,37.9c-2.6,1.6-4.6,1.7-5,1.7c0,0-0.1,0-0.1,0c2-7.8,2.8-13.3,2.8-13.3
	s0,0,0,0c3.1-1.3,12.7-6.9,14.8-26.3C185.8,400.1,188.3,400.3,191.1,400.6z"/>
<path class="st14" d="M182.2,431c-2.4,3.1-5.5,5.7-9.4,7.5c-2.6,1.6-4.6,1.7-5,1.7c0,0-0.1,0-0.1,0c-16,17.3-32.6,13.8-32.6,13.8
	c-24.4,8.9-44.3,3.2-47,2.4c-0.7,0-1.3,0-2,0c-1,0.1-2,0.1-2.9,0.1c-19.7,0-30.2-10.4-30.2-10.4h0c-5.1,0-9.3-1.6-12.9-4.1
	c0,0,0,0,0,0c-2.9-2-5.3-4.6-7.3-7.4c0,0,9.3,7.4,18.4,5.6c0,0,14.9,14.9,35.9,11.9c0,0,25.7,6.7,46.8-2.6c0,0,21.2,1.3,34.9-13.1
	C168.7,436.3,177.8,435.2,182.2,431z"/>
<path class="st31" d="M77.9,429.2c-6.2-0.7-10,5.7-10.6,8.1c-1.2-1.1-2.4-2.3-3.4-3.6v0C63.9,433.8,68,426.2,77.9,429.2z"/>
<path class="st31" d="M110.1,447.6c-9,0.3-15.6-0.2-23.2-1.6c-0.2-1.2-0.3-2.3-0.4-3.4c9.6,2.1,19.2,1.3,19.2,1.3
	c0.8-10.4,13.5-11.6,13.5-11.6C108.3,434.2,109.4,444.3,110.1,447.6z"/>
<path class="st31" d="M147.2,441.3c-3.3,1.6-9.1,2.2-14.2,2.8c-0.1-0.7-0.2-1.7-0.5-2.9c10.8-1.7,30-12.8,24.6-27.8
	c-5-14.1-38.9-10.8-43.8-10.1c0.1-0.8,0.1-1.7,0.1-2.7c7.1-0.7,15.1-1.6,23.8-2.5C165.3,395,177.3,427.3,147.2,441.3z"/>
<path class="st31" d="M87.4,402.3c-1,0-2-0.2-2.9-0.3c-1.1,0-2.2-0.2-3.2-0.3c-1.7-0.1-3.3-0.2-4.7-0.4c-4-0.5-7.2,0.7-9.9,2.5
	c2.1-0.4,8.2-0.6,15,1.6c0.4,4.3,2.5,12.8,17.5,11.9C86.8,416.7,87.1,405.2,87.4,402.3z"/>
<path class="st11" d="M99.7,308.5c0.4,1.1-1.5,2.8-4.2,3.7c-2.7,1-5.2,0.9-5.6-0.2c-0.4-1.1,1.5-2.8,4.2-3.7
	C96.8,307.3,99.3,307.4,99.7,308.5z"/>
</svg>
