<?xml version="1.0" encoding="utf-8"?>
<!-- Generator: Adobe Illustrator 23.0.3, SVG Export Plug-In . SVG Version: 6.00 Build 0)  -->
<svg version="1.1" id="Layer_1" xmlns="http://www.w3.org/2000/svg" xmlns:xlink="http://www.w3.org/1999/xlink" x="0px" y="0px"
	 viewBox="0 0 417 659" style="enable-background:new 0 0 417 659;" xml:space="preserve">
<style type="text/css">
	.st0{fill:#A59CB7;}
	.st1{fill:#100623;}
</style>
<g>
	<g>
		<path class="st0" d="M109.5,513.4c0,5.3-3.4,9.6-7.6,9.6c-4.2,0-7.6-4.3-7.6-9.6c0-5.3,3.4-9.6,7.6-9.6
			C106.1,503.8,109.5,508.1,109.5,513.4z"/>
		<path class="st0" d="M107,526.4c0,2.6-2.2,4.8-4.8,4.8c-2.7,0-4.8-2.1-4.8-4.8c0-2.6,2.2-4.8,4.8-4.8
			C104.8,521.6,107,523.7,107,526.4z"/>
		<path class="st0" d="M107.2,509.1c-0.4,0-0.7-0.2-0.8-0.6c-0.2-0.5,0-1,0.5-1.2l3.4-1.4c0.6-0.2,2-1.1,2.1-1.1
			c0.3-0.2,0.7-0.2,1,0.1c1.5,1.2,2.3,2.2,2.4,2.9c0.1,0.5-0.3,1-0.8,1c-0.5,0-1-0.3-1-0.8c-0.1-0.1-0.6-0.7-1.3-1.3
			c-0.5,0.3-1.3,0.7-1.7,0.9l-3.4,1.4C107.5,509,107.4,509.1,107.2,509.1z"/>
		<path class="st0" d="M115.4,515.7c-0.5,0-0.9-0.4-0.9-0.9c0-0.7-0.7-1.2-1.4-1.4c-0.7-0.2-1.6-0.1-2.7,0.3
			c-0.3,0.1-0.6,0.2-0.9,0.4c-0.7,0.3-1.5,0.6-2.3,0.8c-0.4,0.1-0.9-0.2-1.1-0.6c-0.1-0.4,0.1-0.9,0.5-1.1l0.5-0.2
			c0.2-0.1,0.4-0.1,0.5-0.1c0.4-0.1,0.8-0.3,1.1-0.4c0.3-0.1,0.7-0.3,1-0.4c0.9-0.3,2.3-0.7,3.7-0.4c1.3,0.3,2.7,1.5,2.8,3.1
			C116.3,515.2,115.9,515.6,115.4,515.7C115.4,515.7,115.4,515.7,115.4,515.7z"/>
		<path class="st0" d="M114.4,520.3c-0.3,0-0.7-0.2-0.8-0.5c-0.4-1-1.4-1.7-2.5-1.9c-1.1-0.1-2.2,0.2-3,1c-0.4,0.4-0.9,0.4-1.3,0
			c-0.4-0.3-0.4-0.9-0.1-1.3c1.2-1.2,3-1.9,4.6-1.6c1.7,0.3,3.2,1.4,3.9,2.9c0.2,0.5,0,1-0.5,1.2
			C114.6,520.3,114.5,520.3,114.4,520.3z"/>
		<path class="st0" d="M89.2,509.5c-0.2,0-0.5-0.1-0.7-0.3c-0.4-0.4-0.4-0.9,0-1.3c0.4-0.4,0.9-0.9,1.3-1.5c0.5-0.6,1-1.1,1.4-1.5
			c0.2-0.2,0.6-0.3,0.9-0.2c0.5,0.1,0.9,0.2,1.4,0.3c1.9,0.5,3.9,0.9,5.6,2.4c0.4,0.3,0.4,0.9,0.1,1.3c-0.3,0.4-0.9,0.4-1.3,0.1
			c-1.3-1.1-3-1.5-4.8-2c-0.3-0.1-0.6-0.1-0.9-0.2c-0.3,0.3-0.6,0.7-1,1.1c-0.5,0.6-1,1.1-1.4,1.5C89.7,509.4,89.4,509.5,89.2,509.5
			z"/>
		<path class="st0" d="M88.9,516.5c-0.2,0-0.5-0.1-0.7-0.3c-0.3-0.4-0.3-1,0-1.3c1.6-1.5,3.3-2.9,5.4-3.1c1.8-0.1,3.6,0.8,4.6,2.3
			c0.3,0.4,0.2,1-0.3,1.3c-0.4,0.3-1,0.2-1.3-0.3c-0.6-0.9-1.7-1.4-2.7-1.4c-0.1,0-0.1,0-0.2,0c-1.5,0.1-2.9,1.3-4.3,2.6
			C89.4,516.4,89.2,516.5,88.9,516.5z"/>
		<path class="st0" d="M91.7,521.8c-0.2,0-0.4-0.1-0.6-0.2c-0.4-0.3-0.5-0.9-0.2-1.3c1.7-2.2,4.4-3.7,7.2-3.9c0.5-0.1,0.9,0.3,1,0.9
			c0,0.5-0.3,0.9-0.9,1c-2.3,0.2-4.4,1.3-5.8,3.2C92.2,521.7,92,521.8,91.7,521.8z"/>
	</g>
	<path class="st0" d="M86.8,395.8c-9.4,29.6-18.6,59.5-25.3,89.8c-6.1,27.7,6.2,113.1,11.4,140.7c0,0.2,0.6,1.1,0.5,0.6
		c-5.7-30.5-17.1-116.7-9.8-147.2c6.7-27.9,15.1-55.6,23.7-83C87.4,396.5,86.9,395.7,86.8,395.8L86.8,395.8z"/>
	<path class="st0" d="M18.4,601.6c10.5-31.6,15.7-71.3,40.4-95.7c0.2-0.2-0.2-1.2-0.5-1c-19.2,11-36.6,26.3-49.7,44.2
		c-0.2,0.3,0.3,1.2,0.5,0.9c12.3-16.7,27.6-29,44.3-40.9c7.4-5.2,2.5-2-1.2,2.5c-3.8,4.7-6.6,10.4-9.3,15.8
		c-11.7,23.5-17.1,48.7-25.3,73.3C17.7,601.1,18.2,602,18.4,601.6L18.4,601.6z"/>
	<path class="st0" d="M5.1,500.8c7.5-0.7,15.7,2.3,23.1,3.6c10.1,1.7,20.2,2.4,30.5,1.6c0.5,0,0.2-0.8,0-1
		c-14.9-9.8-28.4-23.6-36.2-39.7c-0.3-0.6-1-0.3-0.7,0.3c4.4,9.1,10.4,17.1,17.5,24.4c5.2,5.3,11.8,9.2,16.9,14.4
		c3.5,3.5-1.3,1.1-4.9,1c-6.8-0.2-13.4-0.5-20.2-1.5c-8.3-1.2-17.8-4.9-26.2-4.1C4.3,499.8,4.6,500.9,5.1,500.8L5.1,500.8z"/>
	<path class="st0" d="M72.2,444.8c-6.8,34.4-10.6,69.9-8.9,105c0,0.2,0.5,5.1,0.4,4.6c-1.7-34.9,2.3-74.5,9-108.8
		C72.7,445.3,72.2,444.4,72.2,444.8L72.2,444.8z"/>
	<path class="st0" d="M58.6,505.2c-3-5.8-3.7-13.3-4.5-19.7c-2.5-19.5-1.7-39.3-0.5-58.8c0-0.2-0.5-1.1-0.5-0.8
		c-1.4,23.1-6,57.7,5.3,79.7C58.8,506.3,58.8,505.6,58.6,505.2L58.6,505.2z"/>
	<g>
		<path class="st0" d="M59.1,518.6c-1.3,1.4-3.4,1.7-5.2,1.5c-0.9-0.1-1.8-0.4-2.7-0.8c-0.8-0.4-1.6-0.9-2.3-1.5
			c1.8,0.4,3.4,1,5.1,1.1c0.8,0.1,1.7,0.1,2.5,0.1C57.3,519,58.2,518.9,59.1,518.6z"/>
		<path class="st0" d="M60.3,534.4c-3,1.9-6.6,2.7-10.1,3c-1.8,0-3.6,0-5.3-0.3c-1.8-0.3-3.5-0.8-5.1-1.5c3.5,0.6,6.9,1,10.3,0.7
			c1.7,0,3.4-0.3,5.1-0.6C56.9,535.4,58.6,535,60.3,534.4z"/>
		<path class="st0" d="M63.9,555.9c-5.1,2.1-10.6,3.1-16.2,3.5c-2.8,0.1-5.6,0-8.3-0.3c-2.8-0.4-5.4-1.1-8-2.1
			c2.7,0.6,5.4,1.1,8.1,1.3c2.7,0.2,5.4,0.3,8.2,0.1c2.7-0.1,5.4-0.4,8.1-0.8C58.5,557,61.2,556.5,63.9,555.9z"/>
		<path class="st0" d="M38.9,518.9c0.4,0.7,0.9,1.3,1.3,2c0.4,0.6,0.8,1.3,1.3,1.9c0.8,1.3,1.7,2.6,2.4,4.1c-0.7-0.5-1.3-1-1.8-1.6
			c-0.6-0.6-1-1.2-1.5-1.9C39.7,522.1,38.9,520.6,38.9,518.9z"/>
		<path class="st0" d="M34.3,484c-1.4,1.2-2.5,2.6-3.5,4.1c-0.9,1.5-1.7,3.2-2.2,4.9c-1.1,3.4-1.2,7.1-1.2,10.7L27,501
			c0-0.9-0.2-1.9-0.1-2.8c0-1.9,0.3-3.7,0.8-5.6C28.8,489.2,31,485.7,34.3,484z"/>
		<path class="st0" d="M20.9,535.1c1,1.4,2,2.7,3.1,4.1c1,1.3,2,2.7,3.1,4c2.1,2.7,4.4,5.1,6.5,7.8c-1.4-1-2.7-2.1-3.9-3.3
			c-1.2-1.2-2.3-2.5-3.5-3.8C24.1,541.1,22.1,538.3,20.9,535.1z"/>
		<path class="st0" d="M45.2,505.8c-0.4,0.6-0.6,1.3-0.7,1.9c-0.1,0.6,0,1.3,0.2,1.9c0.3,1.3,1,2.5,1.5,3.8
			c-0.6-0.4-1.1-0.9-1.6-1.5c-0.4-0.6-0.8-1.3-1-2c-0.2-0.7-0.2-1.6,0-2.3C44,506.7,44.5,506.1,45.2,505.8z"/>
		<path class="st0" d="M32.3,504.5c-0.1,1.5-0.1,3-0.1,4.4c0.1,1.5,0.2,2.9,0.5,4.4c0.2,1.4,0.6,2.9,1,4.2c0.4,1.4,1.1,2.7,1.7,4.1
			c-1-1.1-1.9-2.4-2.5-3.8c-0.6-1.4-1.1-2.9-1.3-4.4C31.1,510.5,31.2,507.4,32.3,504.5z"/>
		<path class="st0" d="M51.5,451.3c-2.5,1.5-4.9,3.1-7.2,4.9c-2.3,1.8-4.5,3.6-6.5,5.7c-2.1,2-3.8,4.3-5.5,6.6c-1.6,2.4-2.9,5-4,7.7
			c0.7-2.8,1.8-5.6,3.3-8.1c1.5-2.5,3.4-4.9,5.4-7C41.2,457,46.1,453.5,51.5,451.3z"/>
		<path class="st0" d="M52.9,477.3c-1.6,0.4-3,1-4.4,1.8c-1.3,0.8-2.6,1.8-3.5,3c-2,2.4-2.8,5.5-3.3,8.7c0-0.8-0.1-1.6-0.1-2.4
			c0.1-0.8,0.1-1.6,0.4-2.4c0.3-1.6,1.2-3.1,2.1-4.5C46.3,478.8,49.6,477.2,52.9,477.3z"/>
		<path class="st0" d="M49.2,498.4c-0.2,0.6-0.4,1.2-0.6,1.8c-0.2,0.6-0.5,1.1-0.6,1.7c-0.4,1.1-0.6,2.3-0.7,3.6
			c-0.4-0.6-0.6-1.2-0.6-1.9c0-0.7,0.1-1.4,0.3-2C47.4,500.3,48,499.2,49.2,498.4z"/>
		<path class="st0" d="M67.1,464.4c-1.3,0-2.6,0-3.8,0.1c-1.3,0.1-2.5,0.1-3.7,0.4c-2.5,0.3-4.9,0.9-7.4,1.5
			c1.1-0.7,2.3-1.3,3.5-1.7c1.2-0.4,2.5-0.7,3.8-0.9C62,463.6,64.7,463.6,67.1,464.4z"/>
		<path class="st0" d="M62.1,484.5c-0.8,0-1.6,0.2-2.3,0.3c-0.7,0.2-1.5,0.3-2.2,0.6c-1.4,0.4-2.8,1-4.4,1.5
			c0.5-0.6,1.2-1.1,1.8-1.5c0.7-0.4,1.4-0.7,2.2-1C58.9,483.9,60.7,483.7,62.1,484.5z"/>
		<path class="st0" d="M63.8,513c-1.4-0.9-2.4-2.1-3.4-3.3c-0.9-1.3-1.7-2.7-1.9-4.3l2.8,3.7l1.3,1.9C63,511.6,63.4,512.3,63.8,513z
			"/>
		<path class="st0" d="M64.6,501.6c-1,1.1-2.1,1.9-3.3,2.7c-1.2,0.7-2.5,1.4-3.9,1.8c1-1.1,2.1-1.9,3.3-2.7
			C62,502.6,63.2,501.9,64.6,501.6z"/>
	</g>
	<path class="st0" d="M47.5,324.2c25.5-17.4,49.1-37.1,70.4-59.5c0.3-0.4-0.9-1-1.1-0.7c-21.3,22.4-44.9,42-70.4,59.5
		C46,323.7,47.2,324.4,47.5,324.2L47.5,324.2z"/>
	<path class="st0" d="M109.2,233.3c-1,10.9,2.3,22,7.6,31.4c0.2,0.3,0.7,0.6,1,0.2c9.7-16.1,21-32,34.5-45.1c0.5-0.5-0.4-1.5-1-1
		c-11.9,11.5-21.7,25.1-30.7,39c-0.8,1.3-2,4.3-3.3,5.1c-1.9,1.2-3.2-5.9-4.1-8.4c-2.3-6.5-3.5-13.9-2.9-20.8
		C110.5,233,109.3,232.4,109.2,233.3L109.2,233.3z"/>
	<path class="st0" d="M55.3,275.2c22.8,3,40.6-3.1,62.2-10.1c0.7-0.2,0.5-1.3-0.3-1.4c-15.2-0.9-37.8-4.2-46.9-18.7
		c-0.5-0.8-1.6-0.1-1.1,0.7c5.2,8.3,16,13.1,24.9,15.8c4.8,1.4,9.7,1.6,14.5,2.9c3.7,1,5.5-0.7,1.1,1.6c-3.3,1.8-8,2.3-11.7,3.1
		c-15.6,3.6-27,6.7-42.8,4.6C54.4,273.7,54.6,275.1,55.3,275.2L55.3,275.2z"/>
	<path class="st0" d="M208.9,218.9c-27.9,18.1-60.2,39.5-93.3,45.5c-1.3,0.2-1,1.3,0.2,1.1c33.5-6.1,66.1-27.6,94.3-45.9
		C211.3,218.8,209.6,218.4,208.9,218.9L208.9,218.9z"/>
	<path class="st0" d="M102.6,507.5c0-16.8,0-210.7,0-227.5c0-0.2-0.8-0.1-0.8,0.2c0,16.8,0,210.7,0,227.5
		C101.7,507.9,102.6,507.8,102.6,507.5L102.6,507.5z"/>
	<path class="st0" d="M103.8,268.5c1.3,1.1,1.7,2.8,1.7,4.4c0,0.8-0.1,1.6-0.3,2.4c-0.2,0.8-0.5,1.5-0.9,2.2
		c0.2-1.6,0.4-3.1,0.3-4.6c0-0.8-0.1-1.5-0.2-2.3C104.3,269.9,104.1,269.2,103.8,268.5z"/>
	<path class="st0" d="M86.5,272.1c2.5,2.5,3.7,6.1,4.1,9.6c0.1,1.8,0.1,3.6-0.3,5.3c-0.1,0.9-0.5,1.7-0.7,2.5
		c-0.3,0.8-0.7,1.6-1,2.4c0.9-3.4,1.5-6.8,1.2-10.2c-0.1-1.7-0.5-3.4-1-5C88.2,275.1,87.5,273.6,86.5,272.1z"/>
	<path class="st0" d="M70.1,273.7c1.1,6.1,1.3,12.4,0.9,18.6c-0.3,3.1-0.6,6.2-1.4,9.2c-0.8,3-1.9,6-3.5,8.6
		c1.4-2.8,2.2-5.8,2.9-8.8c0.7-3,1-6.1,1.2-9.2c0.3-3.1,0.3-6.2,0.3-9.3C70.4,279.9,70.3,276.8,70.1,273.7z"/>
	<path class="st0" d="M95.2,270.5c0.5-0.6,1-1.3,1.5-1.9c0.5-0.6,0.9-1.3,1.2-2c0.8-1.4,1.3-2.8,1.8-4.4c0.1,0.8,0.1,1.7-0.1,2.5
		c-0.2,0.8-0.5,1.6-0.9,2.3C97.8,268.4,96.7,269.8,95.2,270.5z"/>
	<path class="st0" d="M84.2,256.8c1,3,0.9,6.4-0.2,9.5c-0.6,1.5-1.4,3-2.6,4.1c-1.1,1.2-2.5,2.1-3.9,2.8c1.3-1,2.5-2,3.4-3.2
		c1-1.2,1.8-2.5,2.3-4c0.6-1.4,0.9-3,1-4.5C84.4,260,84.4,258.4,84.2,256.8z"/>
	<path class="st0" d="M107.2,263.5c0.7-0.3,1.4-0.7,2-1c0.6-0.4,1.3-0.8,1.8-1.3c0.6-0.4,1.1-1,1.6-1.5c0.5-0.6,0.9-1.2,1.3-1.9
		c-0.1,0.8-0.3,1.6-0.8,2.2c-0.4,0.7-1,1.3-1.6,1.8C110.4,262.9,108.8,263.5,107.2,263.5z"/>
	<path class="st0" d="M110.9,247.8c-0.8,2-2.2,3.6-3.7,5.1c-1.6,1.4-3.4,2.6-5.3,3.5c-1.9,0.9-3.9,1.6-6,2.2l-3.1,0.6l-3.1,0.3
		c2.1-0.5,4.1-1,6.1-1.6c2-0.7,3.9-1.3,5.8-2.3c1.9-0.9,3.6-2,5.3-3.3C108.3,251.1,109.8,249.6,110.9,247.8z"/>
	<path class="st0" d="M112.4,253.7c0.9,0.5,1.8,0.9,2.7,1.1c0.9,0.3,1.9,0.4,2.9,0.4c1.9,0.1,3.8-0.4,5.8-0.9
		c-0.8,0.6-1.7,1.1-2.7,1.4c-1,0.3-2,0.4-3.1,0.4C115.9,256,113.8,255.2,112.4,253.7z"/>
	<path class="st0" d="M120,260.1c-0.6,0.6-1.4,0.9-2.3,1c-0.4,0-0.8,0.1-1.3,0c-0.4-0.1-0.8-0.2-1.2-0.4c0.8-0.2,1.6-0.2,2.4-0.4
		c0.4,0,0.8-0.1,1.2-0.1C119.2,260.1,119.6,260.1,120,260.1z"/>
	<path class="st0" d="M109.7,241.8c1.7,0.7,3.4,1.2,5.1,1.6c1.7,0.4,3.5,0.7,5.3,0.8c3.5,0.4,7.1,0,10.7-0.5c-1.7,0.6-3.5,1-5.3,1.2
		c-1.8,0.3-3.6,0.2-5.5,0.1C116.4,244.7,112.8,243.7,109.7,241.8z"/>
	<path class="st0" d="M121.7,257.4l1.3,1.3c0.4,0.4,0.8,0.9,1.3,1.2c0.8,0.8,1.8,1.5,2.8,2.2c-0.6-0.1-1.3-0.2-1.8-0.5
		c-0.6-0.3-1.1-0.7-1.6-1.1C122.8,259.7,122,258.7,121.7,257.4z"/>
	<path class="st0" d="M128.2,247.8c1.2,1.2,2.5,2.3,3.9,3.2c1.4,1,2.8,1.8,4.4,2.5c1.5,0.7,3.1,1.2,4.7,1.6c1.6,0.4,3.3,0.5,5,0.6
		c-1.7,0.2-3.4,0.3-5.1,0c-1.7-0.2-3.4-0.8-5-1.4C133,252.8,130.2,250.6,128.2,247.8z"/>
	<path class="st0" d="M137.2,235.6c2.2,1.2,4.3,2.4,6.5,3.5c2.2,1.1,4.4,2.3,6.6,3.3c2.2,1.1,4.5,2,6.8,2.9c2.3,0.8,4.6,1.6,7.1,1.8
		c-2.5,0.1-5-0.5-7.3-1.2c-2.4-0.7-4.7-1.7-6.9-2.7C145.5,241,141.2,238.6,137.2,235.6z"/>
	<g>
		<path class="st1" d="M192.6,176.5c-0.2,0-0.3,0.2-0.1,0.3c7.6,1.9,15.4,3,23.3,3.3c0.2,0,0.2-0.3,0-0.3
			C208,179.2,200.3,178.2,192.6,176.5z"/>
		<path class="st1" d="M217.9,123.1c-1.3,5.3-1.7,10.8-3.4,16c-1.7,5.2-4.9,9.6-9.1,13.1c-12.6,7.9-24.7,16.9-36,26.5
			c-0.1,0.1,0,0.1,0.1,0.1c17.6-14.6,36.5-26.9,56.5-38c0.2-0.1,0-0.3-0.1-0.2c-6.2,3.1-12.2,6.6-18.1,10.2c3.6-3.4,6-7.6,7.5-12.1
			c5.3-4,8.5-10.4,14.2-13.8c0.1-0.1,0-0.3-0.1-0.2c-5.7,2.9-9.3,9.1-13.9,13.4c1.5-4.7,2.3-9.7,3-14.8
			C218.6,122.8,218,122.7,217.9,123.1z"/>
		<path class="st1" d="M387.5,207.6c-6.2,2.4-12.3,4.8-18.6,6.8c-3.4-2.1-6.9-4.1-10.3-6c1.8-0.1,3.5-0.2,5.3-0.4
			c0.4,0,0.5-0.7,0-0.7c-12.2-0.4-24.4,0.4-36.6,0.9c9.1-3.8,18.1-7.9,26.4-12.7c0.5-0.3,0.1-1-0.4-0.8c-15,6.6-29.6,14-44.9,19.9
			c-3.5,1.3-7,2.6-10.6,3.9c11.6-12.8,23.6-25,35.9-37c0.1,0.1,0.1,0.1,0.3,0.1c9.8-2.2,19.9-4.5,29.5-7.7c0.4-0.1,0.2-0.7-0.2-0.6
			c-3.8,0.7-7.5,1.6-11.3,2.6c1.6-7.2,3.9-14.1,6-21.2c0.1-0.3-0.4-0.5-0.5-0.2c-2.9,6.9-4.8,14.3-6.3,21.6
			c-5.7,1.5-11.3,3.1-16.8,4.8c2.1-2.1,4.2-4.1,6.4-6.2c0.3-0.3-0.1-0.7-0.4-0.4c-5.8,4.8-11.4,9.9-16.9,15.2
			c2.3-6.7,5.1-13.1,8-19.5c0.2-0.3-0.3-0.6-0.5-0.3c-1.4,2.6-2.7,5.3-3.9,8c-1.8-11.7-2.4-23.4-2.7-35.3c0-0.3-0.4-0.3-0.4,0
			c-0.5,12.1,0.7,24.3,2.8,36.2c-1.6,3.9-3,7.9-4.3,11.9c-9.4,9.1-18.2,18.7-26.4,28.7c0,0,0,0,0,0.1c-8.9,3.1-17.9,5.9-26.9,8.5
			c5-5,10-10,14.9-15.1l0.7-5.2c-10.8,11.1-21.4,21.5-32,31.4c0.7-29.4,7.2-63.7,16.6-95.6c9.4-8.2,18.7-17.7,27.2-27.5
			c11.2-5.1,22.3-10.7,33-16.7c9.5-1.8,19-3.8,28.4-6c-0.1,0.2,0,0.5,0.3,0.6c3.8,0.9,7.6,1.9,11.5,2.4c0.4,0.1,0.5-0.6,0.1-0.7
			c-3.5-1.1-7.2-1.8-10.7-2.5c4-1,8-2,12-3c0.4-0.1,0.2-0.7-0.2-0.6c-13.3,2.4-26.7,5.6-39.9,9c0.3-0.2,0.6-0.3,0.9-0.5
			c12.8-7.1,25.7-14.5,37.5-23.2c0.3-0.2,0-0.8-0.3-0.6c-8.2,5-16.2,10.1-24.4,15c4.6-6.2,9.1-12.6,13.2-19.2
			c0.2-0.3-0.2-0.5-0.4-0.2c-5,6.5-9.7,13.4-14.2,20.3c-3.9,2.4-7.8,4.7-11.8,6.9c-11,6.1-22.2,11.8-33.5,17.3
			c6.9-8,13.3-16.1,19-23.9l2-5.6c-13.4,18.3-29.3,35.3-47.3,50.7c4.8-15.2,10.1-29.6,15.7-42.6l-3.2,5.7c-2.7,6.3-5.4,12.9-8,19.7
			c-0.9-10-1.8-20.1-3-30.2c2.4-5.8,4.3-12,6-18.1c3.5-2.5,7-5.7,10-8.7c0.2-0.3-0.1-0.7-0.4-0.5c-3.2,2.4-6.4,5.2-9.2,8.1
			c0.5-1.9,1-3.8,1.6-5.6c0.1-0.3-0.3-0.4-0.4-0.1c-2.7,7.6-5.7,15.5-7.7,23.4c-0.8-7.2-1.8-14.3-2.9-21.4c-0.1-0.4-0.7-0.3-0.7,0.1
			c1.3,18.1,3.8,36.3,6.3,54.3c-3.1,8.3-6.1,16.9-8.9,25.8l-0.1,0.2c0,0,0,0,0,0c-3.7,11.9-7.1,24.2-9.8,36.5
			c-10.6-35-18.9-68.8-21.9-105.4l-0.3,3.4c1,12.4,2.5,24.7,4.4,37c-6.1-10.8-12-21.8-17.6-32.9c-1.4-2.8-2.7-5.5-4-8.3
			c0.1,0,0.1-0.1,0.1-0.2c-0.3-7.1-0.6-14.2-0.4-21.3c0-0.3-0.4-0.3-0.4,0c-0.6,6.8-0.7,13.6,0.2,20.4c-4-8.5-7.7-17.1-11.7-25.7
			c-0.2-0.3-0.7-0.1-0.6,0.3c2.1,5.7,4.5,11.4,6.9,17c-5.3-3.8-11.6-6.9-17.4-9.9c-0.3-0.2-0.6,0.3-0.3,0.5
			c5.6,3.6,11.4,7.4,17.5,10c0.2,0.1,0.3,0,0.4-0.1c7.9,17.9,17.4,35.2,27.4,51.8c0,0.1,0.1,0.1,0.2,0.1c3.7,23.9,9.1,47.5,16,70.6
			c-3.8,18.3-6.1,36.5-6.6,53.3c-9.1,8.4-18.1,16.4-27.3,24.2c-1.1,0.9-4.5,4.9-5.6,5.8c-1.2,1-6.1-72.3-7.3-71.3
			c-0.9,0.8,4.1,72.9,3.2,73.6c-24.4,20.3-49.7,39.3-77.4,59.8c1.9-3.7,3.8-7.4,5.6-11.1c0,0,0,0,0,0l0-0.1
			c9.4-19,17.7-38.4,26.1-58.1l0.5-1.2c3.4-8,6.8-16.1,10.3-24.3l-1.3-3.6c-1.5,3.5-3,7-4.4,10.3l-0.3,0.6c0,0,0,0,0,0.1
			c-9.4,21.7-17.7,39.7-27.5,58.2c-0.9-11.9-2.1-25.6-3.2-39.8c5.4-18.3,20.5-75.7,22.8-85c16.7-1.4,33.4-4.1,49.5-8.4
			c0.2,0,0.1-0.3-0.1-0.3c-3.5,0.8-7.1,1.6-10.6,2.3c5.3-3.4,10.6-6.8,15.8-10.3c0.1-0.1,0-0.3-0.1-0.2c-5.5,3.4-10.9,7-16.2,10.6
			c0,0,0,0,0,0.1c-12.6,2.6-25.3,4.5-38.1,5.7c0.8-3.3,1.6-6.7,2.4-10c3.2-1.6,6.5-3.2,9.7-4.8l-6.3,1.5c-1,0.5-2,0.9-3,1.4
			c4.7-19.6,9.2-39.2,13.4-58.7c1-0.6,1.9-1.2,2.9-1.8c0,0,0.1,0.1,0.1,0c4.7-0.6,9.5-1.5,13.9-3.3c0.3-0.1,0.2-0.6-0.2-0.5
			c-4.2,1.2-8.4,2.3-12.7,3c3.2-2.1,6.3-4.4,9.2-6.8c0.2-0.2-0.1-0.6-0.3-0.4c-4.1,2.9-8.2,5.8-12.5,8.4c3.4-15.8,6.7-31.5,9.9-46.9
			l-1.5-2.2c-3.5,17.1-7.1,34-10.8,50.7c0,0-0.1,0-0.1,0.1c-4.7,2.7-9.6,4.9-14.5,7.2c2.3-3.4,4.3-7.1,6-10.8
			c0.1-0.3-0.3-0.5-0.4-0.2c-2.2,4.1-4.6,8-7.1,11.8c-0.1,0-0.2,0.1-0.2,0.1c-0.1,0-0.1,0.2,0,0.2c-0.9,1.4-1.9,2.7-2.9,4
			c-6.8-34.7-11.5-77-9.8-103.8l-1.6,4.9c-1.2,19.2,0.8,46.3,4.6,73c-4.3-8.3-10.2-19.8-15.9-31.4c-0.9-10-4.1-19.6-5.1-29.6
			c0-0.3-0.4-0.3-0.4,0c0.6,9.3,3.3,18.3,4.5,27.5c-6-12.3-11.6-24.5-14.4-32.5c3,10.5,10.9,27.8,18.6,43.7
			c-4.7-6-10.1-11.5-14.7-17.6c-5.1-6.7-9.7-13.8-14-21.1c-0.1-0.2-0.4,0-0.3,0.2c4.2,7.2,8.8,14.1,13.7,20.8
			c-10.7-4.1-20.5-9.5-29.5-16.5c-0.3-0.2-0.6,0.2-0.4,0.4c9.2,7.2,19.4,13,30.4,16.9c0,0.1,0.1,0.1,0.1,0.2
			c4.7,6.4,9.7,13.4,15.6,18.6c4.6,9.5,9.1,18.3,12.4,24.6c1.2,8.3,2.6,16.4,4.1,24.3c-2.8,3.4-5.8,6.6-9.2,9.7
			c0.6-2.5,1.2-5,1.6-7.5c0.1-0.3-0.4-0.5-0.5-0.1c-1,3.9-2.1,7.8-3.3,11.7c-1.7-7.6-4-15.1-6.9-22.4c-0.1-0.2-0.4-0.1-0.3,0.1
			c2.6,7.7,4.9,15.4,6.9,23.2c-1.9,6.4-4,12.7-6.6,18.8c-5.8,4-11.7,7.8-18,11.3c2-3,4-6,6-9l-1.2-3.3c-3.7,5.5-7.4,10.8-11,16
			c1.8-27.7,4.4-54,10.6-81.1l-2.4,5.3c-2.7,11.8-4.9,23.2-6.7,34.6c-6-9.4-11.3-19.2-15.9-29.4c0.1,0,0.2-0.1,0.2-0.2
			c-0.2-3.8-0.3-7.5-0.3-11.3c0.1,0,0.1,0,0.2-0.1c2.4-3.1,5.3-5.9,7.9-8.9c0.1-0.1-0.1-0.4-0.2-0.2c-2.6,2.7-5.1,5.6-7.9,8.2
			c0-2.2,0.1-4.3,0.3-6.5c0-0.2-0.3-0.2-0.3,0c-0.7,5.9-0.9,12.1-0.3,18c-3.2-7.1-6.1-14.2-8.6-21.6c-0.1-0.2-0.4-0.1-0.4,0.1
			c3.6,11.1,8,21.9,13.2,32.3c-7.7-6.8-14.7-14.2-22.2-21.2c-0.2-0.1-0.4,0.1-0.2,0.2c7.8,7.6,15.2,15.6,23.3,22.8
			c3.3,6.5,7,12.8,11,19c-1.4,9.3-2.6,18.6-3.6,28.1c0,0,0,0,0,0c-4.5,1.6-9,3.1-13.5,4.5c2.1-2.1,4-4.4,5.8-6.7
			c0.1-0.2-0.1-0.4-0.3-0.2c-4.8,6-10.3,10.6-16.6,14.9c2.6-4.6,5-9.3,7.1-14.3c0.1-0.1-0.2-0.2-0.2-0.1
			c-3.4,8.1-7.8,15.6-12.6,22.9c0.8-9.5,1.5-18.9,1.2-28.4c0-0.1-0.2-0.1-0.2,0c0.2,9.7-0.7,19.4-1.5,29.1
			c-8.7,13-18.5,25.4-26,39.1c-1.2-20.4-1.9-42.2-0.3-61.5c2.3-3.8,4.6-7.7,6.8-11.6c4.3-3.5,8.1-7.4,13-10.2c0.2-0.1,0-0.4-0.2-0.3
			c-4.5,2.3-8.6,5.9-12.2,9.5c2.1-3.8,4.2-7.7,6.2-11.6c0-0.1-0.1-0.2-0.1-0.1c-4.3,7.9-8.7,15.6-13.4,23.3
			c0.3-3.9,0.8-7.7,1.3-11.3l-0.4-1.1c-0.7,4.4-1.2,8.9-1.6,13.5c0,0,0,0,0,0c0,0.1,0,0.1,0,0.2c-0.8,8.2-1.2,16.6-1.4,25
			c-3.4-13-7.1-25.9-10.2-39c0,0,0.1-0.1,0.1-0.1c1.2-6.3,2.8-12.5,4.6-18.6c0.1-0.2-0.2-0.3-0.3-0.1c-2.1,5.6-3.6,11.3-4.8,17.2
			c-1.4-6-2.6-12.1-3.6-18.2c0-0.3-0.5-0.2-0.5,0.1c1.2,8.1,2.9,16.2,4.8,24.2c-3.4-5.7-6.8-11.4-9.8-17.2c0,0-0.1,0-0.1,0
			c3.3,6.6,6.5,13.1,10.3,19.4c0,0,0.1,0,0.1,0.1c2.8,11.2,6.1,22.4,9.3,33.4c-0.1,6.7-0.1,13.3,0,19.8c-3-4-5.9-8.1-8.5-12.3
			c-1.9-3.1-3.6-7.4-6.5-9.8c-0.6-0.5-1.4-1-2.2-1.4c0,0,0-0.1,0-0.1c-1.1-3.9-1.9-7.9-2.7-11.9c0-0.2-0.3-0.1-0.3,0
			c0.2,1.3,0.4,2.7,0.7,4c-0.5-0.7-1.1-1.3-1.7-1.9c-0.7-0.8-1.4-1.7-2.2-2.4c-0.2-0.1-0.3,0.1-0.2,0.2c0.6,0.8,1.4,1.6,2.1,2.3
			c0.7,0.8,1.4,1.6,2.2,2.2c0,0,0,0,0,0c0.5,2.5,1.1,4.9,1.8,7.3c-0.9-0.4-1.7-0.9-2.5-1.3c-3.5-2-6.9-4.2-10.2-6.6
			c-0.1-0.1-0.3,0.1-0.2,0.3c1.2,1,2.4,1.9,3.7,2.7c-4.2-1.6-8.7-2.6-13.1-3.2c-0.1,0-0.1,0.2,0,0.2c4.9,1,9.5,2.3,14.2,3.8
			c1.4,0.9,2.8,1.7,4.2,2.5c2,1.2,4.5,2.1,6.3,3.5c3.2,2.6,5.1,7.5,7.2,10.9c2.5,4,5.1,7.9,8.1,11.6c0.3,20.3,1.4,39.2,1.5,53.1
			c-0.1,0.2-0.3,0.4-0.4,0.7L53.3,272c0.1-0.2,0.2-0.3,0.3-0.5c-0.2,3.5-0.6,6.4-1.2,8.4c-1.5,8-3.8,16-6.4,24
			c-1.3-1.8-4.9-8.5-9.8-18.2l-2.8-7.9c-0.7-0.8-1.5-1.5-2.3-2.3c-1.5-3.1-3.2-6.4-4.8-9.7c5.3-4.4,10-10,13.4-15.8
			c0.2-0.4-0.3-0.6-0.5-0.3c-4,5.7-8.4,10.7-13.3,15.3c-0.4-0.7-0.7-1.4-1.1-2.2c0.9-2,1.7-4.1,2.5-6.2c0.1-0.3-0.4-0.5-0.5-0.2
			c-0.8,1.8-1.6,3.6-2.5,5.4c-4.8-9.8-10-20.3-15-30.7c-2.1-25-6.9-53.7-8.4-77.8l-2.4-6.7c1.4,23.6,2.8,47.3,4.2,70.9
			c-12.2-25.3-22.3-46.2-22.3-46.2c0.8,8.2,2,12.9,2,12.9l13.7,29.1c-16.3-15-30.8-31.6-44.2-49.2c-0.2-0.3-0.7,0-0.5,0.3
			c7.8,11.5,16.7,22.3,26.3,32.5c-6-3.6-12.2-7.1-18.5-10.4c0,0,0,0,0,0c-3.7-6.3-8-12.4-12.9-18c-0.1-0.1-0.3,0-0.2,0.2
			c4.3,5.7,8.5,11.4,12.3,17.4c-4.9-2.6-9.9-5.2-14.8-7.8c-0.2-0.1-0.4,0.2-0.2,0.3c11.7,6.8,23.5,13.8,35.6,19.9c0,0,0.1,0,0.1,0
			c5.7,5.9,11.6,11.5,17.7,16.9l23.7,50.2c-29.5-27.9-70.2-62.1-95.8-87.8l1.3,3.5C-49.2,206.1-9.6,241.7,20,270
			c-2.6,4.5-5.4,8.8-8.6,12.9c0-6.6,0.1-13.1,0.3-19.7c0-0.4-0.5-0.4-0.6,0c-1.3,15.4-1.3,30.9-0.4,46.5
			c-10.1-21.2-19.5-42.5-28.2-64.3c-0.1-0.3-0.5-0.2-0.4,0.1c2.9,8.1,6,16.2,9.3,24.2c0,0,0,0,0,0c-3.4-1.7-5.4-5.3-7.5-8.3
			c-2-2.8-4-5.6-6-8.5c-4.2-5.8-8.3-11.8-12.6-17.4c-0.2-0.3-0.7,0-0.5,0.3c4.7,7.1,9.7,14,14.6,20.9c2.4,3.3,4.6,6.8,7.2,10
			c1.3,1.7,2.6,2.9,4.7,3.5c0.2,0,0.3-0.1,0.3-0.2c5.8,14,12.2,27.7,19.2,41c1.2,18.4,3.8,36.8,7.4,54.8c0.1,0.4,0.7,0.2,0.6-0.2
			c-5.3-27-7.3-54.1-7.4-81.5c3.5-4.1,6.6-8.6,9.4-13.3c1.5,1.4,2.9,2.8,4.3,4.2l17.8,37.7c-15.6,42.1-42,84.6-51,126.2l4.8,13.4
			C8.1,399.9,47,345.9,57.2,293.3c1.4-4.8,1.2-15,0.4-28.2c12.9-20.7,26-41.2,39.4-61.6c15-7.4,30-14.8,45.1-22.1
			c6-0.1,12-0.4,18-0.9c-2.1,8.2-4.3,16.4-6.5,24.6c-2.8-3.3-5.4-6.8-8-10.5c-0.1-0.2-0.5,0-0.4,0.2c1.3,2.1,2.6,4.2,4.1,6.2
			c-3.2-0.6-6.2-1.4-9.4-2.1c-0.4-0.1-0.7,0.5-0.3,0.7c3.2,1.4,6.9,2,10.3,2.3c1.1,1.4,2.2,2.8,3.3,4.2c-4.4,16-8.9,32.1-13.7,48.3
			c-1.6-21.8-2.6-43.8-1.7-60.7l-1.9,1.5c-1.2,23.4,3.1,110.6,3.5,117.6c-5.8,10.6-12.2,21.6-19.6,33.7
			c-14.1,22.9-31.8,41.9-50.4,60.1c1.4-17,2.6-34,4.9-51c16.9-19.4,34-38.7,50.2-58.6c0.2-0.3-0.2-0.7-0.4-0.4
			c-8.6,9.6-17.1,19.4-25.4,29.2c3.8-9.4,6.7-19.2,8.6-29.2c2.7-2.6,5.4-5.2,7.9-8c0.2-0.2-0.1-0.5-0.3-0.3c-2.6,2.3-5,4.9-7.4,7.4
			c0.8-4.6,1.5-9.3,1.8-13.9c0-0.3-0.4-0.3-0.5-0.1c-2.2,15.5-5.5,30.4-10.9,45c-7.8,9.2-15.6,18.5-23.4,27.7
			c0.2-1.1,0.3-2.2,0.5-3.3c3-20.4,5.3-20.9,9.9-40.9c0.1-0.4-0.5-0.6-0.6-0.2c-3.1,11.1-9,33.3-10.3,42.4
			c-2.6,18.1-5,36.7-5.4,55.1c-10.8,10.6-22,21-32.9,31.8l-0.5,0.4c0.1,0,0.1,0,0.2,0c-7.6,7.5-33.9,26.2-41.1,34.4v19.7
			c14.6-16.6,47.6-45.4,63.2-60.3c15.5-4.6,30.4-9.5,45.1-14.8c36.5,4,73.1,8,109.7,11.2c0.3,0,0.3-0.4,0-0.4
			c-5.8-0.7-11.6-1.3-17.4-2c9.9-3.5,19.9-7.1,29.6-11.2c0.3-0.1,0.1-0.7-0.2-0.6c-10.4,3.5-20.7,7.5-30.8,11.6
			c-29.7-3.3-59.5-6.3-89.3-9.1c12.7-4.6,25.3-9.6,38.1-15c21.2,0.3,42.5-0.5,63.6-2.6l-6.8-0.8c-6.6,0.6-12.1,0.9-17.1,1
			c8.8-4.3,17.5-9.1,26-14.2c3.5-0.7,7.1-1.5,10.6-2.5c0.1,0.1,0.1,0.1,0.2,0.1c4.6-0.1,9,0,13.6,0.1c0.3,0,0.4-0.5,0.1-0.6
			c-3.5-0.7-7.4-0.8-11-0.5c2.4-0.8,4.9-1.6,7.2-2.5c0.3-0.1,0.2-0.6-0.1-0.5c-6.2,1.8-12.5,3.6-18.7,5.3c3.2-1.9,6.3-3.9,9.3-5.9
			c0.4-0.2,0-0.8-0.3-0.6c-13,7.1-25.8,14.5-38.7,21.8c-9.9,0.1-18.2-0.5-30-1c7.9-3.4,15.8-7,23.9-10.8l20.1-13.1
			c-26.1,12.3-52.9,23.2-80.1,32.9c18.1-20.2,37.5-39.1,57.4-57.5c7.3-0.9,14.6-1.6,21.9-2.6c0,0.1,0,0.2,0.2,0.3
			c5.3,1.5,10.5,3,15.8,4.2c0.3,0.1,0.4-0.3,0.1-0.4c-5-1.6-10.1-2.9-15.1-4.2c2.6-0.3,5.1-0.7,7.7-1.1c0.3-0.1,0.2-0.6-0.1-0.6
			c-10,0.9-20,2.5-30,3.9c5-4.6,10.1-9.3,15.2-13.8c0.3-0.3-0.1-0.7-0.4-0.4c-13.9,11.3-27.2,23.5-39.9,36.2
			c8.1-14.1,17.3-27.4,26.2-41c0.2-0.4-0.3-0.8-0.6-0.5c-10.5,13.1-19.3,28.1-27.1,42.9c-11.2,11.3-22,23.1-32.5,35
			c-14.9,5.3-30,10.1-45.2,14.6c18.8-18.4,36.7-37.5,50.9-60.6c1.9-3.1,3.7-6.2,5.5-9.3c17-12.7,33.6-25.9,50-39.4
			c10.4-1.9,20.9-3.8,31.3-5.7c0,0.1,0.1,0.2,0.1,0.2c12.9,8.3,25.5,16.9,37.9,25.8c0,0-0.1,0-0.2,0c-0.4,0.1-0.3,0.8,0.2,0.7
			c0.2-0.1,0.5-0.1,0.7-0.2c8.4,6,16.7,12.1,25,18.3c0.3,0.2,0.7-0.3,0.4-0.5c-7.7-6.3-15.7-12.3-23.8-18.2
			c16.3-4.3,32.6-6.9,49.3-9.1c0.4,0,0.4-0.6,0-0.6c-16.8,0.5-34.1,4.1-50.1,9.1c-12.6-9-25.5-17.6-38.7-25.7
			c4.8-0.9,9.5-1.7,14.3-2.6c8.4,1.5,16.8,2.6,25.3,3.5c1.9,5.5,5.2,11,9.3,15c0.4,0.4,0.8-0.2,0.5-0.5c-3.6-4.6-6.4-9.2-8.8-14.4
			c2.6,0.2,5.1,0.5,7.7,0.7c12.8,1,25.8,1.7,38.6,1c0.4,0,0.4-0.7,0-0.7c-9.2-0.2-18.4-0.3-27.5-0.7c9.7-2.3,19.6-4.6,29.3-7.2
			c3.6,0.6,7.3,1.3,10.9,1.5c0.4,0,0.4-0.6,0.1-0.6c-3-0.7-6.1-1-9.2-1.4c2.9-0.8,5.8-1.6,8.7-2.5c0.5-0.1,0.3-0.8-0.2-0.7
			c-14,3-27.9,7-41.7,10.9c-2.7-0.1-5.5-0.3-8.2-0.5c-11.1-0.8-22.1-2.2-33.1-3.6c20.6-3.7,41.1-7.5,61.6-11.6
			c0.3-0.1,0.2-0.5-0.1-0.5c-9.6,1.5-19.1,3.1-28.7,4.8c7.3-5.4,14-11.6,21.4-16.9c1.4-1,2.8-2,4.2-2.9c0.1,0,0.3,0,0.4-0.2
			c0,0,0-0.1,0-0.1c3.2-2.1,6.4-4.2,9.6-6.3c7.6-0.5,15.1-1.1,22.7-1.8c4.5,3.8,9.4,7,14.8,9.3c0.2,0.1,0.5-0.2,0.2-0.4
			c-4.8-2.7-9.4-5.7-13.7-9.1c5.2-0.5,10.4-1.1,15.6-1.9c0.3,0,0.2-0.6-0.1-0.5c-12.7,0.6-25.5,1.9-38.1,3.5
			c2.8-1.7,5.5-3.5,8.2-5.2c0.4-0.3,0.1-0.9-0.4-0.7c-6.3,3.2-12.3,7.2-18.2,11.3c2.1-5,4.4-10,6.7-15c14.4-4.4,28.5-8.6,42.1-12.2
			l-0.7-2.1c-13.2,3.5-26.4,7.1-39.6,10.6c2.2-4.6,4.3-9.2,6.5-13.8c0.2-0.3-0.3-0.6-0.5-0.3c-2.7,4.7-5.2,9.6-7.4,14.5
			c-23.9,6.4-47.8,12.8-71.7,19.2c17.6-15.8,34.8-32.1,51.5-48.9c14.2-3.9,28.2-8.4,42-13.7c5.1-2,10.3-4,15.5-6.1
			c10.5-0.1,21,0,31.5-0.5c3.4,2.3,6.8,4.6,10.4,6.8c0,0.2,0.2,0.5,0.5,0.4c0,0,0,0,0.1,0c4.3,2.7,8.8,5.3,13.2,7.7
			c0.5,0.3,0.9-0.4,0.4-0.8c-3.7-2.6-7.6-5.1-11.5-7.6c6.1-1.7,12.2-4,17.8-6.9C388,208,387.8,207.5,387.5,207.6z M162.9,169.4
			c-3.8,1.8-7.4,3.5-10.9,5c3.4-7.8,6.8-15.7,9.8-23.6c1,3.8,2,7.4,3,10.8C164.3,164.2,163.6,166.8,162.9,169.4z M162.3,117.4
			c5-1.7,10-4,14.8-6.7c-3.4,15.2-7,30.3-10.7,45.4c-2.8-9.4-5.6-20.8-8.1-33.3C159.6,121,161,119.2,162.3,117.4z M146.7,134.4
			C146.8,134.4,146.8,134.4,146.7,134.4c3.4-2.8,6.5-5.9,9.4-9.2c1.7,8.8,3.6,17.1,5.5,24.6c-1.8,3.8-3.4,7.7-5,11.7
			c-1.1-4.9-1.9-9.7-2.3-14.6c1.1-0.9,2.2-1.9,3.3-2.9c0.3-0.3-0.1-0.7-0.4-0.4c-1,0.8-1.9,1.5-2.9,2.3c-0.4-4.3-0.6-8.6-0.7-12.9
			c0-0.2-0.3-0.2-0.4,0c-0.2,3.1-0.2,6.1-0.1,9.2c-0.7-2.5-1.5-5.1-2.6-7.5c-0.1-0.3-0.6-0.1-0.5,0.2c0.7,2.8,1.9,5.5,3,8.1
			c0,0,0.1,0.1,0.1,0.1c0.1,1.2,0.2,2.3,0.3,3.5c-5,3.8-9.9,7.6-15,11.1C141.7,150.1,144.7,142.3,146.7,134.4z M56.9,255.7
			c-0.7-9.9-1.6-20.9-2.3-32.4c9.5-17,22.1-32.3,31.8-49.2c0,0,0.1,0,0.1,0c3.9-2.1,7.6-4.9,10.8-8.1c4.7-1.1,9.4-2.7,13.9-4.6
			c-0.5,5.5-1,11.1-1.4,16.7C91.8,204.2,74.5,227.9,56.9,255.7z M101,197.4c6.1-9.2,12.2-18.3,18.3-27.5c0.1,0.1,0.2,0.1,0.3,0
			c11.8-6.4,23.6-13.7,33.9-22.4c0.6,5,1.5,9.9,2.8,14.7c-1.7,4.2-3.4,8.4-5,12.6C134.1,182.6,120.4,188.2,101,197.4z M142.6,181.1
			c6.6-3.2,13.2-6.5,19.8-9.7c-0.7,2.9-1.5,5.8-2.2,8.7C154.4,180.6,148.5,180.9,142.6,181.1z M286.4,262.2
			c-2.2,5-4.3,10.2-6.3,15.3c-1.8,1.3-3.6,2.6-5.4,3.9c-7.2,5.3-14.9,10.8-21,17.4c-12,2.1-24,4.4-36,6.6c-0.2,0-0.4,0-0.5-0.1
			c-0.1,0-0.2,0.1-0.2,0.2c-14.1,2.7-28.3,5.4-42.4,8.2c10.9-9,21.6-18.2,32.2-27.6C232.4,279.1,259.7,270.3,286.4,262.2z"/>
		<path class="st1" d="M198.8,439.4c-10.2-4-19.9-8.3-29.5-13.5c-0.3-0.2-0.6,0.3-0.3,0.5c9,5.8,19.3,10.7,29.6,13.7
			C199.1,440.1,199.2,439.5,198.8,439.4z"/>
		<path class="st1" d="M-48.4,177.4c0.3,0.1,0.5-0.3,0.2-0.5c-3.7-1.7-6.9-3.6-10.1-6c-0.3-0.2-0.6,0.2-0.3,0.4
			C-55.9,174.1-52.2,176.4-48.4,177.4z"/>
		<path class="st1" d="M-32.5,182.6c-2.1-8.6-4.4-17.2-6.8-25.8c2-7.4,3.8-15,5.5-22.6c0.1,0.1,0.2,0.1,0.2,0
			c6.8-5.5,12.7-13.8,16.8-21.5c0.2-0.4-0.4-0.7-0.6-0.4c-2.4,3.6-4.7,7.2-7.3,10.7c-2.9,3.8-6.1,7.1-9.1,10.8
			c1.4-6.6,2.8-13.2,3.9-19.7c0.1-0.4-0.5-0.5-0.6-0.2c-3.6,13.7-6.8,27.8-9.2,41.7c-2.8-9.8-5.8-19.6-8.7-29.3
			c-0.1-0.3-0.5-0.2-0.4,0.1c4.9,18.8,9.8,37.8,15.8,56.3C-33,183.1-32.5,182.9-32.5,182.6z"/>
	</g>
</g>
<path d="M382.2,40c0,0-0.1-0.1-0.1-0.1c0,0-0.1-0.1-0.1-0.1c0,0,0,0-0.1-0.1c0,0-0.1-0.1-0.1-0.1c0,0,0,0,0,0
	c0.4,0.1,0.7,0.3,1.1,0.4c0.1,0,0.2,0.1,0.4,0.1c0.2,0.1,0.5,0.2,0.7,0.3c0.1,0.1,0.3,0.1,0.4,0.2c0.2,0.1,0.4,0.2,0.5,0.2
	c0.2,0.1,0.3,0.2,0.5,0.2c0.1,0.1,0.3,0.1,0.4,0.2c0.2,0.1,0.3,0.2,0.5,0.3c0.1,0.1,0.3,0.1,0.4,0.2c0.1,0.1,0.3,0.2,0.4,0.3
	c0.1,0.1,0.2,0.2,0.4,0.2c0.1,0.1,0.3,0.2,0.4,0.3c0.1,0.1,0.2,0.2,0.3,0.2c0.1,0.1,0.2,0.2,0.4,0.3c0.1,0.1,0.2,0.2,0.3,0.2
	c0.1,0.1,0.2,0.2,0.3,0.3c0.1,0.1,0.2,0.2,0.3,0.3c0.1,0.1,0.2,0.2,0.3,0.3c0.1,0.1,0.2,0.2,0.3,0.3c0.1,0.1,0.2,0.2,0.3,0.3
	c0.1,0.1,0.2,0.2,0.2,0.3c0.1,0.1,0.2,0.2,0.2,0.3c0.1,0.1,0.2,0.2,0.2,0.3c0.1,0.1,0.1,0.2,0.2,0.3c0.1,0.1,0.1,0.2,0.2,0.3
	c0.1,0.1,0.1,0.2,0.2,0.3c0.1,0.1,0.1,0.2,0.2,0.3c0.1,0.1,0.1,0.2,0.2,0.3c0.1,0.1,0.1,0.2,0.2,0.3c0,0.1,0.1,0.2,0.1,0.3
	c0,0.1,0.1,0.2,0.1,0.3c0,0.1,0.1,0.2,0.1,0.3c0,0.1,0.1,0.2,0.1,0.3c0,0.1,0.1,0.2,0.1,0.3c0,0.1,0.1,0.2,0.1,0.3
	c0,0.1,0.1,0.2,0.1,0.3c0,0.1,0.1,0.2,0.1,0.3c0,0.1,0,0.2,0.1,0.3c0,0.1,0,0.2,0.1,0.3c0,0.1,0,0.2,0,0.3c0,0.1,0,0.2,0,0.3
	c0,0.1,0,0.2,0,0.3c0,0.1,0,0.2,0,0.3c0,0.1,0,0.2,0,0.3c0,0.1,0,0.2,0,0.3c0,0.1,0,0.2,0,0.3c0,0.1,0,0.2,0,0.3c0,0.1,0,0.2,0,0.3
	c0,0.1,0,0.2,0,0.3c0,0.1,0,0.2,0,0.3c0,0.1,0,0.2,0,0.3c0,0.1,0,0.2,0,0.3c0,0.1,0,0.2,0,0.3c0,0.1,0,0.2,0,0.3
	c0,0.1,0,0.2-0.1,0.3c0,0.1,0,0.2-0.1,0.3c0,0.1,0,0.2-0.1,0.3c0,0.1,0,0.2-0.1,0.3c0,0.1-0.1,0.2-0.1,0.3c0,0.1,0,0.2-0.1,0.3
	c0,0.1-0.1,0.2-0.1,0.3c0,0.1-0.1,0.2-0.1,0.3c0,0.1-0.1,0.2-0.1,0.3l0,0c0,0,0,0.1,0,0.1c0.2-0.2,0.4-0.3,0.6-0.5
	c-0.2,0.2-0.4,0.3-0.6,0.5c0,0,0-0.1,0-0.1c0.3-0.2,0.6-0.4,0.9-0.7c-0.1,0-0.1,0.1-0.2,0.1c0.1-0.1,0.2-0.1,0.3-0.2
	c0,0-0.1,0-0.1,0.1c0.2-0.1,0.4-0.3,0.6-0.4c0,0,0,0,0,0c0.3-0.2,0.5-0.3,0.8-0.5c0.1,0,0.2-0.1,0.3-0.1c0.3-0.2,0.6-0.3,1-0.5
	c-0.7,1.6-0.8,2.3-0.5,2.7c0.3,0.4,3.5,1.7,3.7,4c0.8,0.5,3.1-0.4,3.1-0.4s-1.5,3.1-3.9,4.6c6.6-0.5,15,1.4,15.6,15.2
	c0,0-0.2-0.6-0.5-1.3c0,0,0,0,0,0c-1-2.1-3.5-6-7.3-3.9c-0.1,0-0.2,0.1-0.3,0.2c0,0,0,0,0,0c0.4-3.1-3.3-6.7-8.1-4
	c-0.1,0-0.1,0.1-0.2,0.1c0,0,0,0,0,0c-0.1,0-0.1,0.1-0.2,0.1c0.8-2.4-2-4.1-4.3-4.7c0,0,0,0,0,0c-0.5,0.4-0.9,0.7-1.1,0.8
	c-1,0.7-2.3,1.4-3.6,1.1c-1.9-0.4-2.5-2-2.2-3.4c0.1-0.6,0.4-1.2,0.8-1.7c0.5-0.7,1.2-1.2,1.9-1.7c0.2-2.6-0.2-6-3.4-6.1
	c0,0,0.1-0.1,0.1-0.1l0,0l0,0l0.2-0.2c0,0,0,0,0,0c3.3-3.3,0.9-7.5-1.4-7.9c0,0-0.1,0-0.1,0c0,0,0,0,0,0c1.7-3.9-0.9-7.3-2-8.6
	C382.3,40.1,382.3,40.1,382.2,40z"/>
<path d="M266.3,380C266.2,380,266.2,380,266.3,380c-0.1-0.1-0.1-0.2-0.1-0.2c0,0,0,0,0-0.1c0,0,0,0,0-0.1c0,0,0,0,0,0
	c0.2,0.2,0.5,0.4,0.7,0.5c0.1,0.1,0.1,0.1,0.2,0.2c0.1,0.1,0.3,0.2,0.4,0.3c0.1,0.1,0.2,0.2,0.3,0.2c0.1,0.1,0.2,0.2,0.3,0.3
	c0.1,0.1,0.2,0.2,0.3,0.3c0.1,0.1,0.2,0.2,0.3,0.3c0.1,0.1,0.2,0.2,0.3,0.3c0.1,0.1,0.2,0.2,0.2,0.2c0.1,0.1,0.2,0.2,0.2,0.3
	c0.1,0.1,0.1,0.2,0.2,0.2c0.1,0.1,0.1,0.2,0.2,0.3c0.1,0.1,0.1,0.2,0.2,0.2c0.1,0.1,0.1,0.2,0.2,0.3c0.1,0.1,0.1,0.2,0.2,0.2
	c0.1,0.1,0.1,0.2,0.2,0.3c0,0.1,0.1,0.2,0.1,0.2c0,0.1,0.1,0.2,0.1,0.3c0,0.1,0.1,0.2,0.1,0.2c0,0.1,0.1,0.2,0.1,0.3
	c0,0.1,0.1,0.2,0.1,0.2c0,0.1,0.1,0.2,0.1,0.3c0,0.1,0.1,0.2,0.1,0.2c0,0.1,0.1,0.2,0.1,0.3c0,0.1,0.1,0.2,0.1,0.2
	c0,0.1,0,0.2,0.1,0.3c0,0.1,0,0.2,0.1,0.2c0,0.1,0,0.2,0,0.2c0,0.1,0,0.2,0,0.2c0,0.1,0,0.2,0,0.2c0,0.1,0,0.2,0,0.2
	c0,0.1,0,0.2,0,0.2c0,0.1,0,0.2,0,0.2c0,0.1,0,0.2,0,0.2c0,0.1,0,0.2,0,0.2c0,0.1,0,0.1,0,0.2c0,0.1,0,0.2,0,0.2c0,0.1,0,0.1,0,0.2
	c0,0.1,0,0.2,0,0.2c0,0.1,0,0.1,0,0.2c0,0.1,0,0.2,0,0.2c0,0.1,0,0.1,0,0.2c0,0.1,0,0.2-0.1,0.2c0,0.1,0,0.1-0.1,0.2
	c0,0.1,0,0.2-0.1,0.2c0,0.1,0,0.1-0.1,0.2c0,0.1-0.1,0.2-0.1,0.2c0,0.1,0,0.1-0.1,0.2c0,0.1-0.1,0.2-0.1,0.2c0,0.1-0.1,0.1-0.1,0.2
	c0,0.1-0.1,0.2-0.1,0.2c0,0.1-0.1,0.1-0.1,0.2c0,0.1-0.1,0.1-0.1,0.2c0,0.1-0.1,0.1-0.1,0.2c0,0.1-0.1,0.1-0.1,0.2
	c0,0.1-0.1,0.1-0.1,0.2c0,0.1-0.1,0.1-0.1,0.2c0,0.1-0.1,0.1-0.1,0.2c0,0.1-0.1,0.1-0.1,0.2c0,0.1-0.1,0.1-0.1,0.2
	c0,0.1-0.1,0.1-0.1,0.2c0,0.1-0.1,0.1-0.1,0.2c0,0.1-0.1,0.1-0.1,0.2l0,0c0,0,0,0,0,0c0.2-0.1,0.4-0.1,0.6-0.2
	c-0.2,0.1-0.4,0.1-0.6,0.2c0,0,0,0,0-0.1c0.3-0.1,0.5-0.2,0.8-0.3c0,0-0.1,0-0.1,0c0.1,0,0.2,0,0.2-0.1c0,0-0.1,0-0.1,0
	c0.2,0,0.3-0.1,0.5-0.1c0,0,0,0,0,0c0.2-0.1,0.4-0.1,0.7-0.2c0.1,0,0.1,0,0.2,0c0.3,0,0.5-0.1,0.8-0.1c-0.8,1-1.1,1.4-1,1.8
	c0.1,0.4,2.1,2,1.7,3.7c0.5,0.5,2.3,0.4,2.3,0.4s-1.7,1.8-3.8,2.4c4.7,1.1,10.1,4.4,7.4,14.1c0,0,0-0.4-0.1-1c0,0,0,0,0,0
	c-0.2-1.7-1.1-5-4.2-4.4c-0.1,0-0.1,0-0.2,0c0,0,0,0,0,0c1-2.1-0.8-5.4-4.8-4.6c0,0-0.1,0-0.1,0c0,0,0,0,0,0c-0.1,0-0.1,0-0.2,0
	c1.1-1.5-0.4-3.3-1.9-4.3c0,0,0,0,0,0c-0.4,0.2-0.8,0.3-0.9,0.3c-0.9,0.3-1.9,0.4-2.8-0.1c-1.2-0.7-1.3-1.9-0.7-2.9
	c0.2-0.4,0.5-0.7,0.9-1c0.5-0.3,1.1-0.6,1.7-0.8c0.8-1.7,1.2-4.2-1-5.1c0,0,0.1,0,0.1-0.1l0,0l0,0l0.2-0.1c0,0,0,0,0,0
	c3-1.6,2.4-5.1,0.8-5.8c0,0-0.1,0-0.1,0c0,0,0,0,0,0c2-2.3,1-5.3,0.6-6.5C266.3,380.1,266.3,380.1,266.3,380z"/>
</svg>
