<?xml version="1.0" encoding="utf-8"?>
<!-- Generator: Adobe Illustrator 23.0.3, SVG Export Plug-In . SVG Version: 6.00 Build 0)  -->
<svg version="1.1" id="Layer_1" xmlns="http://www.w3.org/2000/svg" xmlns:xlink="http://www.w3.org/1999/xlink" x="0px" y="0px"
	 viewBox="0 0 417 659" style="enable-background:new 0 0 417 659;" xml:space="preserve">
<style type="text/css">
	.st0{fill:#A59CB7;}
	.st1{fill:#100623;}
</style>
<g>
	<path class="st0" d="M222.5,386.9c22.4,19.6,84.9,61.6,111.1,75.8c0.4,0.2,2-0.2,1.4-0.5c-26.1-14.1-88.6-56.1-110.9-75.6
		C223.7,386.2,222.2,386.6,222.5,386.9L222.5,386.9z"/>
	<path class="st0" d="M137.9,335.6c19.9,26.4,53.4,45.2,85.8,51.7c0.7,0.1,0.2-0.7-0.1-0.9c-13.5-10.6-26-25-31.3-41.7
		c-0.1-0.4-1.6-1.2-1.4-0.6c3.5,11.2,8.7,20.8,16.8,29.1c3.6,3.7,7.5,7,11.3,10.5c3.1,2.9,4.7,1.7,2.2,2.1
		c-7.7,1.2-22.6-7.3-29.1-10.1c-20.6-9.1-39.4-21.8-53.1-39.9C138.6,335.2,137.2,334.7,137.9,335.6L137.9,335.6z"/>
	<path class="st0" d="M236.9,339.6c-1.5,12.6-5.8,36.3-14.3,46.5c-0.1,0.1,1.1,1.1,1.3,1.1c16.7,0.9,34.9-3.4,47.9-14.1
		c0,0-1.1-1.3-1.4-1.1c-8,6.5-17.4,10.4-27.5,12.4c-2.7,0.5-17.2,4.1-20.1,1.7c2.3,1.9,4.6-4.6,5.8-7.1c4.4-9.6,8.3-27.9,9.6-38.3
		C238.3,340.3,236.9,339.8,236.9,339.6L236.9,339.6z"/>
	<path class="st0" d="M222.7,387.2c23.9,11.5,52,22.2,78.9,21.1c0.8,0,1.6-1.2,0.5-1.2c-26.7,1.1-54.4-9.5-78.2-20.9
		C223.3,385.9,221.9,386.8,222.7,387.2L222.7,387.2z"/>
	<g>
		<path class="st0" d="M314.5,619.3c0,5.9-3.8,10.8-8.6,10.8c-4.7,0-8.6-4.8-8.6-10.8c0-5.9,3.8-10.8,8.6-10.8
			C310.7,608.5,314.5,613.3,314.5,619.3z"/>
		<path class="st0" d="M311.7,633.8c0,3-2.4,5.4-5.4,5.4c-3,0-5.4-2.4-5.4-5.4c0-3,2.4-5.4,5.4-5.4
			C309.3,628.4,311.7,630.8,311.7,633.8z"/>
		<path class="st0" d="M312,614.4c-0.4,0-0.8-0.2-0.9-0.6c-0.2-0.5,0-1.1,0.5-1.4l3.8-1.6c0.7-0.3,2.3-1.2,2.3-1.2
			c0.4-0.2,0.8-0.2,1.2,0.1c1.7,1.4,2.6,2.4,2.7,3.2c0.1,0.6-0.3,1.1-0.9,1.2c-0.6,0-1.1-0.3-1.1-0.9c-0.1-0.2-0.7-0.8-1.4-1.4
			c-0.6,0.3-1.4,0.8-1.9,1l-3.8,1.6C312.2,614.3,312.1,614.4,312,614.4z"/>
		<path class="st0" d="M321.1,621.8c-0.6,0-1-0.4-1-1c0-0.7-0.8-1.4-1.5-1.6c-0.8-0.2-1.7-0.1-3,0.4c-0.3,0.1-0.7,0.3-1,0.4
			c-0.8,0.3-1.7,0.7-2.6,0.9c-0.5,0.1-1-0.2-1.2-0.7c-0.2-0.5,0.1-1,0.6-1.3l0.5-0.2c0.2-0.1,0.4-0.1,0.6-0.1
			c0.4-0.1,0.8-0.3,1.3-0.5c0.4-0.1,0.7-0.3,1.1-0.4c1-0.4,2.6-0.8,4.2-0.4c1.5,0.4,3.1,1.7,3.1,3.5
			C322.2,621.3,321.7,621.8,321.1,621.8C321.2,621.8,321.1,621.8,321.1,621.8z"/>
		<path class="st0" d="M320,627c-0.4,0-0.8-0.2-0.9-0.6c-0.5-1.1-1.6-1.9-2.8-2.1c-1.2-0.2-2.5,0.3-3.3,1.2c-0.4,0.4-1,0.4-1.5,0.1
			c-0.4-0.4-0.4-1-0.1-1.5c1.3-1.4,3.3-2.1,5.2-1.8c1.9,0.3,3.6,1.6,4.4,3.3c0.2,0.5,0,1.1-0.5,1.4C320.3,627,320.2,627,320,627z"/>
		<path class="st0" d="M291.7,614.8c-0.3,0-0.5-0.1-0.7-0.3c-0.4-0.4-0.4-1.1,0-1.5c0.4-0.4,1-1,1.5-1.6c0.6-0.6,1.1-1.3,1.6-1.7
			c0.3-0.3,0.6-0.4,1-0.3c0.5,0.1,1,0.3,1.6,0.4c2.2,0.5,4.4,1.1,6.3,2.7c0.4,0.4,0.5,1,0.1,1.5c-0.4,0.4-1,0.5-1.5,0.1
			c-1.5-1.3-3.4-1.7-5.4-2.2c-0.3-0.1-0.7-0.2-1-0.2c-0.3,0.4-0.7,0.8-1.1,1.2c-0.6,0.6-1.1,1.3-1.6,1.7
			C292.3,614.7,292,614.8,291.7,614.8z"/>
		<path class="st0" d="M291.4,622.7c-0.3,0-0.6-0.1-0.8-0.3c-0.4-0.4-0.4-1.1,0-1.5c1.8-1.7,3.7-3.3,6.1-3.5c2-0.1,4,0.9,5.1,2.5
			c0.3,0.5,0.2,1.1-0.3,1.4c-0.5,0.3-1.1,0.2-1.4-0.3c-0.7-1-1.9-1.6-3.1-1.6c-0.1,0-0.1,0-0.2,0c-1.7,0.1-3.3,1.4-4.8,2.9
			C291.9,622.6,291.7,622.7,291.4,622.7z"/>
		<path class="st0" d="M294.5,628.7c-0.2,0-0.4-0.1-0.6-0.2c-0.5-0.3-0.5-1-0.2-1.4c1.9-2.5,4.9-4.1,8-4.3c0.6-0.1,1.1,0.4,1.1,1
			c0,0.6-0.4,1.1-1,1.1c-2.5,0.2-5,1.5-6.5,3.5C295.1,628.5,294.8,628.7,294.5,628.7z"/>
	</g>
	<path class="st0" d="M306.7,612.6c0-18.9,0-236.6,0-255.5c0-0.2-0.9-0.1-0.9,0.2c0,18.9,0,236.6,0,255.5
		C305.8,613.1,306.7,612.9,306.7,612.6L306.7,612.6z"/>
	<g>
		<path class="st0" d="M175.1,317.8c0,5.9-3.8,10.8-8.6,10.8c-4.7,0-8.6-4.8-8.6-10.8s3.8-10.8,8.6-10.8
			C171.3,307,175.1,311.8,175.1,317.8z"/>
		<path class="st0" d="M172.3,332.3c0,3-2.4,5.4-5.4,5.4s-5.4-2.4-5.4-5.4c0-3,2.4-5.4,5.4-5.4S172.3,329.3,172.3,332.3z"/>
		<path class="st0" d="M172.5,312.8c-0.4,0-0.8-0.2-0.9-0.6c-0.2-0.5,0-1.1,0.5-1.4l3.8-1.6c0.7-0.3,2.3-1.2,2.3-1.2
			c0.4-0.2,0.8-0.2,1.2,0.1c1.7,1.4,2.6,2.4,2.7,3.2c0.1,0.6-0.3,1.1-0.9,1.2c-0.6,0-1.1-0.3-1.1-0.9c-0.1-0.2-0.7-0.8-1.4-1.4
			c-0.6,0.3-1.4,0.8-1.9,1l-3.8,1.6C172.8,312.8,172.7,312.8,172.5,312.8z"/>
		<path class="st0" d="M181.7,320.3c-0.6,0-1-0.4-1-1c0-0.7-0.8-1.4-1.5-1.6c-0.8-0.2-1.7-0.1-3,0.4c-0.3,0.1-0.7,0.3-1,0.4
			c-0.8,0.3-1.7,0.7-2.6,0.9c-0.5,0.1-1-0.2-1.2-0.7c-0.2-0.5,0.1-1,0.6-1.3l0.5-0.2c0.2-0.1,0.4-0.1,0.6-0.1
			c0.4-0.1,0.8-0.3,1.3-0.5c0.4-0.1,0.7-0.3,1.1-0.4c1-0.4,2.6-0.8,4.2-0.4c1.5,0.4,3.1,1.7,3.1,3.5
			C182.7,319.8,182.3,320.2,181.7,320.3C181.7,320.3,181.7,320.3,181.7,320.3z"/>
		<path class="st0" d="M180.6,325.5c-0.4,0-0.8-0.2-0.9-0.6c-0.5-1.1-1.6-1.9-2.8-2.1c-1.2-0.2-2.5,0.3-3.3,1.2
			c-0.4,0.4-1,0.4-1.5,0.1c-0.4-0.4-0.4-1-0.1-1.5c1.3-1.4,3.3-2.1,5.2-1.8c1.9,0.3,3.6,1.6,4.4,3.3c0.2,0.5,0,1.1-0.5,1.4
			C180.9,325.5,180.7,325.5,180.6,325.5z"/>
		<path class="st0" d="M152.3,313.3c-0.3,0-0.5-0.1-0.7-0.3c-0.4-0.4-0.4-1.1,0-1.5c0.4-0.4,1-1,1.5-1.6c0.6-0.6,1.1-1.3,1.6-1.7
			c0.3-0.3,0.6-0.4,1-0.3c0.5,0.1,1,0.3,1.6,0.4c2.2,0.5,4.4,1.1,6.3,2.7c0.4,0.4,0.5,1,0.1,1.5c-0.4,0.4-1,0.5-1.5,0.1
			c-1.5-1.3-3.4-1.7-5.4-2.2c-0.3-0.1-0.7-0.2-1-0.2c-0.3,0.4-0.7,0.8-1.1,1.2c-0.6,0.6-1.1,1.3-1.6,1.7
			C152.8,313.2,152.6,313.3,152.3,313.3z"/>
		<path class="st0" d="M152,321.2c-0.3,0-0.6-0.1-0.8-0.3c-0.4-0.4-0.4-1.1,0-1.5c1.8-1.7,3.7-3.3,6.1-3.5c2-0.1,4,0.9,5.1,2.5
			c0.3,0.5,0.2,1.1-0.3,1.4c-0.5,0.3-1.1,0.2-1.4-0.3c-0.7-1-1.9-1.6-3.1-1.6c-0.1,0-0.1,0-0.2,0c-1.7,0.1-3.3,1.4-4.8,2.9
			C152.5,321.1,152.2,321.2,152,321.2z"/>
		<path class="st0" d="M155.1,327.2c-0.2,0-0.4-0.1-0.6-0.2c-0.5-0.3-0.5-1-0.2-1.4c1.9-2.5,4.9-4.1,8-4.3c0.6-0.1,1.1,0.4,1.1,1
			c0,0.6-0.4,1.1-1,1.1c-2.5,0.2-5,1.5-6.5,3.5C155.7,327,155.4,327.2,155.1,327.2z"/>
	</g>
	<path class="st0" d="M167.3,311.1c0-19.1,0-14.4,0-33.5c0-0.2-0.9-0.1-0.9,0.2c0,19.1,0,14.4,0,33.5
		C166.4,311.6,167.3,311.4,167.3,311.1L167.3,311.1z"/>
	<g>
		<path class="st0" d="M363.3,261.9c0,5.9-3.8,10.8-8.6,10.8s-8.6-4.8-8.6-10.8c0-5.9,3.8-10.8,8.6-10.8S363.3,255.9,363.3,261.9z"
			/>
		<path class="st0" d="M360.4,276.4c0,3-2.4,5.4-5.4,5.4c-3,0-5.4-2.4-5.4-5.4c0-3,2.4-5.4,5.4-5.4
			C358,271.1,360.4,273.5,360.4,276.4z"/>
		<path class="st0" d="M360.7,257c-0.4,0-0.8-0.2-0.9-0.6c-0.2-0.5,0-1.1,0.5-1.4l3.8-1.6c0.7-0.3,2.3-1.2,2.3-1.2
			c0.4-0.2,0.8-0.2,1.2,0.1c1.7,1.4,2.6,2.4,2.7,3.2c0.1,0.6-0.3,1.1-0.9,1.2c-0.6,0-1.1-0.3-1.1-0.9c-0.1-0.2-0.7-0.8-1.4-1.4
			c-0.6,0.3-1.4,0.8-1.9,1l-3.8,1.6C361,256.9,360.9,257,360.7,257z"/>
		<path class="st0" d="M369.9,264.4c-0.6,0-1-0.4-1-1c0-0.7-0.8-1.4-1.5-1.6c-0.8-0.2-1.7-0.1-3,0.4c-0.3,0.1-0.7,0.3-1,0.4
			c-0.8,0.3-1.7,0.7-2.6,0.9c-0.5,0.1-1-0.2-1.2-0.7c-0.2-0.5,0.1-1,0.6-1.3l0.5-0.2c0.2-0.1,0.4-0.1,0.6-0.1
			c0.4-0.1,0.8-0.3,1.3-0.5c0.4-0.1,0.7-0.3,1.1-0.4c1-0.4,2.6-0.8,4.2-0.4c1.5,0.4,3.1,1.7,3.1,3.5
			C370.9,263.9,370.5,264.4,369.9,264.4C369.9,264.4,369.9,264.4,369.9,264.4z"/>
		<path class="st0" d="M368.8,269.6c-0.4,0-0.8-0.2-0.9-0.6c-0.5-1.1-1.6-1.9-2.8-2.1c-1.2-0.2-2.5,0.3-3.3,1.2
			c-0.4,0.4-1,0.4-1.5,0.1c-0.4-0.4-0.4-1-0.1-1.5c1.3-1.4,3.3-2.1,5.2-1.8c1.9,0.3,3.6,1.6,4.4,3.3c0.2,0.5,0,1.1-0.5,1.4
			C369,269.6,368.9,269.6,368.8,269.6z"/>
		<path class="st0" d="M340.5,257.4c-0.3,0-0.5-0.1-0.7-0.3c-0.4-0.4-0.4-1.1,0-1.5c0.4-0.4,1-1,1.5-1.6c0.6-0.6,1.1-1.3,1.6-1.7
			c0.3-0.3,0.6-0.4,1-0.3c0.5,0.1,1,0.3,1.6,0.4c2.2,0.5,4.4,1.1,6.3,2.7c0.4,0.4,0.5,1,0.1,1.5c-0.4,0.4-1,0.5-1.5,0.1
			c-1.5-1.3-3.4-1.7-5.4-2.2c-0.3-0.1-0.7-0.2-1-0.2c-0.3,0.4-0.7,0.8-1.1,1.2c-0.6,0.6-1.1,1.3-1.6,1.7
			C341,257.3,340.7,257.4,340.5,257.4z"/>
		<path class="st0" d="M340.2,265.3c-0.3,0-0.6-0.1-0.8-0.3c-0.4-0.4-0.4-1.1,0-1.5c1.8-1.7,3.7-3.3,6.1-3.5c2-0.1,4,0.9,5.1,2.5
			c0.3,0.5,0.2,1.1-0.3,1.4c-0.5,0.3-1.1,0.2-1.4-0.3c-0.7-1-1.9-1.6-3.1-1.6c-0.1,0-0.1,0-0.2,0c-1.7,0.1-3.3,1.4-4.8,2.9
			C340.7,265.2,340.4,265.3,340.2,265.3z"/>
		<path class="st0" d="M343.3,271.3c-0.2,0-0.4-0.1-0.6-0.2c-0.5-0.3-0.5-1-0.2-1.4c1.9-2.5,4.9-4.1,8-4.3c0.6-0.1,1.1,0.4,1.1,1
			c0,0.6-0.4,1.1-1,1.1c-2.5,0.2-5,1.5-6.5,3.5C343.9,271.1,343.6,271.3,343.3,271.3z"/>
	</g>
	<path class="st0" d="M355.5,255.3c0-14.4,0-92.6,0-107c0-0.2-0.9-0.1-0.9,0.2c0,14.4,0,92.6,0,107
		C354.6,255.7,355.5,255.5,355.5,255.3L355.5,255.3z"/>
	<path class="st0" d="M203.8,381.6c4.1,0.1,7.9-0.6,11.9-1.3c-0.9,0.5-1.8,1-2.8,1.3c-1,0.3-2,0.5-3,0.7
		C207.8,382.4,205.7,382.4,203.8,381.6z"/>
	<path class="st0" d="M193.6,377.2l3.7-0.8c1.2-0.3,2.4-0.5,3.6-0.9c1.2-0.3,2.4-0.7,3.5-1.1c1.1-0.5,2.3-1,3.3-1.7
		c-1.5,2.1-4.1,3.1-6.5,3.8C198.7,377,196.1,377.4,193.6,377.2z"/>
	<path class="st0" d="M169.8,364.2c2.3,0.2,4.7,0.2,7,0.1c2.3-0.1,4.6-0.2,6.9-0.6c2.3-0.3,4.6-0.8,6.8-1.3c2.2-0.6,4.4-1.4,6.6-2.2
		c-2,1.2-4.1,2.2-6.4,2.9c-2.2,0.8-4.5,1.3-6.9,1.6C179.2,365.3,174.4,365.3,169.8,364.2z"/>
	<path class="st0" d="M238.7,393.4c0,0.6,0.1,1.1,0,1.6c0,0.5-0.1,1-0.1,1.6c-0.1,0.5-0.1,1-0.1,1.5c0,0.5,0,1,0.1,1.6
		c-0.4-0.4-0.7-0.9-0.9-1.5c-0.2-0.6-0.2-1.1-0.2-1.7C237.7,395.4,238,394.3,238.7,393.4z"/>
	<path class="st0" d="M255.9,399.7c0,1.3,0.1,2.6,0.2,3.9c0.2,1.3,0.4,2.5,0.7,3.8c0.6,2.5,1.8,4.8,3,7.2c-0.9-1-1.8-2-2.5-3.2
		c-0.7-1.2-1.1-2.4-1.5-3.7C255.3,405,255.1,402.2,255.9,399.7z"/>
	<path class="st0" d="M279.9,406c-0.3,2-0.5,4.1-0.6,6.1c-0.1,2-0.1,4.1,0,6.1c0.1,2,0.4,4,0.8,6c0.5,2,1.1,3.9,2,5.8
		c-1.2-1.7-2.1-3.6-2.7-5.6c-0.6-2-0.9-4.1-1.1-6.2C278.1,414.2,278.5,409.9,279.9,406z"/>
	<path class="st0" d="M259.5,380.2c-0.6,2.3-0.5,4.7-0.1,7c0.4,2.3,1.3,4.5,2.4,6.5c1.1,2.1,2.6,3.8,4.2,5.6
		c1.6,1.7,3.4,3.3,5.2,4.8l-3-2c-0.9-0.8-1.9-1.5-2.8-2.3c-1.7-1.7-3.3-3.5-4.5-5.7c-1.1-2.1-2-4.4-2.3-6.9
		C258.3,384.9,258.5,382.4,259.5,380.2z"/>
	<path class="st0" d="M244.6,384.8c-0.2,1.2-0.2,2.4-0.2,3.6c0.1,1.2,0.2,2.3,0.6,3.4c0.6,2.3,1.9,4.2,3.4,6.2c-1-0.7-2-1.5-2.7-2.5
		c-0.8-1-1.3-2.2-1.7-3.4C243.4,389.7,243.5,387,244.6,384.8z"/>
	<path class="st0" d="M230.7,386.7l0.2,1.2c0.1,0.4,0.1,0.7,0.2,1c0.1,0.6,0.5,1.1,1,1.8c-0.4,0-0.9-0.1-1.2-0.4
		c-0.4-0.3-0.6-0.7-0.8-1.1C229.9,388.3,230.1,387.4,230.7,386.7z"/>
	<path class="st0" d="M230.5,373c0.3,1.3,0.7,2.5,1.2,3.7c0.5,1.2,1,2.4,1.7,3.4c0.6,1.1,1.4,2.1,2.2,3.1c0.8,1,1.8,1.8,2.8,2.7
		c-1.2-0.5-2.4-1.2-3.4-2.1c-1-0.9-1.9-2-2.6-3.1C231.1,378.3,230.3,375.6,230.5,373z"/>
	<path class="st0" d="M233.3,362.5c1.2,2.2,2.6,4.3,4,6.3c1.4,2,3,3.9,4.7,5.7c1.7,1.8,3.6,3.3,5.6,4.7c2.1,1.3,4.3,2.3,6.7,3.1
		c-2.5-0.4-4.9-1.1-7.1-2.4c-2.2-1.3-4.2-2.9-6-4.6C237.8,371.4,235,367.2,233.3,362.5z"/>
	<path class="st0" d="M199.3,363.1c2.6,0.9,5.3,1.7,8,2.4c2.7,0.7,5.4,1.3,8.1,1.8c5.4,1,10.9,1.4,16.5,1c-2.7,0.6-5.5,0.9-8.3,0.9
		c-2.8-0.1-5.6-0.4-8.3-0.8C209.7,367.3,204.3,365.7,199.3,363.1z"/>
	<path class="st0" d="M212.3,377.2l3.9,0.5c1.3,0.2,2.6,0.4,3.9,0.5c1.3,0.2,2.6,0.3,3.9,0.4c1.3,0.1,2.6,0.1,3.9,0
		c-2.5,1-5.3,0.9-8,0.7C217.4,378.8,214.8,378.3,212.3,377.2z"/>
	<g>
		<path class="st1" d="M443.1,59.8c-7.3,1.3-14.9,2.6-22,4.9c4.5-5.2,8.9-10.5,13.1-15.9c0.3-0.4-0.2-0.8-0.6-0.5
			c-7.1,7.8-14,15.8-21.1,23.6c3.2-6.9,5.5-14.4,7.1-21.8c0.1-0.3-0.4-0.4-0.5-0.1c-2.2,7.7-4.8,15.2-7.5,22.7c0,0.1,0,0.2,0,0.2
			c-2.3,2.6-4.7,5.1-7.1,7.7c-9.7,10.1-19.7,19.9-29.9,29.5c6.1-12.6,11.9-25.4,17.1-38.4l0.8-3.7c-15.4,38.2-35.6,71.7-58.5,105.7
			c1-14.1,1.5-28.4,1.5-42.4c0,0,0.1,0.1,0.1,0.1l-0.1-1c0-10.2-0.3-20.2-0.9-29.8c8.7-18.4,17.4-37.1,24.8-56.1
			c0.2-0.4-0.5-0.8-0.7-0.3c-3.6,7.2-6.9,14.6-10.2,22.1c0.5-9.2,0-18.6-0.5-27.7c0-0.3-0.5-0.3-0.5,0c-0.1,2.2-0.1,4.3-0.2,6.5
			c-2.1-4.1-4.6-8.1-7.2-11.7c-0.3-0.4-0.8,0-0.6,0.4c2.2,4.3,4.8,8.8,7.8,12.7c-0.2,7.2-0.2,14.4,0.4,21.5
			c-4.6,10.4-9,20.9-13.3,31.4c-0.5-8.3-1.2-16.3-2-23.9l-1.5-7.2c1.7,15.4,2.5,32.5,2.3,50.2c-13.9-22.3-25.2-45.6-33.4-69.4
			l0.3,6.6c3.5,10.2,7.7,21.1,12.5,31.9c-10.1-9.5-20.1-19.1-29.7-29.1c-3.7-3.9-7.3-7.9-10.9-11.9c-2.5-8.9-5.3-17.8-8.5-26.5
			c-0.1-0.3-0.6-0.2-0.5,0.2c2.3,8.4,4.9,16.7,7.8,24.9c-7.1-8-14-16.2-21.1-24.2c-0.3-0.3-0.9,0-0.6,0.4c9.7,13,20.8,25.1,32,36.8
			c0.4,0.5,0.9,0.9,1.3,1.4c-13-8-26.3-15.9-39.8-23c-0.4-0.2-0.7,0.4-0.3,0.6c3.9,2.5,7.8,4.9,11.8,7.2c-4.1-0.4-8.3-0.9-12.4-0.8
			c-0.4,0-0.5,0.7,0,0.8c4.3,0.8,8.7,0.9,13,1.2c0.4,0,0.6-0.2,0.6-0.5c9.4,5.5,19,10.8,28.5,15.9c9.6,10,19.5,19.7,29.9,28.9
			c5.8,13,12.4,26,19.5,37.7c-1,38.2-6.1,78.4-15.2,110.5c-7.8-14.3-16.4-30.5-24.4-45.7l-3.2-6.7c-0.2-0.2-0.4-0.3-0.6-0.5
			c-13.5-25.8-24.4-46.8-24.4-46.8s-3.5-4.3-10.4-10.4c0,0,12.3,23,27.1,50.9c-20.5-17-41-33.9-61.4-50.9l4.5,6.6
			c11.4,9.5,23.4,20.8,35.4,32.1c-17.1-6.6-35.3-10.4-52.2-17.2c-3.8-7.4-7.9-14.8-12-22.2c1.6-17.2,2.5-34.9,2.7-52.2
			c0-0.4-0.6-0.4-0.7,0c-1.5,16.9-2.4,34.2-2.6,51.2c-5.7-10.1-11.6-20.1-17.5-30c-0.2-0.3-0.6,0-0.4,0.3
			c9.4,17.6,19,35.4,29.4,52.5c-6.9-2.8-13.6-6.1-20-10.4c-0.7-0.5-1.5,0.4-0.9,1c10.9,9,23.9,14.2,37.5,18.3
			c-8.6-0.2-17.2,0.6-25.8,0.8c-2.1-2-4.3-3.9-6.6-5.6c0-0.1-0.1-0.2-0.2-0.2c0,0,0,0,0,0c-3.2-2.5-6.6-4.9-10.2-7
			c-0.1-0.1-0.3,0.1-0.2,0.2c3.1,2.2,6.1,4.4,9.1,6.7c-4.9-0.4-9.7-0.8-14.5-2.4c-0.3-0.1-0.5,0.5-0.2,0.6
			c4.6,2.1,10.5,2.7,15.6,2.4c2.2,1.7,4.3,3.4,6.5,5.3c-5.8,0.2-11.7,0.1-17.5-0.7c-0.3,0-0.4,0.4-0.1,0.4
			c16.2,2.8,32.8,0.3,49.2,0.9c11.9,3.4,23.9,6.3,35.1,10.5c8.7,8.2,17.4,16.4,25.9,23.8c19.3,36.5,39.7,75.8,41.5,81.6
			c0.6,2.1,2.7,19.2,5.2,39.9c-2.5-5.3-5.1-9.5-7.8-11.9c-4.1-3.8-16.9-18.8-31-34.3c-13.2-27.3-26-55.3-42.8-80.5
			c-0.2-0.3-0.6,0-0.4,0.3c15.7,25,28,52,41.4,78.2c-8.8-9.6-17.9-19.3-25.7-26.4c0.1,0,0.2,0,0.3,0c0.5,0,0.4-0.7-0.1-0.7
			c-0.4,0-0.7,0-1,0c-3.4-3.1-6.6-5.8-9.3-7.6l-8.6-5.5c4.4,2.9,9.8,7.5,15.5,13.2c-10.8,0.1-21.2-1.2-31.7-3.7
			c-0.4-0.1-0.5,0.5-0.1,0.6c4.6,1.4,9.3,2.4,14,3.1c-9.5,2.3-18.6,3.3-28.4,3.1c-0.4,0-0.4,0.7,0,0.7c9.8,1,20.3-0.2,29.6-3.6
			c0,0,0,0,0.1-0.1c5.8,0.7,11.6,0.9,17.4,0.7c24.5,24.2,56.2,65.8,59.4,68.5c10.6,9,20.2,89.9,31.7,97.8
			c13.6,9.3,59.9,75.6,74.3,83.5l-6.4-53.6c-6.3-2.7-58.5-35.5-63.7-47.7c-2.2-5.2-4.4-11-6.5-17c-5.7-36.1-12.9-91-15.5-93.9
			c-2.5-2.7-9.9-15.5-19.1-32.3c5.4-19.1,8.9-41.3,11-64.2c15.1-22.4,28.6-45.9,40.5-70.2c0.1,0,0.1,0,0.2-0.1
			c16.2-14.5,32.2-30,46.6-46.5c0,0.1,0.2,0.3,0.3,0.2c7.4-0.9,15-3,22.2-5C443.6,60.4,443.4,59.8,443.1,59.8z"/>
		<g>
			<path class="st1" d="M428.9,581.7l-4.7-83.9c-53.6-62.1-83.1-62.5-126.1-100.7c7.6-6.6,14.7-13.9,21.8-20.9
				c0.7-0.7,1.4-1.4,2.2-2.2c0.1,0.1,0.1,0.1,0.2,0.1c11.9,1.8,24.9-0.2,36.4-3.6c0.4-0.1,0.3-0.8-0.1-0.7
				c-4.7,1.2-9.3,1.9-13.9,2.5c4.6-4.1,9.2-8.3,13.6-12.8c0.2-0.2-0.1-0.5-0.3-0.3c-4.8,4.2-9.4,8.7-13.9,13.1c-7,0.8-14.1,1-21.3,1
				c6.7-6.7,13.3-13.4,19.6-20.5c0.2-0.3-0.2-0.6-0.4-0.4c-7.8,7.8-15.4,15.7-23.3,23.5c-3.2,3.2-6.5,6.3-9.9,9.4
				c6.5-9.7,11.9-20.7,17.2-31c1.6-3.1,3.2-6.3,4.8-9.5c0,0,0,0,0,0c8-8.9,15.7-18.3,22.9-28c0.2-0.3-0.3-0.6-0.5-0.4
				c-7.5,8.5-14.8,17.4-21.5,26.6c1.7-3.6,3.4-7.2,4.9-10.9c0.1-0.1,0.2-0.2,0.1-0.3c1.8-4.4,3.4-8.9,4.6-13.5
				c0.1-0.5-0.5-0.7-0.7-0.3c-1.4,3.8-2.9,7.6-4.4,11.3c-1.3-6.6-2-13.2-2.3-20c0-0.5-0.7-0.6-0.7-0.1c-0.4,7.2,0.6,14.5,2.5,21.5
				c-3.2,7.8-6.6,15.5-10.5,23.1c-5.7,11.1-12.6,21.7-17.9,32.9c-3.3,3.1-6.6,6.3-9.8,9.5c-0.1-0.1-0.2-0.2-0.3-0.3
				c-0.5-10.8-1.2-21.5-2.2-32.2c6.9-3.8,13.3-8.3,19.1-13.6c0,0,0,0,0,0c3.8,0.5,8.1,0.7,11.8-0.2c0.4-0.1,0.5-0.8,0-0.8
				c-3.6,0.1-7.2,0.3-10.9,0.2c2-1.9,4-3.9,5.9-6c0.2-0.2-0.2-0.5-0.3-0.3c-7.9,7.6-16.3,14.3-25.7,20c-0.3-3.7-0.7-7.4-1.1-11
				c0.1-0.1,0.1-0.3,0-0.4c0,0,0-0.1-0.1-0.1c-1.1-10.2-2.5-20.3-4.1-30.4c1.1-12,1.9-24.2,1.8-36.3c2.9-1.5,5.2-5.3,5.3-8.5
				c0-0.4-0.6-0.6-0.7-0.2c-0.4,1.7-0.8,3.2-1.8,4.7c-0.8,1.2-1.8,2.2-2.9,3.1c0-5.4-0.2-10.8-0.5-16.2c0-0.3-0.6-0.3-0.6,0
				c-0.1,16.9-0.1,33.8-1.1,50.7c-2.2-13.3-4.7-26.6-7.7-39.7l-0.9,2.8c5.3,23.6,8.2,44.6,9.8,65.8c-7.6-9.5-15.1-19-22.7-28.5
				c-5.6-16.6-8.9-33.5-10.8-50.9c0-0.3-0.5-0.3-0.5,0c0.2,5.3,0.8,10.5,1.6,15.7c-2.6-2.9-5.2-5.9-8.1-8.6
				c-0.2-0.2-0.6,0.1-0.4,0.3c2.7,3.2,5.7,6.2,8.6,9.2c1.8,11.3,4.8,22.4,8.7,33c-9.1-11.3-18.2-22.5-27.6-33.6
				c-0.3-0.3-0.8,0.1-0.5,0.4c16.7,21.8,34.4,42.9,51.8,64.1c1,13.8,1.5,27.8,1.8,42.7c-3.1-3-6.1-6-8.9-9.1
				c-26.1-29.1-40.5-38.5-50-53.6c-0.7-1.1-1.7-2.6-2.9-4.2c1-14.8,0.5-30-2.2-44.5c-0.1-0.4-0.7-0.3-0.6,0.1
				c1.5,14.5,2.4,28.9,2.1,43.4c-3.4-4.7-7.7-10.4-10.1-13.9c-4.3-37.4-12.8-96.4-21-130.9l-2.4-1.2c3.9,16.3,6.7,36.9,9.1,58
				c-4.9-4.6-9.5-9.4-13.5-14.9c-1-1.3-1.9-2.7-2.8-4.1c0.2,0,0.3-0.2,0.3-0.4c-0.4-7.9-1.6-15.9-3.4-23.7c-0.1-0.4-0.8-0.3-0.7,0.1
				c1.1,7.7,2.2,15.5,3.3,23.2c-3.9-6-7-12.4-9.9-19c-0.1-0.3-0.5-0.1-0.4,0.2c5,15.1,14.9,29.8,27.3,40c1,8.8,1.9,17.7,2.7,26.4
				c-6.8-1.7-13.4-3.8-19.9-6.2c-4.9-11.6-10.8-23.1-17.8-33.8c-4.5-10.5,0.9-20.7,3.5-30.9c0.1-0.4-0.5-0.7-0.7-0.2
				c-1.7,4.6-3.6,9.6-4.6,14.6c-1.5-4.9-1.6-11.1-4.9-15.1c-0.1-0.1-0.3,0-0.2,0.2c3.1,4.6,2.7,10.7,4.9,15.7
				c-0.9,4.7-0.9,9.3,0.6,13.8c-3.1-4.6-6.4-9.1-9.9-13.3c-0.1-0.2-0.4,0-0.2,0.2c11.6,15.1,21.5,31.4,29.1,48.9
				c-2.7-1-5.4-2.1-8-3.2c-4.5-6.2-9.1-12.4-13.8-18.4c-0.1-0.2-0.3,0-0.2,0.2c4.3,6.1,8.9,12,13.4,17.9c-8.3-3.6-16.4-7.7-24-12.4
				c4.5,2.8,9.1,5.6,13.9,8.2c-6.8,0.3-13.5-0.1-20.2-1c-0.2,0-0.2,0.3,0,0.3c6.8,1.2,13.6,1.4,20.5,1c0.1,0,0.1-0.1,0.1-0.1
				c3.7,2.1,7.5,4.1,11.4,6.1c0.1,0.1,0.1,0.2,0.2,0.2c0.1,0.1,0.2,0,0.2,0c8.6,4.2,17.6,7.8,27,10.3c1.5,15.3,2.8,29.9,4.1,42.1
				c0,0-24.6-14.5-75.3-52.8c-2.5-7.8-4.8-15.7-6.9-23.6c4.4-13.6,8-27.7,10.8-41.9c5.3-6.5,10.6-13.4,14.4-20.8
				c0.2-0.3-0.4-0.6-0.6-0.3c-4.4,6.6-8.6,13.3-13.5,19.5c1.6-8.4,3-16.9,4-25.2c0.1-0.5-0.6-0.5-0.7-0.1c-0.6,3.3-1.3,6.5-1.9,9.8
				c-1.8-6.2-3.7-12.5-5.8-18.7c5.9-5.9,11.9-12.1,16.5-19.1c0.2-0.4-0.3-0.7-0.5-0.4c-5.3,6.3-10.4,12.7-16.2,18.6
				c-1.4-4.1-2.8-8.3-4.5-12.3c-0.2-0.4-0.8-0.2-0.7,0.2c2.9,11,6.9,21.9,10.9,32.6c0,0.1,0.1,0.1,0.2,0.2
				c-3.7,18.8-7.9,37.4-12.8,55.9c-1.5-5.9-2.9-11.8-4.2-17.7c-3.4-16.1-4.9-32.4-7.5-48.6c-0.1-0.6-1-0.4-1,0.2
				c0.6,10.8,2.1,21.8,4.1,32.5c-6.9-11.8-13.7-23.8-21.5-35c-0.3-0.4-0.9,0-0.6,0.4c0.9,1.8,1.9,3.5,2.9,5.2
				c-3.9-2.1-7.9-4.1-12-6.1c-1.9-7.2-3.4-14.4-4.9-21.7c-0.1-0.4-0.7-0.3-0.7,0.1c0.7,7.1,2.2,14.2,4.3,21
				c-4.7-2.2-9.5-4.3-14.2-6.3c-0.5-0.2-0.9,0.6-0.4,0.9c5,2.7,10.2,5.3,15.4,7.7c0,0,0,0.1,0,0.1c0.1,0.3,0.4,0.3,0.6,0.2
				c4.2,2,8.5,3.9,12.8,5.6c5.9,10.2,12.4,20,18.8,29.9c0.9,4.9,2,9.8,3,14.6c1.4,6.3,2.9,12.5,4.6,18.8c0,0.1,0,0.2-0.1,0.2
				c-0.1,0.3,0.1,0.5,0.3,0.6c0.4,1.4,0.8,2.8,1.2,4.2c-22.6-13.2-42.1-29.8-59.6-49.3c-0.2-0.2-0.6,0.1-0.4,0.3
				c6,7.4,12.6,14.3,19.6,20.7c-9.2-2.2-17.9-5.2-26.3-9c-5.5-5.6-10.5-11.5-15.6-17.4c-0.3-0.3-0.7,0.1-0.4,0.4
				c4.1,5.9,9.1,11.3,14.3,16.2c-7-3.2-13.8-6.9-20.5-11c-0.3-0.2-0.6,0.2-0.3,0.5c3.1,2.3,6.3,4.4,9.7,6.3
				c-5.3-0.1-10.8-0.3-16.1,0.1c-0.5,0-0.4,0.8,0,0.8c5.7,0.3,11.4,0,17.1-0.3c11.9,6.7,25.1,11.4,38.2,14.2c0.2,0,0.4-0.1,0.4-0.3
				c12.2,11,25.7,20.5,39.9,28.4c0,0,0,0,0.1,0c1.6,5.7,3.3,11.3,5.1,17c-7-5.3-14.6-11.1-22.6-17.4l3.3,6
				c7.2,5.6,14.2,11.1,21,16.4c0,0.1,0,0.1,0.1,0.2c0.1,0.2,0.3,0.2,0.4,0.2c38.4,30.1,68.6,54.4,83.5,66.4
				c12.9,20,35.1,49.5,60.6,77.8c18.1,20.1,43,38.8,69.3,56.6c-24.9-3-49.6-7.5-74.1-12.9c-24.9-23.7-49.9-47.4-75.3-70.7
				c-4-11.6-8.1-23.4-12.9-34.7c-0.1-0.3-0.8-0.2-0.6,0.2c3.6,11.2,7.9,22.4,12.2,33.4c-4.8-4.4-9.6-8.9-14.5-13.3
				c-0.2-0.2-0.6,0.1-0.4,0.3c29.5,28.6,59.7,56.6,89.9,84.5c-23.3-5.2-46.4-11.1-69.4-17.1c-12.8-8.3-25.7-16.6-38.5-24.9
				c-7.3-16.2-15-32.3-23.3-48.1c-3.5-18.5-7.9-37.5-15-55c-0.2-0.4-0.9-0.2-0.8,0.3c5.2,17.6,10.6,34.9,14.7,52.7
				c-9.5-17.9-19.8-35.3-31-52.1c-0.2-0.3-0.8,0-0.6,0.4c4,6.6,7.9,13.2,11.8,19.9c-10.2-4.8-20.4-9.8-30.9-14.1
				c-0.4-0.2-0.6,0.4-0.2,0.6c2.6,1.3,5.2,2.5,7.8,3.7c-5.9-0.2-11.7-0.5-17.6-0.4c-0.3,0-0.3,0.4,0,0.5c6.1,0.4,12.3,0.5,18.4,0.7
				c0.2,0,0.3-0.1,0.3-0.2c7.5,3.4,15.1,6.6,22.6,10c15.4,26.3,29.9,52.9,42.7,80.5c-26.5-17.1-53-34.2-79.5-51.4l-1.5,2
				c6.4,4.1,12.8,8.4,19.3,12.8c-12-2.5-23.5-5.8-35.1-9.8c-0.4-0.1-0.8,0.5-0.3,0.7c11,4.9,23.4,8.2,35.3,9.7
				c0.3,0,0.4-0.3,0.3-0.5c15.9,10.8,32.2,22.3,48.5,33.7c-14.6-1.2-24.3-1.6-36.1-3.1c-13.3-9.9-26.7-19.9-40.2-29.6
				c-0.4-0.3-0.8,0.3-0.4,0.6c3.1,2.7,6.3,5.3,9.6,7.9c-6.7-2.8-13.5-5.6-20.2-8.5c-0.3-0.1-0.6,0.4-0.3,0.5
				c2.5,1.3,5.1,2.6,7.8,3.8c-4-0.9-8.3-1.2-12.4-0.9c-0.4,0-0.4,0.7,0,0.7c5.1,0.5,10.1,1,15.2,1.7c0.1,0,0.2,0,0.3-0.1
				c3.8,1.6,7.6,3,11.4,4.2c8.7,6.8,17.8,13.3,27,19.3c-5.5-0.8-11.6-1.9-18.9-3.5l-7.7,0c23.6,5.2,47.5,9,71.5,11.6
				c16.6,11.6,33.1,23,48.9,33.2c40,10.5,85.6,20,129.4,26.2l1.9,0.3c8,1.1,15.9,2.1,23.7,3c7.5,4.9,13.8,13.7,19.6,24.3
				c-12.6,4.5-38.4,13.7-38.5,13.8c-13.2,3.5-26.5,7-39.7,10.7c-9.4-3.7-19.8-5.6-29.7-7.4c-2.4-0.5-4.9-0.9-7.4-1.3
				c-10-9.4-20.5-18.7-31.9-26.5c-0.4-0.3-0.7,0.3-0.4,0.6c10.3,8.5,20.8,16.8,30.9,25.7c-7.9-1.3-15.9-2.4-23.9-2.7
				c-0.6,0-0.6,0.8-0.1,0.9c3.6,0.5,7.3,0.9,10.9,1.3c-13.6,4.5-27.1,9.4-40.3,15c-0.3,0.1-0.1,0.7,0.2,0.6
				c5.6-1.8,11.2-3.7,16.7-5.7c-2.7,5.6-5.9,10.8-9.5,15.9c-0.2,0.3,0.2,0.5,0.4,0.3c4.4-5,7.7-10.6,10.5-16.6c8-2.9,16-6,23.9-9.2
				c4.3,0.5,8.5,1,12.8,1.7c0,0,0.1,0.1,0.1,0.1c0.1,0.1,0.3,0.1,0.4,0c1.9,0.3,3.8,0.6,5.6,0.9c10,1.8,19.8,4.8,29.8,6.8
				c-10.5,2.9-20.9,5.9-31.4,9c-0.4,0.1-0.3,0.7,0.1,0.6c22.7-5.7,45.4-11.9,68-18.1c-10.5,6.8-21,13.5-31.8,19.7
				c-2.7,1.5-5.4,3-8.1,4.4c-15.8,2.7-31.9,5.4-47.5,9.2c-0.5,0.1-0.4,0.9,0.1,0.8c3.4-0.5,6.7-1.1,10.1-1.7c-3,1.8-6,3.7-8.7,5.9
				c-0.3,0.3,0,0.8,0.4,0.6c3.6-2,7-4.5,10.4-6.8c11.1-2,22.2-4.5,33.1-6.9c-9.1,4.8-18.4,9.3-27.6,14c-0.4,0.2-0.1,0.9,0.3,0.7
				c13.3-5.5,26.1-12.5,38.6-19.7c2.5-1.5,5-2.9,7.5-4.4c0.1,6.5-0.6,12.6-2,19c-0.1,0.5,0.7,0.6,0.8,0.2c2.2-6.2,2.9-13.2,2.1-19.8
				c8.2-4.9,16.1-10.1,23.8-15.7c5.3-1.4,10.5-2.9,15.8-4.3c-9.4,14.6-18.4,29.5-26.7,44.8c-18.7,2.8-37.9,7.5-55.2,15.1
				c-0.4,0.2-0.1,0.7,0.3,0.6c18-5.9,35.8-11.1,54.4-14.7c-5.4,9.8-10.5,19.8-15.3,29.9c-0.2,0.4,0.5,0.7,0.7,0.3
				c5.4-10.3,10.9-20.5,16.4-30.6c0.3-0.1,0.6-0.1,0.8-0.2c0.5-0.1,0.4-0.9-0.1-0.8c-0.1,0-0.1,0-0.2,0c8.3-15,16.8-29.9,25.9-44.5
				c0-0.1,16.4-5.1,25.7-7.9C401.6,527.3,412.7,568.9,428.9,581.7z"/>
		</g>
	</g>
</g>
<path d="M56.8,104.8l-0.1,0.1l-0.1,0.1l-0.1,0.1l-0.1,0.1l-0.1,0.1c0.1-0.5,0.3-0.9,0.4-1.4c0-0.2,0.1-0.3,0.1-0.4
	c0.1-0.3,0.2-0.6,0.3-0.8c0.1-0.2,0.1-0.4,0.2-0.5c0.1-0.2,0.2-0.5,0.3-0.7c0.1-0.2,0.2-0.4,0.2-0.6c0.1-0.2,0.2-0.4,0.2-0.6
	c0.1-0.2,0.2-0.4,0.3-0.6c0.1-0.2,0.2-0.3,0.2-0.5c0.1-0.2,0.2-0.4,0.3-0.5c0.1-0.2,0.2-0.3,0.2-0.5c0.1-0.2,0.2-0.3,0.3-0.5
	c0.1-0.1,0.2-0.3,0.3-0.4c0.1-0.2,0.2-0.3,0.3-0.5c0.1-0.1,0.2-0.3,0.3-0.4c0.1-0.1,0.2-0.3,0.3-0.4c0.1-0.1,0.2-0.3,0.3-0.4
	c0.1-0.1,0.2-0.2,0.3-0.4c0.1-0.1,0.2-0.2,0.3-0.3c0.1-0.1,0.2-0.2,0.3-0.3l0.3-0.3c0.1-0.1,0.2-0.2,0.3-0.3l0.3-0.3
	c0.1-0.1,0.2-0.2,0.4-0.3l0.3-0.3c0.1-0.1,0.2-0.2,0.4-0.3c0.1-0.1,0.2-0.2,0.3-0.2c0.1-0.1,0.2-0.1,0.3-0.2
	c0.1-0.1,0.2-0.1,0.3-0.2c0.1-0.1,0.2-0.1,0.3-0.2c0.1-0.1,0.2-0.1,0.4-0.2c0.1-0.1,0.2-0.1,0.4-0.2c0.1-0.1,0.2-0.1,0.4-0.2
	c0.1-0.1,0.2-0.1,0.3-0.1c0.1,0,0.3-0.1,0.4-0.1c0.1,0,0.2-0.1,0.3-0.1c0.1,0,0.3-0.1,0.4-0.1c0.1,0,0.2-0.1,0.3-0.1
	c0.1,0,0.3-0.1,0.4-0.1c0.1,0,0.2,0,0.3-0.1c0.1,0,0.3-0.1,0.4-0.1c0.1,0,0.2,0,0.3-0.1c0.1,0,0.3,0,0.4-0.1c0.1,0,0.2,0,0.3,0
	c0.1,0,0.3,0,0.4,0c0.1,0,0.2,0,0.3,0c0.1,0,0.3,0,0.4,0c0.1,0,0.2,0,0.3,0c0.1,0,0.3,0,0.4,0c0.1,0,0.2,0,0.3,0c0.1,0,0.3,0,0.4,0
	c0.1,0,0.2,0,0.3,0c0.1,0,0.3,0,0.4,0c0.1,0,0.2,0,0.3,0c0.1,0,0.3,0,0.4,0c0.1,0,0.2,0,0.3,0c0.1,0,0.3,0,0.4,0.1
	c0.1,0,0.2,0,0.3,0.1c0.1,0,0.3,0,0.4,0.1c0.1,0,0.2,0,0.3,0.1c0.1,0,0.3,0,0.4,0.1c0.1,0,0.2,0.1,0.3,0.1l0.3,0.1l0,0l0.1,0
	c-0.2-0.2-0.4-0.5-0.7-0.7c0.2,0.3,0.4,0.5,0.7,0.7l-0.1,0c-0.3-0.3-0.6-0.7-0.9-1.1l0.2,0.2l-0.3-0.3l0.1,0.1
	c-0.2-0.2-0.3-0.4-0.5-0.7l0-0.1c-0.2-0.3-0.4-0.6-0.6-0.9L74.9,88c-0.2-0.4-0.5-0.7-0.7-1.1c2,0.7,2.9,0.8,3.4,0.4
	c0.5-0.4,1.7-4.4,4.6-4.8c0.6-1-0.7-3.7-0.7-3.7s3.9,1.5,5.9,4.3c-1.1-7.9,0.5-18.2,17.1-20c0,0-0.7,0.3-1.5,0.8l0,0
	c-2.5,1.4-6.9,4.7-4.1,9.1l0.2,0.3l0,0c-3.8-0.2-7.8,4.6-4.1,10.1l0.1,0.2l0,0l0.1,0.2c-2.9-0.7-4.8,2.7-5.4,5.6l0,0
	c0.5,0.6,1,1.1,1.1,1.2c1,1.2,1.8,2.7,1.6,4.3c-0.4,2.3-2.2,3.2-4,2.9c-0.7-0.1-1.4-0.4-2.1-0.8c-0.9-0.6-1.6-1.4-2.3-2.2
	c-3.1-0.1-7.2,0.8-7.1,4.7l-0.2-0.1l0,0l0,0l-0.2-0.2l0,0c-4.3-3.7-9.2-0.5-9.4,2.4l0,0.2l0,0c-4.8-1.7-8.8,1.7-10.3,3.1L56.8,104.8
	"/>
<path d="M15.9,275.6l-0.1,0l-0.1,0l-0.1,0l-0.1,0l-0.1,0c0.2-0.2,0.5-0.4,0.7-0.6c0.1-0.1,0.2-0.1,0.2-0.2c0.2-0.1,0.3-0.2,0.5-0.3
	c0.1-0.1,0.2-0.1,0.3-0.2c0.1-0.1,0.3-0.2,0.4-0.3c0.1-0.1,0.2-0.1,0.4-0.2c0.1-0.1,0.2-0.1,0.3-0.2c0.1-0.1,0.2-0.1,0.4-0.2
	c0.1-0.1,0.2-0.1,0.3-0.2c0.1-0.1,0.2-0.1,0.4-0.2c0.1,0,0.2-0.1,0.3-0.1c0.1-0.1,0.2-0.1,0.3-0.1c0.1,0,0.2-0.1,0.3-0.1
	c0.1,0,0.2-0.1,0.3-0.1c0.1,0,0.2-0.1,0.3-0.1c0.1,0,0.2-0.1,0.3-0.1c0.1,0,0.2-0.1,0.3-0.1c0.1,0,0.2,0,0.3-0.1
	c0.1,0,0.2,0,0.3-0.1c0.1,0,0.2,0,0.3-0.1l0.3,0c0.1,0,0.2,0,0.3,0l0.3,0c0.1,0,0.2,0,0.3,0l0.3,0c0.1,0,0.2,0,0.3,0
	c0.1,0,0.2,0,0.3,0c0.1,0,0.2,0,0.3,0c0.1,0,0.2,0,0.3,0c0.1,0,0.2,0,0.3,0c0.1,0,0.2,0,0.3,0c0.1,0,0.2,0,0.2,0.1
	c0.1,0,0.2,0,0.3,0.1c0.1,0,0.2,0,0.2,0.1c0.1,0,0.2,0,0.3,0.1c0.1,0,0.1,0,0.2,0.1c0.1,0,0.2,0.1,0.2,0.1c0.1,0,0.1,0.1,0.2,0.1
	c0.1,0,0.2,0.1,0.2,0.1c0.1,0,0.1,0.1,0.2,0.1c0.1,0,0.2,0.1,0.2,0.1c0.1,0,0.1,0.1,0.2,0.1c0.1,0,0.2,0.1,0.2,0.1
	c0.1,0,0.1,0.1,0.2,0.1c0.1,0,0.2,0.1,0.2,0.1c0.1,0,0.1,0.1,0.2,0.1c0.1,0,0.2,0.1,0.2,0.1c0.1,0,0.1,0.1,0.2,0.1
	c0.1,0.1,0.1,0.1,0.2,0.2c0.1,0,0.1,0.1,0.2,0.1c0.1,0.1,0.1,0.1,0.2,0.2c0.1,0,0.1,0.1,0.2,0.1c0.1,0.1,0.1,0.1,0.2,0.2
	c0.1,0,0.1,0.1,0.2,0.1c0.1,0.1,0.1,0.1,0.2,0.2c0.1,0.1,0.1,0.1,0.2,0.2c0.1,0.1,0.1,0.1,0.2,0.2c0.1,0.1,0.1,0.1,0.2,0.2
	c0.1,0.1,0.1,0.1,0.2,0.2c0,0.1,0.1,0.1,0.1,0.2c0.1,0.1,0.1,0.1,0.2,0.2c0,0.1,0.1,0.1,0.1,0.2l0.1,0.2l0,0l0,0
	c0-0.2,0-0.4-0.1-0.6c0,0.2,0,0.4,0.1,0.6l0-0.1c0-0.3,0-0.6,0-0.9l0,0.2l0-0.3l0,0.1c0-0.2,0-0.4,0-0.5l0,0c0-0.2,0-0.5,0-0.7
	l0-0.2c0-0.3,0-0.6,0.1-0.9c0.8,1.1,1.2,1.5,1.6,1.5c0.4,0,2.6-1.6,4.2-0.7c0.7-0.3,1.1-2.2,1.1-2.2s1.4,2.3,1.4,4.5
	c2.5-4.5,7.3-9.2,16.6-3.8c0,0-0.5-0.1-1.1-0.2l0,0c-1.8-0.2-5.4-0.2-5.6,3.1l0,0.2l0,0c-1.9-1.6-5.8-0.6-6,3.6l0,0.1l0,0l0,0.2
	c-1.2-1.5-3.5-0.4-5,0.8l0,0c0.1,0.5,0.1,0.9,0.1,1.1c0,1-0.1,2.1-0.8,2.8c-1.1,1-2.3,0.8-3.2,0c-0.3-0.3-0.6-0.8-0.8-1.2
	c-0.2-0.6-0.3-1.3-0.3-2c-1.6-1.3-4-2.4-5.5-0.3l0-0.1l0,0l0,0l0-0.2l0,0c-0.8-3.6-4.6-3.8-5.8-2.4l-0.1,0.1l0,0
	c-1.9-2.7-5.2-2.5-6.6-2.3L15.9,275.6"/>
</svg>
