<?xml version="1.0" encoding="utf-8"?>
<!-- Generator: Adobe Illustrator 23.0.3, SVG Export Plug-In . SVG Version: 6.00 Build 0)  -->
<svg version="1.1" id="Layer_1" xmlns="http://www.w3.org/2000/svg" xmlns:xlink="http://www.w3.org/1999/xlink" x="0px" y="0px"
	 viewBox="0 0 262 451.9" style="enable-background:new 0 0 262 451.9;" xml:space="preserve">
<style type="text/css">
	.st0{opacity:0.5;fill:url(#SVGID_2_);}
	.st1{opacity:0.5;fill:url(#SVGID_3_);}
	.st2{fill:none;stroke:#B2B2B2;stroke-width:0.5;stroke-miterlimit:10;}
	.st3{fill:url(#SVGID_4_);}
	.st4{fill:url(#SVGID_5_);}
	.st5{fill:url(#SVGID_6_);}
	.st6{opacity:0.95;fill:url(#SVGID_7_);}
	.st7{opacity:0.7;clip-path:url(#SVGID_8_);fill:url(#SVGID_9_);}
	.st8{clip-path:url(#SVGID_8_);}
	.st9{clip-path:url(#SVGID_8_);fill:url(#SVGID_10_);}
	.st10{opacity:0.48;fill:url(#SVGID_11_);}
	.st11{fill:url(#SVGID_12_);}
	.st12{fill:url(#SVGID_13_);}
	.st13{fill:url(#SVGID_14_);}
	.st14{fill:url(#SVGID_16_);}
	.st15{opacity:0.95;fill:url(#SVGID_17_);}
	.st16{opacity:0.7;clip-path:url(#SVGID_18_);fill:url(#SVGID_19_);}
	.st17{clip-path:url(#SVGID_18_);}
	.st18{opacity:0.48;fill:#FFFFFF;}
	.st19{fill:url(#SVGID_20_);}
</style>
<radialGradient id="SVGID_2_" cx="147.3096" cy="268.2033" r="92.0571" gradientUnits="userSpaceOnUse">
	<stop  offset="0.2179" style="stop-color:#312350;stop-opacity:0.8"/>
	<stop  offset="0.4128" style="stop-color:#332552;stop-opacity:0.5674"/>
	<stop  offset="0.5088" style="stop-color:#3A2D58;stop-opacity:0.4528"/>
	<stop  offset="0.5832" style="stop-color:#473A62;stop-opacity:0.364"/>
	<stop  offset="0.6465" style="stop-color:#584D71;stop-opacity:0.2885"/>
	<stop  offset="0.7028" style="stop-color:#6F6584;stop-opacity:0.2213"/>
	<stop  offset="0.754" style="stop-color:#8B839C;stop-opacity:0.1602"/>
	<stop  offset="0.8015" style="stop-color:#ACA6B8;stop-opacity:0.1036"/>
	<stop  offset="0.8449" style="stop-color:#D2CFD8;stop-opacity:5.175066e-02"/>
	<stop  offset="0.8855" style="stop-color:#FCFCFC;stop-opacity:3.284574e-03"/>
	<stop  offset="0.8883" style="stop-color:#FFFFFF;stop-opacity:0"/>
</radialGradient>
<path class="st0" d="M211.6,290.2c39.6-75.6-16.3-123-57.8-126.2c-41.5-3.2-104.5,35.2-77.8,115.9c16.7,47.4,45.4,73.4,58.1,78.7
	c-0.9,1.6-2.4,4.5-5,6.7c-3.1,2.7,1.7,6.9,7.5,7.3c5.9,0.4,11.3-3,8.7-6.1c-2.2-2.7-3.2-5.7-3.9-7.4
	C154.7,355.8,187.3,334.4,211.6,290.2z"/>
<g>
	<radialGradient id="SVGID_3_" cx="101.4186" cy="123.4776" r="76.6605" gradientUnits="userSpaceOnUse">
		<stop  offset="0.2179" style="stop-color:#312350;stop-opacity:0.8"/>
		<stop  offset="0.4128" style="stop-color:#332552;stop-opacity:0.5674"/>
		<stop  offset="0.5088" style="stop-color:#3A2D58;stop-opacity:0.4528"/>
		<stop  offset="0.5832" style="stop-color:#473A62;stop-opacity:0.364"/>
		<stop  offset="0.6465" style="stop-color:#584D71;stop-opacity:0.2885"/>
		<stop  offset="0.7028" style="stop-color:#6F6584;stop-opacity:0.2213"/>
		<stop  offset="0.754" style="stop-color:#8B839C;stop-opacity:0.1602"/>
		<stop  offset="0.8015" style="stop-color:#ACA6B8;stop-opacity:0.1036"/>
		<stop  offset="0.8449" style="stop-color:#D2CFD8;stop-opacity:5.175066e-02"/>
		<stop  offset="0.8855" style="stop-color:#FCFCFC;stop-opacity:3.284574e-03"/>
		<stop  offset="0.8883" style="stop-color:#FFFFFF;stop-opacity:0"/>
	</radialGradient>
	<path class="st1" d="M157,138.6C186.4,74,137.8,37.2,103.2,36.5c-34.6-0.7-85.2,34-59.4,99.8c16.1,38.6,41.1,58.9,51.8,62.7
		c-0.7,1.4-1.8,3.8-3.9,5.8c-2.4,2.3,1.7,5.6,6.6,5.7c4.9,0.1,9.2-3,6.9-5.4c-2-2.1-3-4.6-3.5-6C112.7,195.7,138.8,176.5,157,138.6z
		"/>
	<g>
		<path class="st2" d="M97.2,180.4c0,0-1.3,24.5-25.2,41.1s-49.3,47.7-31.3,85s84.9,89.8,20.6,145.2"/>
		<g>
			
				<radialGradient id="SVGID_4_" cx="-293.6815" cy="107.4383" r="12.2526" gradientTransform="matrix(0.8088 0.1388 -0.1343 0.7828 349.5223 136.2486)" gradientUnits="userSpaceOnUse">
				<stop  offset="0" style="stop-color:#302C31"/>
				<stop  offset="0.3891" style="stop-color:#2E2A2F"/>
				<stop  offset="0.6191" style="stop-color:#252226"/>
				<stop  offset="0.8077" style="stop-color:#181618"/>
				<stop  offset="0.973" style="stop-color:#040404"/>
				<stop  offset="1" style="stop-color:#000000"/>
			</radialGradient>
			<path class="st3" d="M99.6,184.3c-1.1-1.9-2-4.8-2.4-6.2c-0.4,0-0.8,0-1.2,0c-0.4-0.1-0.8-0.2-1.1-0.4c-3.8,6.6-7,9.1-7,9.1
				c6.3,3.1,13.8,0.3,13.8,0.3S100.8,186.5,99.6,184.3z"/>
			
				<radialGradient id="SVGID_5_" cx="-292.9972" cy="116.4868" r="14.2288" gradientTransform="matrix(0.8161 -5.720979e-02 2.263564e-02 0.2377 333.4028 142.1864)" gradientUnits="userSpaceOnUse">
				<stop  offset="0.1523" style="stop-color:#232327"/>
				<stop  offset="0.6396" style="stop-color:#27212E"/>
				<stop  offset="0.6841" style="stop-color:#1B1720"/>
				<stop  offset="0.7755" style="stop-color:#070609"/>
				<stop  offset="0.8325" style="stop-color:#000000"/>
				<stop  offset="1" style="stop-color:#4A4654"/>
			</radialGradient>
			<path class="st4" d="M101.7,187.1c0,0-7.5,2.8-13.8-0.3c0,0-0.6-0.3-0.9,0.5c-0.3,0.8,2.5,2.1,6.9,2.3c5.9,0.3,8.6-0.7,9.1-1.5
				C103.1,187.9,102.9,186.6,101.7,187.1z"/>
			
				<radialGradient id="SVGID_6_" cx="-295.0553" cy="101.4001" r="4.8065" gradientTransform="matrix(0.8088 0.1388 -0.1343 0.7828 349.507 136.3373)" gradientUnits="userSpaceOnUse">
				<stop  offset="0" style="stop-color:#302C31"/>
				<stop  offset="0.3891" style="stop-color:#2E2A2F"/>
				<stop  offset="0.6191" style="stop-color:#252226"/>
				<stop  offset="0.8077" style="stop-color:#181618"/>
				<stop  offset="0.973" style="stop-color:#040404"/>
				<stop  offset="1" style="stop-color:#000000"/>
			</radialGradient>
			<path class="st5" d="M99.4,176.6c-0.2,1.1-1.7,1.7-3.4,1.4c-1.7-0.3-2.9-1.4-2.7-2.5c0.2-1.1,1.7-1.7,3.4-1.4
				C98.3,174.4,99.5,175.5,99.4,176.6z"/>
			
				<radialGradient id="SVGID_7_" cx="-146.2116" cy="46.0635" r="116.8308" gradientTransform="matrix(0.9856 0.1692 -0.1692 0.9856 227.5593 103.3154)" gradientUnits="userSpaceOnUse">
				<stop  offset="0.2386" style="stop-color:#16161A"/>
				<stop  offset="0.6035" style="stop-color:#28292A"/>
				<stop  offset="0.731" style="stop-color:#2F3131"/>
				<stop  offset="1" style="stop-color:#46484D"/>
			</radialGradient>
			<path class="st6" d="M172.6,90.1c-4.2,41.5-43.7,90.3-77.5,84.5c-20.7-3.6-36.8-25.8-43.8-52.6c-4.4-17-5.2-35.8-1.1-52.9
				c8-33.3,37.6-55,71.4-49.2S176,56,172.6,90.1z"/>
			<g>
				<defs>
					<path id="SVGID_15_" d="M172.6,90.1c-4.2,41.5-43.7,90.3-77.5,84.5c-20.7-3.6-36.8-25.8-43.8-52.6c-4.4-17-5.2-35.8-1.1-52.9
						c8-33.3,37.6-55,71.4-49.2S176,56,172.6,90.1z"/>
				</defs>
				<clipPath id="SVGID_8_">
					<use xlink:href="#SVGID_15_"  style="overflow:visible;"/>
				</clipPath>
				
					<radialGradient id="SVGID_9_" cx="-1510.3453" cy="864.7206" r="57.4395" gradientTransform="matrix(0.4882 -0.1199 0.3141 1.2786 533.6954 -1170.8326)" gradientUnits="userSpaceOnUse">
					<stop  offset="0" style="stop-color:#D5D5D5"/>
					<stop  offset="0.1159" style="stop-color:#D0D0D0"/>
					<stop  offset="0.2529" style="stop-color:#C2C2C2"/>
					<stop  offset="0.4007" style="stop-color:#AAAAAA"/>
					<stop  offset="0.5561" style="stop-color:#898989"/>
					<stop  offset="0.7174" style="stop-color:#5E5E5E"/>
					<stop  offset="0.8812" style="stop-color:#2A2A2A"/>
					<stop  offset="1" style="stop-color:#000000"/>
				</radialGradient>
				<path class="st7" d="M96,109c10,40.6,5.5,76.5-10,80.3c-15.5,3.8-36.1-26-46.1-66.5c-10-40.6-5.5-76.5,10-80.3
					C65.4,38.6,86,68.4,96,109z"/>
				<g class="st8">
					<g>
						
							<image style="overflow:visible;" width="107.6" height="176.8" xlink:href="DA926181.png"  transform="matrix(1 0 0 1 37.6806 9.9852)"/>
					</g>
				</g>
				
					<radialGradient id="SVGID_10_" cx="-1148.4691" cy="-882.9159" r="84.7814" gradientTransform="matrix(0.4407 -0.1642 0.2103 0.5642 832.4549 376.9921)" gradientUnits="userSpaceOnUse">
					<stop  offset="0" style="stop-color:#5C5C65"/>
					<stop  offset="0.2845" style="stop-color:#39393E"/>
					<stop  offset="0.5861" style="stop-color:#1A1A1C"/>
					<stop  offset="0.8355" style="stop-color:#070708"/>
					<stop  offset="1" style="stop-color:#000000"/>
				</radialGradient>
				<path class="st9" d="M178,53.5c9.8,26.4,1.1,54.1-19.5,61.8c-20.6,7.7-45.3-7.5-55.2-33.9c-9.8-26.4-1.1-54.1,19.5-61.8
					S168.2,27.1,178,53.5z"/>
				<g class="st8">
					<g>
						
							<image style="overflow:visible;" width="61" height="62.8" xlink:href="DA926180.png"  transform="matrix(1 0 0 1 105.8032 113.4308)"/>
					</g>
				</g>
			</g>
			
				<radialGradient id="SVGID_11_" cx="-200.4661" cy="77.4681" r="83.3573" gradientTransform="matrix(0.9929 0.1197 -0.122 1.0119 338.258 -18.256)" gradientUnits="userSpaceOnUse">
				<stop  offset="0" style="stop-color:#444248"/>
				<stop  offset="0.3864" style="stop-color:#3C3A40"/>
				<stop  offset="0.9934" style="stop-color:#252529"/>
				<stop  offset="1" style="stop-color:#252529"/>
			</radialGradient>
			<path class="st10" d="M169.4,87.7c3.2-32.1-19-61.2-51.1-65.1c-32.1-3.9-61.9,18.9-65.1,51.1C48.9,118.1,165,132.6,169.4,87.7z"
				/>
		</g>
		
			<radialGradient id="SVGID_12_" cx="-130.8787" cy="21.0816" r="71.0374" gradientTransform="matrix(0.9036 0.4284 -0.4284 0.9036 233.5982 109.8393)" gradientUnits="userSpaceOnUse">
			<stop  offset="0" style="stop-color:#FFFFFF"/>
			<stop  offset="1" style="stop-color:#423B37"/>
		</radialGradient>
		<path class="st11" d="M157.9,84.2c9-14.9-2-33.5-12.1-40.1c-10.1-6.6-22.9-1.4-21.6,18.7C126.1,90.8,149,99.1,157.9,84.2z
			 M71.1,54.5c10.8-13.3,25.3-19.9,27.9-10.7c2.6,9.2-15.1,32.8-23.9,34.1C62.3,79.8,60.3,67.8,71.1,54.5z M87.6,96.8
			c4.5-13.9,19.6-14.9,26.2-1.1c5.2,10.8,1.9,30.7-5.2,41.5c-7,10.7-15.1,5.2-19.2-3.9C84.3,121.9,83.7,108.7,87.6,96.8z"/>
	</g>
</g>
<g>
	<g>
		<path class="st2" d="M136.8,335.1c0,0-27.9,15.8-25.3,40.1c2.7,25.5,40.1,48.8,47.6,39c11.2-14.5-34.6-16.7-41,5.3
			c-4.7,16.4-17.2,21.8-44.4,14.4"/>
		<g>
			
				<radialGradient id="SVGID_13_" cx="-186.6445" cy="-67.0133" r="14.7298" gradientTransform="matrix(0.7999 0.1829 -0.177 0.7742 274.9608 421.4253)" gradientUnits="userSpaceOnUse">
				<stop  offset="0" style="stop-color:#E1E0E1"/>
				<stop  offset="0.1214" style="stop-color:#D6D5D6"/>
				<stop  offset="0.3331" style="stop-color:#BAB9BA"/>
				<stop  offset="0.6099" style="stop-color:#8B8A8B"/>
				<stop  offset="0.9379" style="stop-color:#4B4A4B"/>
				<stop  offset="1" style="stop-color:#3E3D3E"/>
			</radialGradient>
			<path class="st12" d="M139.6,341.2c-1.2-2.4-2.1-5.9-2.5-7.6c-0.4,0-0.9,0-1.4-0.1c-0.5-0.1-0.9-0.3-1.3-0.5
				c-5,7.6-9,10.4-9,10.4c7.4,4.1,16.5,1.3,16.5,1.3S140.9,343.9,139.6,341.2z"/>
			
				<radialGradient id="SVGID_14_" cx="-185.822" cy="-56.1348" r="17.1057" gradientTransform="matrix(0.8179 -1.240858e-02 9.570134e-03 0.2385 288.8239 354.9032)" gradientUnits="userSpaceOnUse">
				<stop  offset="0.1523" style="stop-color:#232327"/>
				<stop  offset="0.6396" style="stop-color:#9B999F"/>
				<stop  offset="0.6651" style="stop-color:#959398"/>
				<stop  offset="0.7682" style="stop-color:#807F81"/>
				<stop  offset="0.8325" style="stop-color:#787878"/>
				<stop  offset="1" style="stop-color:#E6E5E7"/>
			</radialGradient>
			<path class="st13" d="M141.9,344.7c0,0-9.1,2.8-16.5-1.3c0,0-0.7-0.3-1.2,0.6c-0.5,0.9,2.8,2.7,8.2,3.3c7,0.7,10.4-0.3,11-1.1
				C143.6,345.7,143.4,344.2,141.9,344.7z"/>
			
				<radialGradient id="SVGID_16_" cx="-188.2957" cy="-74.272" r="5.7785" gradientTransform="matrix(0.7999 0.1829 -0.177 0.7742 274.9367 421.5308)" gradientUnits="userSpaceOnUse">
				<stop  offset="0" style="stop-color:#E1E0E1"/>
				<stop  offset="0.1214" style="stop-color:#D6D5D6"/>
				<stop  offset="0.3331" style="stop-color:#BAB9BA"/>
				<stop  offset="0.6099" style="stop-color:#8B8A8B"/>
				<stop  offset="0.9379" style="stop-color:#4B4A4B"/>
				<stop  offset="1" style="stop-color:#3E3D3E"/>
			</radialGradient>
			<path class="st14" d="M139.9,332c-0.3,1.3-2.1,2-4.1,1.5c-2-0.5-3.4-1.9-3.1-3.2c0.3-1.3,2.1-2,4.1-1.5
				C138.8,329.2,140.2,330.7,139.9,332z"/>
			
				<radialGradient id="SVGID_17_" cx="-64.772" cy="-100.452" r="140.4505" gradientTransform="matrix(0.9748 0.223 -0.223 0.9748 155.6425 379.574)" gradientUnits="userSpaceOnUse">
				<stop  offset="1.015230e-02" style="stop-color:#707072"/>
				<stop  offset="0.5539" style="stop-color:#BDBDBD"/>
				<stop  offset="0.731" style="stop-color:#D7D7D7"/>
				<stop  offset="1" style="stop-color:#C1C2C4"/>
			</radialGradient>
			<path class="st15" d="M233.5,233c-7.7,49.6-58.4,105.5-98.6,96.3c-24.6-5.6-42.5-33.4-49.1-66c-4.2-20.7-3.8-43.3,2.2-63.6
				c11.8-39.5,48.8-63.6,89-54.4C217.2,154.5,239.8,192.2,233.5,233z"/>
			<g>
				<defs>
					<path id="SVGID_1_" d="M233.5,233c-7.7,49.6-58.4,105.5-98.6,96.3c-24.6-5.6-42.5-33.4-49.1-66c-4.2-20.7-3.8-43.3,2.2-63.6
						c11.8-39.5,48.8-63.6,89-54.4C217.2,154.5,239.8,192.2,233.5,233z"/>
				</defs>
				<clipPath id="SVGID_18_">
					<use xlink:href="#SVGID_1_"  style="overflow:visible;"/>
				</clipPath>
				
					<radialGradient id="SVGID_19_" cx="-1262.8918" cy="789.4165" r="94.6257" gradientTransform="matrix(0.494 -9.300000e-02 0.2435 1.2939 531.1383 -876.0742)" gradientUnits="userSpaceOnUse">
					<stop  offset="0" style="stop-color:#676767"/>
					<stop  offset="0.2755" style="stop-color:#8D8D8D"/>
					<stop  offset="0.8881" style="stop-color:#EDEDED"/>
					<stop  offset="1" style="stop-color:#FFFFFF"/>
				</radialGradient>
				<path class="st16" d="M146.2,254c12.7,67.6,2.1,126.4-23.7,131.2c-25.8,4.9-57.1-46-69.8-113.6C40,204,50.6,145.2,76.4,140.4
					C102.3,135.5,133.5,186.4,146.2,254z"/>
				<g class="st17">
					<g>
						
							<image style="overflow:visible;" width="132.2" height="210" xlink:href="DA92618F.png"  transform="matrix(1 0 0 1 73.1711 133.6292)"/>
					</g>
				</g>
				<g class="st17">
					<g>
						
							<image style="overflow:visible;" width="76.5" height="71.2" xlink:href="DA92618A.png"  transform="matrix(1 0 0 1 147.7249 260.5072)"/>
					</g>
				</g>
			</g>
			<path class="st18" d="M229.9,229.8c5.9-38.4-18.8-74.7-57-81.5c-38.2-6.8-75.5,18.6-81.5,57C83.2,258.3,221.5,283.5,229.9,229.8z
				"/>
		</g>
		
			<radialGradient id="SVGID_20_" cx="169.4458" cy="239.0935" r="61.0923" gradientTransform="matrix(0.9997 -2.620000e-02 2.620000e-02 0.9997 -28.4909 -14.8388)" gradientUnits="userSpaceOnUse">
			<stop  offset="0" style="stop-color:#52517E"/>
			<stop  offset="1" style="stop-color:#292941"/>
		</radialGradient>
		<path class="st19" d="M173.2,211.5c-6-8.3-8-27,2-30.9c10-3.9,28.6,10,33.5,24.3C213.7,219.3,192.1,237.8,173.2,211.5z
			 M130.5,204.6c7.5-6.9,13.3-24.8,4.3-30.7c-9-5.9-30,3.9-37.8,17S106.7,226.6,130.5,204.6z M134,231.5c3.2,1.7,8-4,9.4-3.2
			c3.2,1.7,6.1,5.6,7.8,3.2c1.7-2.4,0-6.7-1.9-12.1c-1.9-5.5-6.4-4.4-10.8,0.3C134,224.2,130.8,229.8,134,231.5z M190.4,245.3
			c-7.5-3.7-17.8,1.7-22.9,10.1c-3.6,6-6.3,10.3-9,12.6c-1-0.1-1.9-0.1-2.9-0.2c0.8-5,1.5-9.3,1.5-9.7c0.2-1.4-0.7-2.6-2.1-2.8
			c-1.4-0.2-2.6,0.7-2.8,2.1c0,0.1-0.7,4.6-1.6,9.8c-2.9-0.4-5.8-0.8-8.7-1.3l1.4-9.8c0.2-1.4-0.7-2.6-2.1-2.8
			c-1.4-0.2-2.6,0.7-2.8,2.1l-1.4,9.6c-3.5-0.7-6.7-1.4-9.7-2.1c0.8-5.5,1.7-10.4,1.7-10.5c0.2-1.4-0.7-2.6-2-2.9
			c-1.4-0.2-2.7,0.7-2.9,2c-0.1,0.4-0.8,4.9-1.6,10.1c-1.8-0.5-3.4-0.9-4.7-1.3c-1.9-3-3.1-7.9-4.8-14.5
			c-2.4-9.6-10.7-17.8-18.9-16.4c-5.3,0.9-14.8,11.3,3.2,45.4c7.1,13.4,10.1,1.9,13.4-4.4c1.3-2.4,3.6-4.1,5.7-5.2
			c1.5,0.4,3.3,0.9,5.4,1.4c-0.5,3.3-0.8,6.4-1,8.3c-0.1,1.4,1,2.6,2.3,2.6c0.1,0,0.2,0,0.3,0c1.2-0.1,2.2-1.1,2.3-2.3
			c0.1-1.7,0.4-4.5,0.8-7.4c3,0.7,6.2,1.4,9.7,2.1l-1.5,10.5c-0.2,1.4,0.7,2.6,2.1,2.8c0.2,0,0.4,0,0.5,0c1.1-0.1,2.1-0.9,2.3-2.1
			l1.5-10.3c2.8,0.5,5.6,0.9,8.5,1.3c-0.6,3.4-1.3,6.7-1.9,8.7c-0.4,1.3,0.4,2.7,1.7,3.1c0.3,0.1,0.6,0.1,0.9,0.1
			c1-0.1,1.9-0.8,2.2-1.8c0.7-2.3,1.4-5.9,2.1-9.6c1.3,0.1,2.7,0.2,4,0.3c1.6,1.7,3.2,3.9,3.7,6.5c1.3,7,0.8,18.8,11.5,8.2
			C201.2,260.5,195.2,247.7,190.4,245.3z"/>
	</g>
</g>
</svg>
